<svg xmlns="http://www.w3.org/2000/svg" width="16" height="16"><path fill-rule="evenodd" fill="#FEE489" d="M16.005 1.615L13.925 7.5l-.068-.005c-.164.296-.456.505-.804.505H6.548l.25.999H13a1 1 0 0 1 0 2H6A1 1 0 0 1 5 10c0-.059.024-.11.033-.166L3.079 1.999H2.5v-.153a.968.968 0 0 1-.5.153H1A1 1 0 1 1 1 0h1c.186 0 .351.064.5.153V0H15a1 1 0 0 1 1 .999.98.98 0 0 1-.222.603l.227.013zm-10.953.384l.998 4h6.433l1.413-4H5.052zm1.448 11A1.5 1.5 0 1 1 6.499 16 1.5 1.5 0 0 1 6.5 13zm6 0A1.5 1.5 0 1 1 12.499 16 1.5 1.5 0 0 1 12.5 13z"/></svg>