<svg width="24" height="25" viewBox="0 0 24 25" fill="none" xmlns="http://www.w3.org/2000/svg">
<path d="M24 12.5439C24 19.1714 18.6274 24.5439 12 24.5439C5.37258 24.5439 0 19.1714 0 12.5439C0 5.91653 5.37258 0.543945 12 0.543945C18.6274 0.543945 24 5.91653 24 12.5439Z" fill="white" fill-opacity="0.2"/>
<path d="M7.15542 18.0687C7.47404 18.3874 17.3508 13.6082 17.3508 12.8117C17.3508 12.0152 7.42092 7.28908 7.15542 7.55472C6.88991 7.82036 7.1022 11.0593 7.42092 11.378C7.73964 11.6967 10.9787 12.8117 10.9787 12.8117C10.9787 12.8117 7.79247 13.6083 7.42092 13.9799C7.04937 14.3515 6.83679 17.75 7.15542 18.0687Z" fill="white"/>
</svg>
