<svg width="430" height="257" viewBox="0 0 430 257" fill="none" xmlns="http://www.w3.org/2000/svg">
<mask id="path-1-inside-1" fill="white">
<path fill-rule="evenodd" clip-rule="evenodd" d="M2.34902 246.983C0.88323 245.244 0 242.997 0 240.544V10.5439C0 5.0211 4.47716 0.543945 10 0.543945H420C425.523 0.543945 430 5.0211 430 10.544V240.544C430 246.067 425.523 250.544 420 250.544H10.0052C3.12129 252.611 0 256.044 0 256.044L2.34902 246.983Z"/>
</mask>
<path d="M2.34902 246.983L3.31702 247.234L3.44669 246.734L3.11378 246.339L2.34902 246.983ZM10.0052 250.544V249.544H9.85827L9.71758 249.586L10.0052 250.544ZM0 256.044L-0.967997 255.793L0.739894 256.717L0 256.044ZM-1 240.544C-1 243.241 -0.0277607 245.714 1.58427 247.628L3.11378 246.339C1.79422 244.773 1 242.752 1 240.544H-1ZM-1 10.5439V240.544H1V10.5439H-1ZM10 -0.456055C3.92487 -0.456055 -1 4.46881 -1 10.5439H1C1 5.57338 5.02944 1.54395 10 1.54395V-0.456055ZM420 -0.456055H10V1.54395H420V-0.456055ZM431 10.544C431 4.46882 426.075 -0.456055 420 -0.456055V1.54395C424.971 1.54395 429 5.57339 429 10.544H431ZM431 240.544V10.544H429V240.544H431ZM420 251.544C426.075 251.544 431 246.619 431 240.544H429C429 245.515 424.971 249.544 420 249.544V251.544ZM10.0052 251.544H420V249.544H10.0052V251.544ZM0 256.044C0.739894 256.717 0.739644 256.717 0.739405 256.717C0.739341 256.717 0.739114 256.718 0.738986 256.718C0.738731 256.718 0.738522 256.718 0.73836 256.718C0.738036 256.719 0.7379 256.719 0.737952 256.719C0.738056 256.719 0.738912 256.718 0.740522 256.716C0.743744 256.713 0.749982 256.706 0.759257 256.696C0.777807 256.677 0.808497 256.645 0.851478 256.603C0.937447 256.517 1.07254 256.388 1.25797 256.224C1.62887 255.896 2.20087 255.429 2.98374 254.896C4.54885 253.831 6.95829 252.503 10.2928 251.502L9.71758 249.586C6.16817 250.652 3.57502 252.074 1.85852 253.242C1.00058 253.826 0.362021 254.346 -0.0674476 254.726C-0.282197 254.916 -0.444734 255.071 -0.556352 255.182C-0.612164 255.237 -0.655255 255.282 -0.685788 255.314C-0.701055 255.329 -0.713184 255.342 -0.722195 255.352C-0.7267 255.357 -0.730426 255.361 -0.733375 255.364C-0.734849 255.366 -0.73613 255.367 -0.737216 255.368C-0.737759 255.369 -0.738254 255.369 -0.7387 255.37C-0.738923 255.37 -0.739222 255.37 -0.739334 255.371C-0.73962 255.371 -0.739894 255.371 0 256.044ZM1.38103 246.732L-0.967997 255.793L0.967997 256.295L3.31702 247.234L1.38103 246.732Z" fill="black" fill-opacity="0.4" mask="url(#path-1-inside-1)"/>
</svg>
