<svg width="1200" height="558" viewBox="0 0 1200 558" fill="none" xmlns="http://www.w3.org/2000/svg">
<path d="M-532.654 466.773L-459.623 421.356L-388.906 405.73L-315.464 408.599L-242.182 386.178L-166.758 397.169L-91.4061 380.575L-20.5457 420.121L55.8826 375.986L131.074 334.101L205.063 381.814L274.92 329.377L345.341 291.903L430.223 354.983L500.241 327.836L574.392 253.731L647.387 268.076L723.196 298.62L795.411 215.245L871.175 246.937L1096.58 184.487L1199.16 177.002L1279.36 242.197L1368.99 183.637L1478.71 199.416L1566.93 147.697L1658.21 135.173L1695.31 97.5461" stroke="black" stroke-opacity="0.5"/>
<path d="M-534.654 463.773L-461.623 418.356L-390.906 402.73L-317.464 405.599L-244.182 383.178L-168.758 394.169L-93.4061 377.575L-22.5457 417.121L53.8826 372.986L129.074 331.101L203.063 378.814L272.92 326.377L343.341 288.903L428.223 351.983L498.241 324.836L572.392 250.731L645.387 265.076L721.196 295.62L793.411 212.245L869.175 243.937L1094.58 181.487L1197.16 174.002L1277.36 239.197L1366.99 180.637L1476.71 196.416L1564.93 144.697L1656.21 132.173L1693.31 94.5461" stroke="black"/>
<path d="M-535.654 460.773L-462.623 415.356L-391.906 399.73L-318.464 402.599L-245.182 380.178L-169.758 391.169L-94.4061 374.575L-23.5457 414.121L52.8826 369.986L128.074 328.101L202.063 375.814L271.92 323.377L342.341 285.903L427.223 348.983L497.241 321.836L571.392 247.731L644.387 262.076L720.196 292.62L792.411 209.245L868.175 240.937L1093.58 178.487L1196.16 171.002L1276.36 236.197L1365.99 177.637L1475.71 193.416L1563.93 141.697L1655.21 129.173L1692.31 91.5461" stroke="black" stroke-width="2"/>
<circle cx="55.8837" cy="371.986" r="8.18733" transform="rotate(2.2373 55.8837 371.986)" fill="white" stroke="black" stroke-width="2"/>
<circle cx="131.029" cy="331.247" r="8.18733" transform="rotate(2.2373 131.029 331.247)" fill="white" stroke="black" stroke-width="2"/>
<circle cx="205.064" cy="377.813" r="8.18733" transform="rotate(2.2373 205.064 377.813)" fill="white" stroke="black" stroke-width="2"/>
<circle cx="276.068" cy="325.422" r="8.18733" transform="rotate(2.2373 276.068 325.422)" fill="white" stroke="black" stroke-width="2"/>
<circle cx="346.445" cy="289.095" r="8.18733" transform="rotate(2.2373 346.445 289.095)" fill="white" stroke="black" stroke-width="2"/>
<circle cx="431.327" cy="352.175" r="8.18733" transform="rotate(2.2373 431.327 352.175)" fill="white" stroke="black" stroke-width="2"/>
<circle cx="501.434" cy="322.733" r="8.18733" transform="rotate(2.2373 501.434 322.733)" fill="white" stroke="black" stroke-width="2"/>
<circle cx="573.245" cy="249.685" r="8.18733" transform="rotate(2.2373 573.245 249.685)" fill="white" stroke="black" stroke-width="2"/>
<circle cx="646.241" cy="264.03" r="8.18733" transform="rotate(2.2373 646.241 264.03)" fill="white" stroke="black" stroke-width="2"/>
<circle cx="723.196" cy="294.621" r="8.18733" transform="rotate(2.2373 723.196 294.621)" fill="white" stroke="black" stroke-width="2"/>
<circle cx="795.367" cy="212.392" r="8.18733" transform="rotate(2.2373 795.367 212.392)" fill="white" stroke="black" stroke-width="2"/>
<circle cx="870.028" cy="242.892" r="8.18733" transform="rotate(2.2373 870.028 242.892)" fill="white" stroke="black" stroke-width="2"/>
<circle cx="1095.43" cy="180.442" r="8.18733" transform="rotate(2.2373 1095.43 180.442)" fill="white" stroke="black" stroke-width="2"/>
<circle cx="1196.86" cy="172.912" r="8.18733" transform="rotate(2.2373 1196.86 172.912)" fill="white" stroke="black" stroke-width="2"/>
<circle cx="52.8837" cy="369.986" r="8.18733" transform="rotate(2.2373 52.8837 369.986)" fill="white" stroke="black" stroke-width="2"/>
<circle cx="128.029" cy="329.247" r="8.18733" transform="rotate(2.2373 128.029 329.247)" fill="white" stroke="black" stroke-width="2"/>
<circle cx="202.064" cy="375.813" r="8.18733" transform="rotate(2.2373 202.064 375.813)" fill="white" stroke="black" stroke-width="2"/>
<circle cx="273.068" cy="323.422" r="8.18733" transform="rotate(2.2373 273.068 323.422)" fill="white" stroke="black" stroke-width="2"/>
<circle cx="343.445" cy="287.095" r="8.18733" transform="rotate(2.2373 343.445 287.095)" fill="white" stroke="black" stroke-width="2"/>
<circle cx="428.327" cy="350.175" r="8.18733" transform="rotate(2.2373 428.327 350.175)" fill="white" stroke="black" stroke-width="2"/>
<circle cx="498.434" cy="320.733" r="8.18733" transform="rotate(2.2373 498.434 320.733)" fill="white" stroke="black" stroke-width="2"/>
<circle cx="570.245" cy="247.685" r="8.18733" transform="rotate(2.2373 570.245 247.685)" fill="white" stroke="black" stroke-width="2"/>
<circle cx="643.241" cy="262.03" r="8.18733" transform="rotate(2.2373 643.241 262.03)" fill="white" stroke="black" stroke-width="2"/>
<circle cx="720.196" cy="292.621" r="8.18733" transform="rotate(2.2373 720.196 292.621)" fill="white" stroke="black" stroke-width="2"/>
<circle cx="792.367" cy="210.392" r="8.18733" transform="rotate(2.2373 792.367 210.392)" fill="white" stroke="black" stroke-width="2"/>
<circle cx="867.028" cy="240.892" r="8.18733" transform="rotate(2.2373 867.028 240.892)" fill="white" stroke="black" stroke-width="2"/>
<circle cx="1092.43" cy="178.442" r="8.18733" transform="rotate(2.2373 1092.43 178.442)" fill="white" stroke="black" stroke-width="2"/>
<circle cx="1193.86" cy="170.912" r="8.18733" transform="rotate(2.2373 1193.86 170.912)" fill="white" stroke="black" stroke-width="2"/>
<circle cx="49.8837" cy="366.986" r="8.18733" transform="rotate(2.2373 49.8837 366.986)" fill="white" stroke="black" stroke-width="2"/>
<circle cx="125.029" cy="326.247" r="8.18733" transform="rotate(2.2373 125.029 326.247)" fill="white" stroke="black" stroke-width="2"/>
<circle cx="199.064" cy="372.813" r="8.18733" transform="rotate(2.2373 199.064 372.813)" fill="white" stroke="black" stroke-width="2"/>
<circle cx="270.068" cy="320.422" r="8.18733" transform="rotate(2.2373 270.068 320.422)" fill="white" stroke="black" stroke-width="2"/>
<circle cx="340.445" cy="284.095" r="8.18733" transform="rotate(2.2373 340.445 284.095)" fill="white" stroke="black" stroke-width="2"/>
<circle cx="425.327" cy="347.175" r="8.18733" transform="rotate(2.2373 425.327 347.175)" fill="white" stroke="black" stroke-width="2"/>
<circle cx="495.434" cy="317.733" r="8.18733" transform="rotate(2.2373 495.434 317.733)" fill="white" stroke="black" stroke-width="2"/>
<circle cx="567.245" cy="244.685" r="8.18733" transform="rotate(2.2373 567.245 244.685)" fill="white" stroke="black" stroke-width="2"/>
<circle cx="640.241" cy="259.03" r="8.18733" transform="rotate(2.2373 640.241 259.03)" fill="white" stroke="black" stroke-width="2"/>
<circle cx="717.196" cy="289.621" r="8.18733" transform="rotate(2.2373 717.196 289.621)" fill="white" stroke="black" stroke-width="2"/>
<circle cx="789.367" cy="207.392" r="8.18733" transform="rotate(2.2373 789.367 207.392)" fill="white" stroke="black" stroke-width="2"/>
<circle cx="864.028" cy="237.892" r="8.18733" transform="rotate(2.2373 864.028 237.892)" fill="white" stroke="black" stroke-width="2"/>
<circle cx="1089.43" cy="175.442" r="8.18733" transform="rotate(2.2373 1089.43 175.442)" fill="white" stroke="black" stroke-width="2"/>
<circle cx="1190.86" cy="167.912" r="8.18733" transform="rotate(2.2373 1190.86 167.912)" fill="white" stroke="black" stroke-width="2"/>
</svg>
