<svg width="1200" height="131" viewBox="0 0 1200 131" fill="none" xmlns="http://www.w3.org/2000/svg">
<path d="M1236.08 32.7448L1190.8 83.7856L1156.35 103.704L1113.62 61.9999L1031.34 42.7039L991.161 83.7856L906.332 9.71416L871.89 32.7448L785.785 19.6733L704.783 9.71416L667.152 19.6733L613 1L539.589 91.255L500.045 61.9999L459.863 91.255L382.688 61.9999L329.111 76.9386L311.89 61.9999L243.007 76.9386L215.581 61.9999H172.209L141.5 105.5H98.5L51.025 123L0 130L57.5 99.5L85 91.255H134H172.209L209.202 74.4489L243.007 91.255L295.307 76.9386L329.111 91.255L382.688 70.7142L407.562 83.7856L451.571 70.7142L500.045 83.7856L539.589 61.9999H589.977L667.152 91.255L704.783 61.9999L744.327 74.4489L785.785 51.4182L808.746 67.6019L831.708 83.7856L906.332 70.7142L945.238 91.255L991.161 70.7142H1068.97L1113.62 91.255L1168.47 76.9386L1199.73 42.7039L1236.08 83.7856" stroke="#636363" stroke-opacity="0.3" stroke-linejoin="round" stroke-dasharray="2 2 2 2 2 2"/>
</svg>
