<svg width="417" height="164" viewBox="0 0 417 164" fill="none" xmlns="http://www.w3.org/2000/svg">
<path d="M20.289 13.6959L20.2895 13.6955C30.5211 5.13945 43.642 0.84375 59.694 0.84375C78.2779 0.84375 93.9212 6.46054 106.656 17.6799L91.4056 47.1728C87.0705 43.4908 81.9442 40.4133 76.0321 37.9366C69.8896 35.3634 63.8759 34.0711 57.9945 34.0711C52.5661 34.0711 48.4041 35.0692 45.589 37.145L45.8857 37.5474L45.589 37.145C42.7743 39.2206 41.3495 41.99 41.3495 45.4133C41.3495 48.864 43.0814 51.9701 46.4169 54.7276L46.4168 54.7277L46.425 54.7341C49.8729 57.4658 54.0994 59.757 59.0949 61.6139L59.0948 61.614L59.1068 61.6181C64.0403 63.3108 69.4027 65.5699 75.1947 68.3975L75.1947 68.3976L75.2037 68.4017C80.9897 71.085 86.3497 74.0495 91.2843 77.2948L91.2843 77.2949L91.2929 77.3003C96.1698 80.368 100.222 84.7666 103.444 90.5148L103.448 90.5212L103.451 90.5275C106.798 96.1087 108.479 102.608 108.479 110.041C108.479 123.371 103.718 134.506 94.1903 143.48L94.1877 143.482C84.8162 152.44 71.7828 156.95 55.0204 156.95C44.8861 156.95 34.9621 155.119 25.2459 151.455C15.8129 147.845 7.61563 142.596 0.649008 135.706L19.6365 108.236C24.4035 112.367 30.0393 115.953 36.539 118.998C43.2499 122.141 49.7659 123.722 56.0826 123.722C61.0943 123.722 65.0371 122.721 67.846 120.652C70.7917 118.586 72.3027 115.891 72.3027 112.593C72.3027 109.136 70.4941 106.031 67.0238 103.279C63.7136 100.4 59.5539 98.0367 54.5573 96.1795C49.6202 94.3443 44.2552 92.0134 38.462 89.1855C32.6716 86.2173 27.307 83.1089 22.3678 79.8607C17.4826 76.6479 13.3561 72.2434 9.99213 66.6343C6.78415 60.9087 5.17355 54.3359 5.17355 46.9015C5.17355 33.1526 10.212 22.0997 20.289 13.6959ZM174.024 123.51H234.493V154.398H137.348V3.39486H231.519V34.2837H174.024H173.524V34.7837V62.4207V62.9207H174.024H219.835V93.8096H174.024H173.524V94.3096V123.01V123.51H174.024ZM274.757 23.0211L274.759 23.0194C289.525 8.24195 308.442 0.84375 331.55 0.84375C354.659 0.84375 373.574 8.24195 388.341 23.0194L388.342 23.0211C403.112 37.6613 410.5 55.9554 410.5 77.94C410.5 100.495 403.109 119.287 388.337 134.352C373.57 149.412 354.656 156.95 331.55 156.95C308.445 156.95 289.529 149.412 274.762 134.352C259.99 119.287 252.599 100.495 252.599 77.94C252.599 55.9554 259.987 37.6613 274.757 23.0211ZM301.647 110.798L301.65 110.801C309.537 119.555 319.515 123.935 331.55 123.935C343.583 123.935 353.493 119.555 361.239 110.8C369.121 102.051 373.049 91.0858 373.049 77.94C373.049 65.3557 369.117 54.8831 361.231 46.5607C353.484 38.0916 343.577 33.8585 331.55 33.8585C319.521 33.8585 309.544 38.0926 301.655 46.5607L301.655 46.5609C293.912 54.8842 290.05 65.3568 290.05 77.94C290.05 91.0841 293.908 102.049 301.647 110.798Z" stroke="black"/>
<path d="M26.289 19.6959L26.2895 19.6955C36.5211 11.1394 49.642 6.84375 65.694 6.84375C84.2779 6.84375 99.9212 12.4605 112.656 23.6799L97.4056 53.1728C93.0705 49.4908 87.9442 46.4133 82.0321 43.9366C75.8896 41.3634 69.8759 40.0711 63.9945 40.0711C58.5661 40.0711 54.4041 41.0692 51.589 43.145L51.8857 43.5474L51.589 43.145C48.7743 45.2206 47.3495 47.99 47.3495 51.4133C47.3495 54.864 49.0814 57.9701 52.4169 60.7276L52.4168 60.7277L52.425 60.7341C55.8729 63.4658 60.0994 65.757 65.0949 67.6139L65.0948 67.614L65.1068 67.6181C70.0403 69.3108 75.4027 71.5699 81.1947 74.3975L81.1947 74.3976L81.2037 74.4017C86.9897 77.085 92.3497 80.0495 97.2843 83.2948L97.2843 83.2949L97.2929 83.3003C102.17 86.368 106.222 90.7666 109.444 96.5148L109.448 96.5212L109.451 96.5275C112.798 102.109 114.479 108.608 114.479 116.041C114.479 129.371 109.718 140.506 100.19 149.48L100.188 149.482C90.8162 158.44 77.7828 162.95 61.0204 162.95C50.8861 162.95 40.9621 161.119 31.2459 157.455C21.8129 153.845 13.6156 148.596 6.64901 141.706L25.6365 114.236C30.4035 118.367 36.0393 121.953 42.539 124.998C49.2499 128.141 55.7659 129.722 62.0826 129.722C67.0943 129.722 71.0371 128.721 73.846 126.652C76.7917 124.586 78.3027 121.891 78.3027 118.593C78.3027 115.136 76.4941 112.031 73.0238 109.279C69.7136 106.4 65.5539 104.037 60.5573 102.179C55.6202 100.344 50.2552 98.0134 44.462 95.1855C38.6716 92.2173 33.307 89.1089 28.3678 85.8607C23.4826 82.6479 19.3561 78.2434 15.9921 72.6343C12.7842 66.9087 11.1736 60.3359 11.1736 52.9015C11.1736 39.1526 16.212 28.0997 26.289 19.6959ZM180.024 129.51H240.493V160.398H143.348V9.39486H237.519V40.2837H180.024H179.524V40.7837V68.4207V68.9207H180.024H225.835V99.8096H180.024H179.524V100.31V129.01V129.51H180.024ZM280.757 29.0211L280.759 29.0194C295.525 14.242 314.442 6.84375 337.55 6.84375C360.659 6.84375 379.574 14.242 394.341 29.0194L394.342 29.0211C409.112 43.6613 416.5 61.9554 416.5 83.94C416.5 106.495 409.109 125.287 394.337 140.352C379.57 155.412 360.656 162.95 337.55 162.95C314.445 162.95 295.529 155.412 280.762 140.352C265.99 125.287 258.599 106.495 258.599 83.94C258.599 61.9554 265.987 43.6613 280.757 29.0211ZM307.647 116.798L307.65 116.801C315.537 125.555 325.515 129.935 337.55 129.935C349.583 129.935 359.493 125.555 367.239 116.8C375.121 108.051 379.049 97.0858 379.049 83.94C379.049 71.3557 375.117 60.8831 367.231 52.5607C359.484 44.0916 349.577 39.8585 337.55 39.8585C325.521 39.8585 315.544 44.0926 307.655 52.5607L307.655 52.5609C299.912 60.8842 296.05 71.3568 296.05 83.94C296.05 97.0841 299.908 108.049 307.647 116.798Z" stroke="black"/>
<path d="M23.289 16.6959L23.2895 16.6955C33.5211 8.13945 46.642 3.84375 62.694 3.84375C81.2779 3.84375 96.9212 9.46054 109.656 20.6799L94.4056 50.1728C90.0705 46.4908 84.9442 43.4133 79.0321 40.9366C72.8896 38.3634 66.8759 37.0711 60.9945 37.0711C55.5661 37.0711 51.4041 38.0692 48.589 40.145L48.8857 40.5474L48.589 40.145C45.7743 42.2206 44.3495 44.99 44.3495 48.4133C44.3495 51.864 46.0814 54.9701 49.4169 57.7276L49.4168 57.7277L49.425 57.7341C52.8729 60.4658 57.0994 62.757 62.0949 64.6139L62.0948 64.614L62.1068 64.6181C67.0403 66.3108 72.4027 68.5699 78.1947 71.3975L78.1947 71.3976L78.2037 71.4017C83.9897 74.085 89.3497 77.0495 94.2843 80.2948L94.2843 80.2949L94.2929 80.3003C99.1698 83.368 103.222 87.7666 106.444 93.5148L106.448 93.5212L106.451 93.5275C109.798 99.1087 111.479 105.608 111.479 113.041C111.479 126.371 106.718 137.506 97.1903 146.48L97.1877 146.482C87.8162 155.44 74.7828 159.95 58.0204 159.95C47.8861 159.95 37.9621 158.119 28.2459 154.455C18.8129 150.845 10.6156 145.596 3.64901 138.706L22.6365 111.236C27.4035 115.367 33.0393 118.953 39.539 121.998C46.2499 125.141 52.7659 126.722 59.0826 126.722C64.0943 126.722 68.0371 125.721 70.846 123.652C73.7917 121.586 75.3027 118.891 75.3027 115.593C75.3027 112.136 73.4941 109.031 70.0238 106.279C66.7136 103.4 62.5539 101.037 57.5573 99.1795C52.6202 97.3443 47.2552 95.0134 41.462 92.1855C35.6716 89.2173 30.307 86.1089 25.3678 82.8607C20.4826 79.6479 16.3561 75.2434 12.9921 69.6343C9.78415 63.9087 8.17355 57.3359 8.17355 49.9015C8.17355 36.1526 13.212 25.0997 23.289 16.6959ZM177.024 126.51H237.493V157.398H140.348V6.39486H234.519V37.2837H177.024H176.524V37.7837V65.4207V65.9207H177.024H222.835V96.8096H177.024H176.524V97.3096V126.01V126.51H177.024ZM277.757 26.0211L277.759 26.0194C292.525 11.242 311.442 3.84375 334.55 3.84375C357.659 3.84375 376.574 11.242 391.341 26.0194L391.342 26.0211C406.112 40.6613 413.5 58.9554 413.5 80.94C413.5 103.495 406.109 122.287 391.337 137.352C376.57 152.412 357.656 159.95 334.55 159.95C311.445 159.95 292.529 152.412 277.762 137.352C262.99 122.287 255.599 103.495 255.599 80.94C255.599 58.9554 262.987 40.6613 277.757 26.0211ZM304.647 113.798L304.65 113.801C312.537 122.555 322.515 126.935 334.55 126.935C346.583 126.935 356.493 122.555 364.239 113.8C372.121 105.051 376.049 94.0858 376.049 80.94C376.049 68.3557 372.117 57.8831 364.231 49.5607C356.484 41.0916 346.577 36.8585 334.55 36.8585C322.521 36.8585 312.544 41.0926 304.655 49.5607L304.655 49.5609C296.912 57.8842 293.05 68.3568 293.05 80.94C293.05 94.0841 296.908 105.049 304.647 113.798Z" stroke="black"/>
</svg>
