<svg width="180" height="69" viewBox="0 0 180 69" fill="none" xmlns="http://www.w3.org/2000/svg">
<mask id="path-1-outside-1" maskUnits="userSpaceOnUse" x="0" y="0.432617" width="180" height="69" fill="black">
<rect fill="white" y="0.432617" width="180" height="69"/>
<path fill-rule="evenodd" clip-rule="evenodd" d="M25 1.43262C11.7452 1.43262 1 12.1778 1 25.4326C1 38.6875 11.7452 49.4326 25 49.4326H153C166.255 49.4326 177 38.6875 177 25.4326C177 12.1778 166.255 1.43262 153 1.43262H25Z"/>
<path d="M152.939 1.92167C152.939 1.92167 176.863 1.50161 177.989 23.7468C179.115 45.992 177.989 67.1304 177.989 67.1304C177.989 67.1304 154.618 50.6091 145.384 49.7697C136.151 48.9303 152.939 1.92167 152.939 1.92167Z"/>
</mask>
<path d="M152.939 1.92167L152.922 0.92182L152.23 0.933962L151.997 1.58533L152.939 1.92167ZM177.989 23.7468L178.988 23.6963L177.989 23.7468ZM177.989 67.1304L177.412 67.9469L178.891 68.9928L178.988 67.1836L177.989 67.1304ZM145.384 49.7697L145.475 48.7738L145.384 49.7697ZM25 0.432617C11.1929 0.432617 0 11.6255 0 25.4326H2C2 12.7301 12.2975 2.43262 25 2.43262V0.432617ZM0 25.4326C0 39.2397 11.1929 50.4326 25 50.4326V48.4326C12.2975 48.4326 2 38.1352 2 25.4326H0ZM25 50.4326H153V48.4326H25V50.4326ZM153 50.4326C166.807 50.4326 178 39.2397 178 25.4326H176C176 38.1352 165.703 48.4326 153 48.4326V50.4326ZM178 25.4326C178 11.6255 166.807 0.432617 153 0.432617V2.43262C165.703 2.43262 176 12.7301 176 25.4326H178ZM153 0.432617H25V2.43262H153V0.432617ZM152.939 1.92167C152.957 2.92151 152.956 2.92152 152.956 2.92152C152.956 2.92152 152.956 2.92153 152.956 2.92152C152.956 2.92152 152.957 2.92151 152.957 2.9215C152.959 2.92148 152.962 2.92144 152.967 2.92139C152.976 2.9213 152.99 2.92119 153.01 2.92114C153.051 2.92103 153.112 2.92119 153.195 2.92229C153.359 2.9245 153.605 2.93051 153.921 2.94588C154.552 2.97664 155.462 3.04479 156.56 3.19445C158.76 3.49439 161.69 4.11845 164.641 5.40859C167.591 6.69789 170.537 8.64045 172.811 11.5657C175.077 14.4815 176.718 18.4262 176.99 23.7974L178.988 23.6963C178.697 17.9448 176.925 13.6001 174.39 10.3382C171.861 7.08574 168.614 4.96233 165.442 3.57599C162.272 2.19049 159.151 1.52924 156.83 1.21278C155.667 1.05423 154.699 0.981412 154.018 0.948248C153.677 0.931658 153.408 0.924971 153.222 0.922469C153.128 0.921219 153.056 0.921014 153.005 0.921143C152.98 0.921208 152.96 0.921356 152.946 0.921498C152.939 0.921569 152.934 0.921639 152.93 0.921696C152.928 0.921725 152.926 0.921751 152.925 0.921772C152.924 0.921782 152.923 0.921794 152.923 0.9218C152.922 0.921811 152.922 0.92182 152.939 1.92167ZM176.99 23.7974C177.552 34.8898 177.552 45.7115 177.411 53.7631C177.341 57.788 177.236 61.1186 177.148 63.4422C177.104 64.6039 177.065 65.5138 177.036 66.1327C177.022 66.4421 177.01 66.6788 177.003 66.8379C176.999 66.9174 176.996 66.9775 176.993 67.0176C176.992 67.0376 176.992 67.0527 176.991 67.0626C176.991 67.0676 176.991 67.0713 176.991 67.0737C176.99 67.075 176.99 67.0759 176.99 67.0764C176.99 67.0767 176.99 67.0769 176.99 67.077C176.99 67.0772 176.99 67.0772 177.989 67.1304C178.988 67.1836 178.988 67.1834 178.988 67.1832C178.988 67.183 178.988 67.1827 178.988 67.1824C178.988 67.1817 178.988 67.1806 178.988 67.1793C178.988 67.1766 178.988 67.1726 178.988 67.1673C178.989 67.1568 178.99 67.1411 178.991 67.1205C178.993 67.0793 178.996 67.018 179 66.9372C179.008 66.7758 179.02 66.5366 179.034 66.2246C179.063 65.6006 179.102 64.6852 179.147 63.5177C179.235 61.1826 179.341 57.8383 179.411 53.798C179.552 45.7192 179.552 34.8491 178.988 23.6963L176.99 23.7974ZM177.989 67.1304C178.566 66.3138 178.566 66.3137 178.566 66.3135C178.566 66.3134 178.565 66.3131 178.565 66.3129C178.564 66.3123 178.563 66.3115 178.561 66.3104C178.558 66.3083 178.554 66.3052 178.548 66.3011C178.537 66.2929 178.519 66.2808 178.497 66.2649C178.452 66.2331 178.385 66.1861 178.297 66.125C178.122 66.0027 177.865 65.8237 177.535 65.5958C176.874 65.14 175.921 64.4886 174.749 63.7046C172.405 62.1371 169.182 60.037 165.667 57.9093C162.155 55.7833 158.337 53.6209 154.805 51.9341C151.308 50.2632 147.976 49.0011 145.475 48.7738L145.294 50.7656C147.41 50.9579 150.462 52.0758 153.943 53.7387C157.391 55.3858 161.147 57.5111 164.632 59.6203C168.113 61.7278 171.31 63.8106 173.637 65.367C174.8 66.145 175.745 66.7909 176.399 67.2419C176.726 67.4674 176.98 67.6441 177.151 67.7643C177.237 67.8243 177.303 67.8702 177.347 67.901C177.368 67.9164 177.385 67.928 177.396 67.9357C177.401 67.9396 177.405 67.9424 177.408 67.9443C177.409 67.9452 177.41 67.9459 177.411 67.9464C177.411 67.9466 177.411 67.9467 177.412 67.9468C177.412 67.9469 177.412 67.9469 177.989 67.1304ZM145.475 48.7738C144.889 48.7205 144.376 48.343 144.013 47.1758C143.643 45.9857 143.532 44.2265 143.667 42C143.937 37.5743 145.149 31.6956 146.668 25.7795C148.182 19.8782 149.985 13.9971 151.412 9.58762C152.124 7.38385 152.742 5.54984 153.182 4.26737C153.402 3.62618 153.577 3.12297 153.697 2.78047C153.757 2.60923 153.803 2.47817 153.834 2.39014C153.85 2.34613 153.861 2.31287 153.869 2.29073C153.873 2.27966 153.876 2.27137 153.878 2.2659C153.879 2.26316 153.88 2.26113 153.88 2.25981C153.881 2.25915 153.881 2.2587 153.881 2.25837C153.881 2.2581 153.881 2.258 152.939 1.92167C151.997 1.58533 151.997 1.58559 151.997 1.58604C151.997 1.58642 151.997 1.58704 151.997 1.58781C151.996 1.58935 151.995 1.5916 151.994 1.59456C151.992 1.60048 151.989 1.60922 151.985 1.62075C151.977 1.64381 151.964 1.67799 151.949 1.72294C151.917 1.81286 151.87 1.94587 151.809 2.11913C151.688 2.46564 151.511 2.9732 151.29 3.61904C150.847 4.91063 150.226 6.75572 149.509 8.97213C148.076 13.403 146.259 19.3265 144.73 25.2823C143.206 31.2233 141.953 37.2541 141.671 41.8785C141.531 44.1772 141.624 46.2282 142.103 47.7696C142.589 49.3339 143.571 50.609 145.294 50.7656L145.475 48.7738Z" fill="#323131" mask="url(#path-1-outside-1)"/>
</svg>
