<svg width="931" height="364" viewBox="0 0 931 364" fill="none" xmlns="http://www.w3.org/2000/svg">
<path d="M45.6782 29.3083L45.6787 29.3079C68.631 10.1144 98.0445 0.5 133.962 0.5C175.722 0.5 210.881 13.1792 239.474 38.5233L204.881 105.42C195.143 97.0308 183.569 90.0303 170.165 84.4151C156.529 78.7029 143.197 75.8412 130.171 75.8412C118.121 75.8412 108.993 78.0599 102.867 82.5772C96.7412 87.0942 93.661 93.0896 93.661 100.524C93.661 107.985 97.3969 114.754 104.74 120.824L104.74 120.824L104.748 120.831C112.378 126.876 121.745 131.957 132.84 136.081L132.84 136.081L132.852 136.085C143.884 139.871 155.868 144.92 168.805 151.235L168.814 151.239C181.744 157.236 193.726 163.862 204.759 171.119L204.768 171.124C215.744 178.028 224.849 187.92 232.079 200.818L232.083 200.824L232.086 200.831C239.615 213.387 243.387 227.995 243.387 244.671C243.387 274.567 232.702 299.566 211.325 319.7L211.322 319.703C190.275 339.821 161.036 349.911 123.538 349.911C100.857 349.911 78.648 345.814 56.9082 337.615C35.626 329.471 17.1476 317.597 1.46796 301.987L44.5021 239.728C55.1948 249.09 67.8883 257.21 82.5773 264.091C97.4782 271.071 111.923 274.57 125.907 274.57C137.017 274.57 145.664 272.348 151.784 267.838C158.215 263.331 161.469 257.497 161.469 250.361C161.469 242.894 157.569 236.127 149.917 230.061C142.599 223.695 133.386 218.454 122.29 214.33C111.254 210.228 99.2673 205.019 86.3293 198.704C73.3949 192.073 61.4088 185.129 50.3708 177.87C39.3868 170.646 30.1197 160.748 22.5737 148.164C15.3578 135.289 11.7433 120.52 11.7433 103.843C11.7433 73.0043 23.0549 48.1752 45.6782 29.3083ZM388.966 274.095H524.451V344.221H306.548V6.19002H517.818V76.3154H388.966H388.466V76.8154V138.457V138.957H388.966H491.758V209.083H388.966H388.466V209.583V273.595V274.095H388.966ZM613.207 50.1429L613.209 50.1412C646.272 17.0534 688.628 0.5 740.312 0.5C791.999 0.5 834.352 17.0534 867.415 50.1412L867.416 50.1429C900.483 82.9191 917.019 123.883 917.019 173.072C917.019 223.528 900.48 265.601 867.411 299.325C834.348 333.044 791.996 349.911 740.312 349.911C688.63 349.911 646.276 333.044 613.212 299.325C580.144 265.601 563.605 223.528 563.605 173.072C563.605 123.883 580.141 82.9191 613.207 50.1429ZM674.077 245.951L674.08 245.954C691.552 265.345 713.64 275.044 740.312 275.044C766.983 275.044 788.916 265.345 806.072 245.952C823.539 226.567 832.258 202.261 832.258 173.072C832.258 145.142 823.535 121.939 806.064 103.502C788.908 84.7444 766.977 75.367 740.312 75.367C713.646 75.367 691.56 84.7453 674.086 103.502L674.452 103.843L674.085 103.502C656.932 121.94 648.365 145.143 648.365 173.072C648.365 202.259 656.928 226.565 674.077 245.951Z" stroke="#FFFBFB" stroke-opacity="0.14"/>
<path d="M59.0605 42.6906L59.061 42.6902C82.0133 23.4967 111.427 13.8823 147.344 13.8823C189.104 13.8823 224.264 26.5616 252.856 51.9056L218.264 118.802C208.526 110.413 196.951 103.413 183.547 97.7974C169.912 92.0852 156.579 89.2235 143.553 89.2235C131.503 89.2235 122.375 91.4422 116.249 95.9595C110.124 100.477 107.043 106.472 107.043 113.906C107.043 121.368 110.779 128.136 118.122 134.207L118.122 134.207L118.131 134.213C125.761 140.258 135.128 145.34 146.222 149.463L146.222 149.463L146.234 149.468C157.266 153.253 169.251 158.302 182.187 164.617L182.196 164.622C195.126 170.618 207.108 177.245 218.141 184.501L218.15 184.506C229.126 191.41 238.232 201.302 245.461 214.2L245.465 214.207L245.469 214.213C252.997 226.769 256.769 241.377 256.769 258.053C256.769 287.949 246.084 312.948 224.707 333.082L224.704 333.085C203.658 353.203 174.419 363.293 136.92 363.293C114.239 363.293 92.0303 359.196 70.2905 350.998C49.0083 342.853 30.5299 330.979 14.8503 315.369L57.8844 253.11C68.5772 262.472 81.2706 270.592 95.9596 277.473C110.861 284.453 125.305 287.952 139.289 287.952C150.399 287.952 159.047 285.73 165.167 281.22C171.598 276.713 174.851 270.879 174.851 263.744C174.851 256.276 170.952 249.509 163.299 243.444C155.981 237.078 146.768 231.836 135.673 227.712C124.637 223.61 112.65 218.402 99.7116 212.086C86.7772 205.456 74.7911 198.511 63.7531 191.252C52.7691 184.028 43.5021 174.131 35.956 161.546C28.7402 148.671 25.1256 133.902 25.1256 117.225C25.1256 86.3867 36.4372 61.5575 59.0605 42.6906ZM402.348 287.478H537.833V357.603H319.93V19.5723H531.2V89.6977H402.348H401.848V90.1977V151.84V152.34H402.348H505.14V222.465H402.348H401.848V222.965V286.978V287.478H402.348ZM626.59 63.5252L626.591 63.5235C659.655 30.4357 702.01 13.8823 753.694 13.8823C805.382 13.8823 847.734 30.4357 880.797 63.5235L880.799 63.5252C913.865 96.3014 930.401 137.265 930.401 186.454C930.401 236.911 913.863 278.983 880.794 312.707C847.73 346.427 805.379 363.293 753.694 363.293C702.013 363.293 659.659 346.427 626.595 312.707C593.526 278.983 576.987 236.911 576.987 186.454C576.987 137.265 593.523 96.3014 626.59 63.5252ZM687.459 259.333L687.462 259.337C704.935 278.727 727.023 288.426 753.694 288.426C780.365 288.426 802.299 278.727 819.454 259.335C836.921 239.949 845.641 215.643 845.641 186.454C845.641 158.524 836.917 135.321 819.447 116.885C802.29 98.1267 780.359 88.7494 753.694 88.7494C727.028 88.7494 704.942 98.1277 687.468 116.885L687.834 117.225L687.468 116.885C670.315 135.322 661.748 158.525 661.748 186.454C661.748 215.642 670.311 239.947 687.459 259.333Z" stroke="#FFFBFB" stroke-opacity="0.14"/>
<path d="M52.3696 35.9997L52.3701 35.9993C75.3224 16.8058 104.736 7.19141 140.653 7.19141C182.413 7.19141 217.573 19.8706 246.165 45.2147L211.573 112.112C201.835 103.722 190.26 96.7217 176.856 91.1065C163.221 85.3943 149.888 82.5326 136.862 82.5326C124.812 82.5326 115.684 84.7513 109.558 89.2686C103.433 93.7856 100.352 99.781 100.352 107.215C100.352 114.677 104.088 121.445 111.432 127.516L111.431 127.516L111.44 127.522C119.07 133.567 128.437 138.649 139.531 142.772L139.531 142.773L139.543 142.777C150.575 146.562 162.56 151.611 175.496 157.927L175.505 157.931C188.435 163.927 200.417 170.554 211.451 177.81L211.459 177.815C222.435 184.72 231.541 194.611 238.77 207.509L238.774 207.516L238.778 207.522C246.306 220.079 250.078 234.686 250.078 251.363C250.078 281.258 239.393 306.258 218.016 326.391L218.013 326.394C196.967 346.512 167.728 356.602 130.229 356.602C107.548 356.602 85.3394 352.505 63.5996 344.307C42.3174 336.162 23.839 324.288 8.15937 308.678L51.1935 246.419C61.8862 255.781 74.5797 263.901 89.2687 270.782C104.17 277.762 118.614 281.261 132.598 281.261C143.708 281.261 152.356 279.039 158.476 274.529C164.907 270.022 168.16 264.188 168.16 257.053C168.16 249.585 164.261 242.818 156.609 236.753C149.291 230.387 140.077 225.145 128.982 221.021C117.946 216.919 105.959 211.711 93.0207 205.395C80.0863 198.765 68.1002 191.82 57.0622 184.561C46.0782 177.337 36.8111 167.44 29.2651 154.855C22.0492 141.98 18.4347 127.211 18.4347 110.534C18.4347 79.6957 29.7463 54.8666 52.3696 35.9997ZM395.657 280.787H531.142V350.912H313.239V12.8814H524.509V83.0068H395.657H395.157V83.5068V145.149V145.649H395.657H498.449V215.774H395.657H395.157V216.274V280.287V280.787H395.657ZM619.899 56.8343L619.901 56.8326C652.964 23.7448 695.319 7.19141 747.003 7.19141C798.691 7.19141 841.043 23.7448 874.106 56.8326L874.108 56.8343C907.174 89.6105 923.711 130.575 923.711 179.763C923.711 230.22 907.172 272.292 874.103 306.016C841.039 339.736 798.688 356.602 747.003 356.602C695.322 356.602 652.968 339.736 619.904 306.016C586.835 272.292 570.296 230.22 570.296 179.763C570.296 130.575 586.832 89.6105 619.899 56.8343ZM680.768 252.642L680.771 252.646C698.244 272.036 720.332 281.735 747.003 281.735C773.674 281.735 795.608 272.036 812.763 252.644C830.23 233.258 838.95 208.952 838.95 179.763C838.95 151.833 830.226 128.63 812.756 110.194C795.599 91.4358 773.668 82.0584 747.003 82.0584C720.337 82.0584 698.251 91.4367 680.777 110.194L681.143 110.534L680.777 110.194C663.624 128.631 655.057 151.834 655.057 179.763C655.057 208.951 663.62 233.256 680.768 252.642Z" stroke="#FFFBFB" stroke-opacity="0.14"/>
</svg>
