<svg width="85" height="24" viewBox="0 0 85 24" fill="none" xmlns="http://www.w3.org/2000/svg">
<path d="M2.83322 9.63146H5.44908V2.48095H8.28231V0.187383H0V2.48095H2.83322V9.63146ZM10.6433 9.63146H18.3035V7.40536H13.2292V5.9063H17.7639V3.84509H13.2292V2.41349H18.2361V0.187383H10.6433V9.63146ZM20.8594 9.63146H23.4228V4.23485L25.8213 7.90754H25.8738L28.2873 4.21236V9.63896H30.8881V0.187383H28.1224L25.8663 3.84509L23.6102 0.187383H20.8444V9.63146H20.8594ZM33.7888 9.63146H36.4047V6.93316H37.7014C40.0474 6.93316 41.7638 5.75639 41.7638 3.53029C41.7638 1.40912 40.2273 0.187383 37.8363 0.187383H33.7888V9.63146ZM36.4047 4.88694V2.391H37.6339C38.5783 2.391 39.148 2.82573 39.148 3.63522C39.148 4.40724 38.5783 4.88694 37.6489 4.88694H36.4047ZM48.8244 9.81885C51.7401 9.81885 53.9212 7.62272 53.9212 4.90942C53.9212 2.17364 51.7626 0 48.8469 0C45.9312 0 43.7501 2.19612 43.7501 4.90942C43.7576 7.6527 45.9162 9.81885 48.8244 9.81885ZM48.8544 7.45783C47.4228 7.45783 46.4409 6.27357 46.4409 4.90942C46.4409 3.52279 47.4003 2.36102 48.8319 2.36102C50.2785 2.36102 51.2604 3.54528 51.2604 4.90942C51.2529 6.30355 50.301 7.45783 48.8544 7.45783ZM60.2173 9.79636C62.5108 9.79636 64.0324 8.64958 64.0324 6.72329C64.0324 4.93191 62.6832 4.22735 60.5096 3.75515C59.1979 3.45533 58.8756 3.26795 58.8756 2.84072C58.8756 2.47345 59.1829 2.20362 59.82 2.20362C60.6595 2.20362 61.6039 2.52592 62.4658 3.13304L63.7775 1.2817C62.7507 0.457213 61.499 0.0299812 59.895 0.0299812C57.6314 0.0299812 56.2373 1.29669 56.2373 3.05059C56.2373 5.02185 57.7888 5.584 59.7975 6.04871C61.0792 6.34852 61.3865 6.55839 61.3865 6.95564C61.3865 7.39037 61.0118 7.63022 60.3072 7.63022C59.2129 7.63022 58.1785 7.24046 57.2416 6.49843L55.7875 8.23734C56.9493 9.27169 58.5383 9.79636 60.2173 9.79636ZM31.6826 23.94H33.9612L35.85 18.5059L37.7538 23.94H40.0324L43.1879 14.4285H40.4821L38.8332 19.8925L37.0118 14.3985H34.7557L32.9344 19.8925L31.2854 14.4285H28.5196L31.6826 23.94ZM45.4515 23.8725H53.1117V21.6464H48.0374V20.1474H52.5721V18.0862H48.0374V16.6546H53.0443V14.4285H45.4515V23.8725ZM55.6601 23.8725H60.5321C62.7881 23.8725 64.1073 22.8907 64.1073 21.2717C64.1073 19.96 63.3803 19.3154 62.2335 18.9406C63.073 18.5734 63.6876 17.9288 63.6876 16.8345C63.6876 16.1599 63.4552 15.6577 63.0805 15.2829C62.5258 14.7283 61.6938 14.436 60.5021 14.436H55.6601V23.8725ZM58.2085 21.7664V20.0275H60.2023C61.0792 20.0275 61.484 20.3647 61.484 20.8744C61.484 21.4516 61.0268 21.7664 60.2323 21.7664H58.2085ZM58.2085 18.1911V16.5346H59.91C60.6895 16.5346 61.0942 16.8345 61.0942 17.3441C61.0942 17.9213 60.652 18.1911 59.85 18.1911H58.2085Z" fill="black"/>
<path d="M72.5844 0.194824C71.4976 0.194824 70.4407 0.34473 69.4438 0.622057V2.57833C70.4332 2.24854 71.4826 2.06865 72.5844 2.06865C78.0784 2.06865 82.5531 6.53585 82.5531 12.0374C82.5531 17.5315 78.0784 22.0062 72.5844 22.0062C71.4826 22.0062 70.4332 21.8263 69.4438 21.4965V23.4528C70.4407 23.7301 71.4976 23.88 72.5844 23.88C79.1278 23.88 84.427 18.5733 84.427 12.0374C84.427 5.494 79.1278 0.194824 72.5844 0.194824Z" fill="black"/>
<path d="M71.9946 12.6999L77.7285 13.9516L78.2382 12.3701L73.4337 11.5906L73.1939 4.77734H71.9946V12.6999Z" fill="black"/>
</svg>
