<svg width="12" height="12" viewBox="0 0 12 12" fill="none" xmlns="http://www.w3.org/2000/svg">
<rect width="12" height="12" fill="black"/>
<path d="M5.53333 3.73333C5.6 3.73333 5.6 3.73333 5.53333 3.73333C5.6 3.46667 5.66667 3.33333 5.66667 3.13333V3C5.73333 2.66667 5.73333 2.4 5.66667 2.33333C5.66667 2.33333 5.66667 2.33333 5.66667 2.26667L5.6 2.2C5.6 2.2 5.6 2.26667 5.53333 2.26667C5.4 2.66667 5.4 3.13333 5.53333 3.73333ZM3.53333 8.33333C3.4 8.4 3.26667 8.46667 3.2 8.53333C2.73333 8.93333 2.4 9.39997 2.33333 9.6C2.73333 9.53333 3.13333 9.13333 3.53333 8.33333C3.6 8.33333 3.6 8.33333 3.53333 8.33333C3.6 8.33333 3.53333 8.33333 3.53333 8.33333ZM9.66667 7.33333C9.6 7.26667 9.33333 7.06667 8.4 7.06667C8.33333 7.06667 8.33333 7.06667 8.26667 7.06667C8.26667 7.06667 8.26667 7.06667 8.26667 7.13333C8.73333 7.33333 9.2 7.46667 9.53333 7.46667C9.6 7.46667 9.6 7.46667 9.66667 7.46667H9.73333C9.73333 7.46667 9.73333 7.46667 9.73333 7.4C9.73333 7.4 9.66667 7.4 9.66667 7.33333ZM10.6667 0H1.33333C0.6 0 0 0.6 0 1.33333V10.6667C0 11.4 0.6 12 1.33333 12H10.6667C11.4 12 12 11.4 12 10.6667V1.33333C12 0.6 11.4 0 10.6667 0ZM9.93333 7.86667C9.79997 7.93333 9.6 8 9.33333 8C8.8 8 8 7.86667 7.33333 7.53333C6.2 7.66667 5.33333 7.79997 4.66667 8.06664C4.6 8.06664 4.6 8.06664 4.53333 8.13331C3.73333 9.53333 3.06667 10.2 2.53333 10.2C2.4 10.2 2.33333 10.2 2.26667 10.1333L1.93333 9.93333V9.86667C1.86667 9.73331 1.86667 9.66667 1.86667 9.53333C1.93333 9.2 2.33333 8.6 3.13333 8.13331C3.26667 8.06664 3.46667 7.93333 3.73333 7.79997C3.93333 7.46664 4.13333 7.06664 4.4 6.6C4.73333 5.93333 4.93333 5.26667 5.13333 4.66667C4.86667 3.86667 4.73333 3.4 5 2.46667C5.06667 2.2 5.26667 1.93333 5.53333 1.93333H5.66667C5.8 1.93333 5.93333 2 6.06667 2.06667C6.53336 2.53333 6.33333 3.6 6.06667 4.46667C6.06667 4.53333 6.06667 4.53333 6.06667 4.53333C6.33333 5.26667 6.73333 5.86667 7.13333 6.26667C7.33333 6.4 7.46667 6.53333 7.73333 6.66667C8.06667 6.66667 8.33333 6.6 8.6 6.6C9.4 6.6 9.93333 6.73333 10.1333 7.06667C10.2 7.20003 10.2 7.33333 10.2 7.46667C10.1333 7.53333 10.0667 7.73333 9.93333 7.86667ZM5.6 5.26667C5.46667 5.73333 5.2 6.26667 4.93333 6.86667C4.8 7.13331 4.66667 7.33333 4.53333 7.6H4.6H4.66667C5.53333 7.26667 6.33333 7.06667 6.86667 7C6.73331 6.93333 6.66667 6.86667 6.6 6.8C6.26667 6.4 5.86667 5.86667 5.6 5.26667Z" fill="white"/>
</svg>
