<svg width="24" height="25" viewBox="0 0 24 25" fill="none" xmlns="http://www.w3.org/2000/svg">
<path d="M24 12.5439C24 19.1714 18.6274 24.5439 12 24.5439C5.37258 24.5439 0 19.1714 0 12.5439C0 5.91653 5.37258 0.543945 12 0.543945C18.6274 0.543945 24 5.91653 24 12.5439Z" fill="white" fill-opacity="0.2"/>
<path d="M15.1713 14.5931C14.6075 14.5931 14.0621 14.5014 13.5533 14.3364C13.3929 14.2814 13.2142 14.3227 13.0904 14.4464L12.3708 15.3494C11.0738 14.7306 9.85917 13.5619 9.21292 12.2189L10.1067 11.4581C10.2304 11.3298 10.2671 11.151 10.2167 10.9906C10.0471 10.4819 9.96 9.93645 9.96 9.3727C9.96 9.1252 9.75375 8.91895 9.50625 8.91895H7.92042C7.67292 8.91895 7.375 9.02895 7.375 9.3727C7.375 13.6306 10.9179 17.1689 15.1713 17.1689C15.4967 17.1689 15.625 16.8802 15.625 16.6281V15.0469C15.625 14.7994 15.4188 14.5931 15.1713 14.5931Z" fill="white"/>
</svg>
