<svg height="20" viewBox="0 0 512 512" width="512" xmlns="http://www.w3.org/2000/svg"><style>.st0{display:inline}.st1{fill:none;stroke:#000;stroke-width:16;stroke-linecap:round;stroke-linejoin:round;stroke-miterlimit:10}.st2{display:none}</style><g class="st2 st0" id="cross"><path class="st1" d="M112.5 112.5L401 401M401 112.5L112.5 401"/></g><path d="M268.064 256.75l138.593-138.593a8 8 0 1 0-11.314-11.313L256.75 245.436 118.157 106.843a8 8 0 0 0-11.313 0 7.998 7.998 0 0 0 0 11.313L245.436 256.75 106.843 395.343a7.999 7.999 0 0 0 0 11.314c1.562 1.562 3.609 2.343 5.657 2.343s4.095-.781 5.657-2.343L256.75 268.064l138.593 138.593c1.563 1.562 3.609 2.343 5.657 2.343s4.095-.781 5.657-2.343a8 8 0 0 0 0-11.314L268.064 256.75z" id="cross_copy"/></svg>