<svg width="430" height="257" viewBox="0 0 430 257" fill="none" xmlns="http://www.w3.org/2000/svg"><mask id="a" fill="#fff"><path fill-rule="evenodd" clip-rule="evenodd" d="M2.349 246.983A9.957 9.957 0 0 1 0 240.544v-230c0-5.523 4.477-10 10-10h410c5.523 0 10 4.477 10 10v230c0 5.523-4.477 10-10 10H10.005C3.121 252.611 0 256.044 0 256.044l2.349-9.061z"/></mask><path d="M2.349 246.983l.968.251.13-.5-.333-.395-.765.644zm7.656 3.561v-1h-.147l-.14.042.287.958zM0 256.044l-.968-.251 1.708.924-.74-.673zm-1-15.5c0 2.697.972 5.17 2.584 7.084l1.53-1.289A8.96 8.96 0 0 1 1 240.544h-2zm0-230v230h2v-230h-2zm11-11c-6.075 0-11 4.925-11 11h2a9 9 0 0 1 9-9v-2zm410 0H10v2h410v-2zm11 11c0-6.075-4.925-11-11-11v2a9 9 0 0 1 9 9h2zm0 230v-230h-2v230h2zm-11 11c6.075 0 11-4.925 11-11h-2a9 9 0 0 1-9 9v2zm-409.995 0H420v-2H10.005v2zM0 256.044l.74.673-.001.001-.001.001.003-.003.018-.02.092-.093a9.28 9.28 0 0 1 .407-.379c.37-.328.943-.795 1.726-1.328 1.565-1.065 3.974-2.393 7.309-3.394l-.575-1.916c-3.55 1.066-6.143 2.488-7.86 3.656a19.336 19.336 0 0 0-1.925 1.484 11.605 11.605 0 0 0-.666.638l-.004.004-.002.002v.001l.739.673zm1.381-9.312l-2.349 9.061 1.936.502 2.349-9.061-1.936-.502z" fill="#000" fill-opacity=".4" mask="url(#a)"/></svg>