<svg width="417" height="164" viewBox="0 0 417 164" fill="none" xmlns="http://www.w3.org/2000/svg"><path d="M20.289 13.696C30.521 5.138 43.642.843 59.695.843c18.584 0 34.227 5.617 46.962 16.836l-15.25 29.493c-4.336-3.682-9.462-6.76-15.374-9.236-6.142-2.574-12.156-3.866-18.037-3.866-5.429 0-9.59.998-12.406 3.074l.297.402-.297-.402c-2.815 2.076-4.24 4.845-4.24 8.268 0 3.451 1.732 6.557 5.068 9.315l.008.006c3.448 2.732 7.674 5.023 12.67 6.88l.012.004c4.933 1.693 10.296 3.952 16.088 6.78l.009.004c5.786 2.683 11.146 5.647 16.08 8.893l.009.005c4.877 3.068 8.929 7.467 12.151 13.215l.004.006.003.007c3.347 5.58 5.028 12.08 5.028 19.513 0 13.33-4.761 24.465-14.289 33.439l-.002.002c-9.372 8.958-22.405 13.468-39.168 13.468-10.134 0-20.058-1.831-29.774-5.495-9.433-3.61-17.63-8.859-24.597-15.749l18.988-27.47c4.767 4.131 10.402 7.717 16.902 10.762 6.71 3.143 13.227 4.724 19.544 4.724 5.011 0 8.954-1.001 11.763-3.07 2.946-2.066 4.457-4.761 4.457-8.059 0-3.457-1.809-6.562-5.28-9.314-3.31-2.879-7.47-5.242-12.466-7.1-4.937-1.835-10.302-4.166-16.095-6.993-5.79-2.969-11.155-6.077-16.094-9.325-4.885-3.213-9.012-7.618-12.376-13.227-3.208-5.725-4.818-12.298-4.818-19.733 0-13.748 5.038-24.801 15.115-33.205zM174.024 123.51h60.469v30.888h-97.145V3.395h94.171v30.889h-57.995V62.92h46.311V93.81h-46.311v29.7h.5zM274.757 23.021l.002-.002C289.525 8.242 308.442.844 331.55.844c23.109 0 42.024 7.398 56.791 22.175l.001.002c14.77 14.64 22.158 32.934 22.158 54.919 0 22.555-7.391 41.347-22.163 56.412-14.767 15.06-33.681 22.598-56.787 22.598-23.105 0-42.021-7.538-56.788-22.598-14.772-15.065-22.163-33.857-22.163-56.412 0-21.985 7.388-40.279 22.158-54.919zm26.89 87.777l.003.003c7.887 8.754 17.865 13.134 29.9 13.134 12.033 0 21.943-4.38 29.689-13.135 7.882-8.749 11.81-19.714 11.81-32.86 0-12.584-3.932-23.057-11.818-31.38-7.747-8.468-17.654-12.702-29.681-12.702-12.029 0-22.006 4.235-29.895 12.703-7.743 8.323-11.605 18.796-11.605 31.379 0 13.144 3.858 24.109 11.597 32.858z" stroke="#000"/><path d="M26.289 19.696C36.522 11.138 49.642 6.843 65.695 6.843c18.584 0 34.227 5.616 46.962 16.836l-15.25 29.493c-4.336-3.682-9.462-6.76-15.374-9.236-6.142-2.574-12.156-3.866-18.037-3.866-5.429 0-9.59.998-12.406 3.074l.297.402-.297-.402c-2.815 2.076-4.24 4.845-4.24 8.268 0 3.451 1.732 6.557 5.068 9.315l.008.006c3.448 2.732 7.674 5.023 12.67 6.88l.012.004c4.933 1.693 10.296 3.952 16.088 6.78l.009.004c5.786 2.683 11.146 5.647 16.08 8.893l.009.005c4.877 3.068 8.929 7.467 12.151 13.215l.004.006.003.007c3.347 5.581 5.028 12.08 5.028 19.513 0 13.33-4.761 24.465-14.289 33.439l-.002.002c-9.372 8.958-22.405 13.468-39.168 13.468-10.134 0-20.058-1.831-29.774-5.495-9.433-3.61-17.63-8.859-24.597-15.749l18.988-27.47c4.767 4.131 10.402 7.717 16.902 10.762 6.71 3.143 13.227 4.724 19.544 4.724 5.011 0 8.954-1.001 11.763-3.07 2.946-2.066 4.457-4.761 4.457-8.059 0-3.457-1.809-6.562-5.28-9.314-3.31-2.879-7.47-5.242-12.466-7.1-4.937-1.835-10.302-4.166-16.095-6.993-5.79-2.969-11.155-6.077-16.094-9.325-4.885-3.213-9.012-7.618-12.376-13.227-3.208-5.725-4.818-12.298-4.818-19.733 0-13.748 5.038-24.801 15.115-33.205zM180.024 129.51h60.469v30.888h-97.145V9.395h94.171v30.889h-57.995V68.92h46.311V99.81h-46.311v29.7h.5zM280.757 29.021l.002-.002c14.766-14.777 33.683-22.175 56.791-22.175 23.109 0 42.024 7.398 56.791 22.175l.001.002c14.77 14.64 22.158 32.934 22.158 54.919 0 22.555-7.391 41.347-22.163 56.412-14.767 15.06-33.681 22.598-56.787 22.598-23.105 0-42.021-7.538-56.788-22.598-14.772-15.065-22.163-33.857-22.163-56.412 0-21.985 7.388-40.279 22.158-54.919zm26.89 87.777l.003.003c7.887 8.754 17.865 13.134 29.9 13.134 12.033 0 21.943-4.38 29.689-13.135 7.882-8.749 11.81-19.714 11.81-32.86 0-12.584-3.932-23.057-11.818-31.38-7.747-8.468-17.654-12.702-29.681-12.702-12.029 0-22.006 4.235-29.895 12.703-7.743 8.323-11.605 18.796-11.605 31.379 0 13.144 3.858 24.109 11.597 32.858z" stroke="#000"/><path d="M23.289 16.696C33.522 8.138 46.642 3.843 62.695 3.843c18.584 0 34.227 5.617 46.962 16.836l-15.25 29.493c-4.336-3.682-9.462-6.76-15.374-9.236-6.142-2.574-12.156-3.866-18.037-3.866-5.429 0-9.59.998-12.406 3.074l.297.402-.297-.402c-2.815 2.076-4.24 4.845-4.24 8.268 0 3.451 1.732 6.557 5.068 9.315l.008.006c3.448 2.732 7.674 5.023 12.67 6.88l.012.004c4.933 1.693 10.296 3.952 16.088 6.78l.009.004c5.786 2.683 11.146 5.647 16.08 8.893l.009.005c4.877 3.068 8.929 7.467 12.151 13.215l.004.006.003.007c3.347 5.58 5.028 12.08 5.028 19.513 0 13.33-4.761 24.465-14.289 33.439l-.002.002c-9.372 8.958-22.405 13.468-39.168 13.468-10.134 0-20.058-1.831-29.774-5.495-9.433-3.61-17.63-8.859-24.597-15.749l18.988-27.47c4.767 4.131 10.402 7.717 16.902 10.762 6.71 3.143 13.227 4.724 19.544 4.724 5.011 0 8.954-1.001 11.763-3.07 2.946-2.066 4.457-4.761 4.457-8.059 0-3.457-1.809-6.562-5.28-9.314-3.31-2.879-7.47-5.242-12.466-7.1-4.937-1.835-10.302-4.166-16.095-6.993-5.79-2.969-11.155-6.077-16.094-9.325-4.885-3.213-9.012-7.618-12.376-13.227-3.208-5.725-4.818-12.298-4.818-19.733 0-13.748 5.038-24.801 15.115-33.205zM177.024 126.51h60.469v30.888h-97.145V6.395h94.171v30.889h-57.995V65.92h46.311V96.81h-46.311v29.7h.5zM277.757 26.021l.002-.002c14.766-14.777 33.683-22.175 56.791-22.175 23.109 0 42.024 7.398 56.791 22.175l.001.002c14.77 14.64 22.158 32.934 22.158 54.919 0 22.555-7.391 41.347-22.163 56.412-14.767 15.06-33.681 22.598-56.787 22.598-23.105 0-42.021-7.538-56.788-22.598-14.772-15.065-22.163-33.857-22.163-56.412 0-21.985 7.388-40.279 22.158-54.919zm26.89 87.777l.003.003c7.887 8.754 17.865 13.134 29.9 13.134 12.033 0 21.943-4.38 29.689-13.135 7.882-8.749 11.81-19.714 11.81-32.86 0-12.584-3.932-23.057-11.818-31.38-7.747-8.468-17.654-12.702-29.681-12.702-12.029 0-22.006 4.235-29.895 12.703-7.743 8.323-11.605 18.796-11.605 31.379 0 13.144 3.858 24.109 11.597 32.858z" stroke="#000"/></svg>