<svg width="1200" height="131" viewBox="0 0 1200 131" fill="none" xmlns="http://www.w3.org/2000/svg"><path d="M1236.08 32.745l-45.28 51.04-34.45 19.919L1113.62 62l-82.28-19.296-40.179 41.082-84.829-74.072-34.442 23.03-86.105-13.07-81.002-9.96-37.631 9.96L613 1l-73.411 90.255L500.045 62l-40.182 29.255L382.688 62l-53.577 14.939-17.221-14.94-68.883 14.94-27.426-14.94h-43.372L141.5 105.5h-43L51.025 123 0 130l57.5-30.5L85 91.255h87.209l36.993-16.806 33.805 16.806 52.3-14.316 33.804 14.316 53.577-20.54 24.874 13.07 44.009-13.07 48.474 13.07L539.589 62h50.388l77.175 29.255L704.783 62l39.544 12.449 41.458-23.03 22.961 16.183 22.962 16.184 74.624-13.072 38.906 20.541 45.923-20.54h77.809l44.65 20.54 54.85-14.316 31.26-34.235 36.35 41.082" stroke="#636363" stroke-opacity=".3" stroke-linejoin="round" stroke-dasharray="2 2 2 2 2 2"/></svg>