<svg width="1200" height="558" viewBox="0 0 1200 558" fill="none" xmlns="http://www.w3.org/2000/svg"><path d="M-532.654 466.773l73.031-45.417 70.717-15.626 73.442 2.869 73.282-22.421 75.424 10.991 75.352-16.594 70.86 39.546 76.429-44.135 75.191-41.885 73.989 47.713 69.857-52.437 70.421-37.474 84.882 63.08 70.018-27.147 74.151-74.105 72.995 14.345 75.809 30.544 72.215-83.375 75.764 31.692 225.405-62.45 102.58-7.485 80.2 65.195 89.63-58.56 109.72 15.779 88.22-51.719 91.28-12.524 37.1-37.627" stroke="#000" stroke-opacity=".5"/><path d="M-534.654 463.773l73.031-45.417 70.717-15.626 73.442 2.869 73.282-22.421 75.424 10.991 75.352-16.594 70.86 39.546 76.429-44.135 75.191-41.885 73.989 47.713 69.857-52.437 70.421-37.474 84.882 63.08 70.018-27.147 74.151-74.105 72.995 14.345 75.809 30.544 72.215-83.375 75.764 31.692 225.405-62.45 102.58-7.485 80.2 65.195 89.63-58.56 109.72 15.779 88.22-51.719 91.28-12.524 37.1-37.627" stroke="#000"/><path d="M-535.654 460.773l73.031-45.417 70.717-15.626 73.442 2.869 73.282-22.421 75.424 10.991 75.352-16.594 70.86 39.546 76.429-44.135 75.191-41.885 73.989 47.713 69.857-52.437 70.421-37.474 84.882 63.08 70.018-27.147 74.151-74.105 72.995 14.345 75.809 30.544 72.215-83.375 75.764 31.692 225.405-62.45 102.58-7.485 80.2 65.195 89.63-58.56 109.72 15.779 88.22-51.719 91.28-12.524 37.1-37.627" stroke="#000" stroke-width="2"/><circle cx="55.884" cy="371.986" r="8.187" transform="rotate(2.237 55.884 371.986)" fill="#fff" stroke="#000" stroke-width="2"/><circle cx="131.029" cy="331.247" r="8.187" transform="rotate(2.237 131.029 331.247)" fill="#fff" stroke="#000" stroke-width="2"/><circle cx="205.064" cy="377.813" r="8.187" transform="rotate(2.237 205.064 377.813)" fill="#fff" stroke="#000" stroke-width="2"/><circle cx="276.068" cy="325.422" r="8.187" transform="rotate(2.237 276.068 325.422)" fill="#fff" stroke="#000" stroke-width="2"/><circle cx="346.445" cy="289.095" r="8.187" transform="rotate(2.237 346.445 289.095)" fill="#fff" stroke="#000" stroke-width="2"/><circle cx="431.327" cy="352.175" r="8.187" transform="rotate(2.237 431.327 352.175)" fill="#fff" stroke="#000" stroke-width="2"/><circle cx="501.434" cy="322.733" r="8.187" transform="rotate(2.237 501.434 322.733)" fill="#fff" stroke="#000" stroke-width="2"/><circle cx="573.245" cy="249.685" r="8.187" transform="rotate(2.237 573.245 249.685)" fill="#fff" stroke="#000" stroke-width="2"/><circle cx="646.241" cy="264.03" r="8.187" transform="rotate(2.237 646.241 264.03)" fill="#fff" stroke="#000" stroke-width="2"/><circle cx="723.196" cy="294.621" r="8.187" transform="rotate(2.237 723.196 294.621)" fill="#fff" stroke="#000" stroke-width="2"/><circle cx="795.367" cy="212.392" r="8.187" transform="rotate(2.237 795.367 212.392)" fill="#fff" stroke="#000" stroke-width="2"/><circle cx="870.028" cy="242.892" r="8.187" transform="rotate(2.237 870.028 242.892)" fill="#fff" stroke="#000" stroke-width="2"/><circle cx="1095.43" cy="180.442" r="8.187" transform="rotate(2.237 1095.43 180.442)" fill="#fff" stroke="#000" stroke-width="2"/><circle cx="1196.86" cy="172.912" r="8.187" transform="rotate(2.237 1196.86 172.912)" fill="#fff" stroke="#000" stroke-width="2"/><circle cx="52.884" cy="369.986" r="8.187" transform="rotate(2.237 52.884 369.986)" fill="#fff" stroke="#000" stroke-width="2"/><circle cx="128.029" cy="329.247" r="8.187" transform="rotate(2.237 128.029 329.247)" fill="#fff" stroke="#000" stroke-width="2"/><circle cx="202.064" cy="375.813" r="8.187" transform="rotate(2.237 202.064 375.813)" fill="#fff" stroke="#000" stroke-width="2"/><circle cx="273.068" cy="323.422" r="8.187" transform="rotate(2.237 273.068 323.422)" fill="#fff" stroke="#000" stroke-width="2"/><circle cx="343.445" cy="287.095" r="8.187" transform="rotate(2.237 343.445 287.095)" fill="#fff" stroke="#000" stroke-width="2"/><circle cx="428.327" cy="350.175" r="8.187" transform="rotate(2.237 428.327 350.175)" fill="#fff" stroke="#000" stroke-width="2"/><circle cx="498.434" cy="320.733" r="8.187" transform="rotate(2.237 498.434 320.733)" fill="#fff" stroke="#000" stroke-width="2"/><circle cx="570.245" cy="247.685" r="8.187" transform="rotate(2.237 570.245 247.685)" fill="#fff" stroke="#000" stroke-width="2"/><circle cx="643.241" cy="262.03" r="8.187" transform="rotate(2.237 643.241 262.03)" fill="#fff" stroke="#000" stroke-width="2"/><circle cx="720.196" cy="292.621" r="8.187" transform="rotate(2.237 720.196 292.621)" fill="#fff" stroke="#000" stroke-width="2"/><circle cx="792.367" cy="210.392" r="8.187" transform="rotate(2.237 792.367 210.392)" fill="#fff" stroke="#000" stroke-width="2"/><circle cx="867.028" cy="240.892" r="8.187" transform="rotate(2.237 867.028 240.892)" fill="#fff" stroke="#000" stroke-width="2"/><circle cx="1092.43" cy="178.442" r="8.187" transform="rotate(2.237 1092.43 178.442)" fill="#fff" stroke="#000" stroke-width="2"/><circle cx="1193.86" cy="170.912" r="8.187" transform="rotate(2.237 1193.86 170.912)" fill="#fff" stroke="#000" stroke-width="2"/><circle cx="49.884" cy="366.986" r="8.187" transform="rotate(2.237 49.884 366.986)" fill="#fff" stroke="#000" stroke-width="2"/><circle cx="125.029" cy="326.247" r="8.187" transform="rotate(2.237 125.029 326.247)" fill="#fff" stroke="#000" stroke-width="2"/><circle cx="199.064" cy="372.813" r="8.187" transform="rotate(2.237 199.064 372.813)" fill="#fff" stroke="#000" stroke-width="2"/><circle cx="270.068" cy="320.422" r="8.187" transform="rotate(2.237 270.068 320.422)" fill="#fff" stroke="#000" stroke-width="2"/><circle cx="340.445" cy="284.095" r="8.187" transform="rotate(2.237 340.445 284.095)" fill="#fff" stroke="#000" stroke-width="2"/><circle cx="425.327" cy="347.175" r="8.187" transform="rotate(2.237 425.327 347.175)" fill="#fff" stroke="#000" stroke-width="2"/><circle cx="495.434" cy="317.733" r="8.187" transform="rotate(2.237 495.434 317.733)" fill="#fff" stroke="#000" stroke-width="2"/><circle cx="567.245" cy="244.685" r="8.187" transform="rotate(2.237 567.245 244.685)" fill="#fff" stroke="#000" stroke-width="2"/><circle cx="640.241" cy="259.03" r="8.187" transform="rotate(2.237 640.241 259.03)" fill="#fff" stroke="#000" stroke-width="2"/><circle cx="717.196" cy="289.621" r="8.187" transform="rotate(2.237 717.196 289.621)" fill="#fff" stroke="#000" stroke-width="2"/><circle cx="789.367" cy="207.392" r="8.187" transform="rotate(2.237 789.367 207.392)" fill="#fff" stroke="#000" stroke-width="2"/><circle cx="864.028" cy="237.892" r="8.187" transform="rotate(2.237 864.028 237.892)" fill="#fff" stroke="#000" stroke-width="2"/><circle cx="1089.43" cy="175.442" r="8.187" transform="rotate(2.237 1089.43 175.442)" fill="#fff" stroke="#000" stroke-width="2"/><circle cx="1190.86" cy="167.912" r="8.187" transform="rotate(2.237 1190.86 167.912)" fill="#fff" stroke="#000" stroke-width="2"/></svg>