<svg width="180" height="69" viewBox="0 0 180 69" fill="none" xmlns="http://www.w3.org/2000/svg"><mask id="a" maskUnits="userSpaceOnUse" x="0" y=".433" width="180" height="69" fill="#000"><path fill="#fff" d="M0 .433h180v69H0z"/><path fill-rule="evenodd" clip-rule="evenodd" d="M25 1.433c-13.255 0-24 10.745-24 24s10.745 24 24 24h128c13.255 0 24-10.745 24-24s-10.745-24-24-24H25z"/><path d="M152.939 1.922s23.924-.42 25.05 21.825c1.126 22.245 0 43.383 0 43.383s-23.371-16.52-32.605-17.36c-9.233-.84 7.555-47.848 7.555-47.848z"/></mask><path d="M152.939 1.922l-.017-1-.692.012-.233.651.942.337zm25.05 21.825l.999-.05-.999.05zm0 43.383l-.577.817 1.479 1.046.097-1.81-.999-.053zm-32.605-17.36l.091-.996-.091.996zM25 .433c-13.807 0-25 11.193-25 25h2c0-12.703 10.297-23 23-23v-2zm-25 25c0 13.807 11.193 25 25 25v-2c-12.703 0-23-10.298-23-23H0zm25 25h128v-2H25v2zm128 0c13.807 0 25-11.193 25-25h-2c0 12.702-10.297 23-23 23v2zm25-25c0-13.807-11.193-25-25-25v2c12.703 0 23 10.297 23 23h2zm-25-25H25v2h128v-2zm-.061 1.489l.017 1h.011a5.711 5.711 0 0 1 .228 0c.164.002.41.009.726.024.631.03 1.541.099 2.639.248 2.2.3 5.13.924 8.081 2.215 2.95 1.289 5.896 3.231 8.17 6.157 2.266 2.915 3.907 6.86 4.179 12.231l1.998-.1c-.291-5.752-2.063-10.097-4.598-13.359-2.529-3.252-5.776-5.376-8.948-6.762-3.17-1.386-6.291-2.047-8.612-2.363a32.814 32.814 0 0 0-2.812-.265 22.83 22.83 0 0 0-1.088-.026h-.007l.016 1zm24.051 21.875c.562 11.093.562 21.915.421 29.966-.07 4.025-.175 7.356-.263 9.68a311.217 311.217 0 0 1-.112 2.69l-.033.705-.01.18-.002.045v.01l-.001.003v.001l.999.053.999.053v-.004-.012l.003-.046.009-.184.034-.712c.029-.624.068-1.54.113-2.707.088-2.335.194-5.68.264-9.72.141-8.079.141-18.949-.423-30.102l-1.998.101zm.999 43.333l.577-.816-.001-.001-.004-.003-.013-.009-.051-.036a240.092 240.092 0 0 0-3.748-2.56 243.452 243.452 0 0 0-9.082-5.796c-3.512-2.126-7.33-4.288-10.862-5.975-3.497-1.67-6.829-2.933-9.33-3.16l-.181 1.992c2.116.192 5.168 1.31 8.649 2.973 3.448 1.647 7.204 3.772 10.689 5.881a241.555 241.555 0 0 1 12.519 8.144l.196.137.049.035a.155.155 0 0 0 .016.01l.577-.816zm-32.514-18.356c-.586-.053-1.099-.431-1.462-1.598-.37-1.19-.481-2.95-.346-5.176.27-4.426 1.482-10.304 3.001-16.22 1.514-5.902 3.317-11.783 4.744-16.192a314.768 314.768 0 0 1 2.422-7.198l.035-.1.009-.024.002-.006.001-.002-.942-.336-.942-.336v.002a3.648 3.648 0 0 1-.012.033l-.036.102a135.423 135.423 0 0 0-.659 1.896 326.41 326.41 0 0 0-1.781 5.353c-1.433 4.431-3.25 10.354-4.779 16.31-1.524 5.941-2.777 11.972-3.059 16.597-.14 2.298-.047 4.35.432 5.89.486 1.565 1.468 2.84 3.191 2.997l.181-1.992z" fill="#323131" mask="url(#a)"/></svg>