<svg width="931" height="364" viewBox="0 0 931 364" fill="none" xmlns="http://www.w3.org/2000/svg"><path d="M45.678 29.308C68.632 10.114 98.046.5 133.963.5c41.76 0 76.919 12.68 105.512 38.023l-34.593 66.897c-9.738-8.39-21.312-15.39-34.716-21.005-13.636-5.712-26.968-8.574-39.994-8.574-12.05 0-21.178 2.219-27.304 6.736-6.126 4.517-9.206 10.513-9.206 17.947 0 7.461 3.736 14.23 11.079 20.3l.008.007c7.63 6.045 16.997 11.126 28.092 15.25l.012.004c11.032 3.786 23.016 8.835 35.953 15.15l.009.004c12.93 5.997 24.912 12.623 35.945 19.88l.009.005c10.976 6.904 20.081 16.796 27.311 29.694l.004.006.003.007c7.529 12.556 11.301 27.164 11.301 43.84 0 29.896-10.685 54.895-32.062 75.029l-.003.003c-21.047 20.118-50.286 30.208-87.784 30.208-22.681 0-44.89-4.097-66.63-12.296-21.282-8.144-39.76-20.018-55.44-35.628l43.034-62.259c10.693 9.362 23.386 17.482 38.075 24.363 14.901 6.98 29.346 10.479 43.33 10.479 11.11 0 19.757-2.222 25.877-6.732 6.431-4.507 9.685-10.341 9.685-17.477 0-7.467-3.9-14.234-11.552-20.3-7.318-6.366-16.531-11.607-27.627-15.731-11.036-4.102-23.023-9.311-35.96-15.626-12.935-6.631-24.921-13.575-35.96-20.834-10.983-7.224-20.25-17.122-27.796-29.706-7.216-12.875-10.83-27.644-10.83-44.321 0-30.839 11.31-55.668 33.934-74.535zm343.288 244.787h135.485v70.126H306.548V6.19h211.27v70.125H388.466v62.642h103.292v70.126H388.466v65.012h.5zM613.207 50.143l.002-.002C646.272 17.053 688.628.5 740.312.5c51.687 0 94.04 16.553 127.103 49.641l.001.002c33.067 32.776 49.603 73.74 49.603 122.929 0 50.456-16.539 92.529-49.608 126.253-33.063 33.719-75.415 50.586-127.099 50.586-51.682 0-94.036-16.867-127.1-50.586-33.068-33.724-49.607-75.797-49.607-126.253 0-49.189 16.536-90.153 49.602-122.93zm60.87 195.808l.003.003c17.472 19.391 39.56 29.09 66.232 29.09 26.671 0 48.604-9.699 65.76-29.092 17.467-19.385 26.186-43.691 26.186-72.88 0-27.93-8.723-51.133-26.194-69.57-17.156-18.758-39.087-28.135-65.752-28.135-26.666 0-48.752 9.378-66.226 28.135l.366.341-.367-.341c-17.153 18.438-25.72 41.641-25.72 69.57 0 29.187 8.563 53.493 25.712 72.879z" stroke="#FFFBFB" stroke-opacity=".14"/><path d="M59.06 42.69h.001c22.952-19.193 52.366-28.808 88.283-28.808 41.76 0 76.92 12.68 105.512 38.024l-34.592 66.896c-9.738-8.389-21.313-15.389-34.717-21.005-13.635-5.712-26.968-8.573-39.994-8.573-12.05 0-21.178 2.218-27.304 6.736-6.125 4.517-9.206 10.512-9.206 17.946 0 7.462 3.736 14.23 11.079 20.301l.009.006c7.63 6.045 16.997 11.127 28.091 15.25l.012.005c11.032 3.785 23.017 8.834 35.953 15.149l.009.005c12.93 5.996 24.912 12.623 35.945 19.879l.009.005c10.976 6.904 20.082 16.796 27.311 29.694l.004.007.004.006c7.528 12.556 11.3 27.164 11.3 43.84 0 29.896-10.685 54.895-32.062 75.029l-.003.003c-21.046 20.118-50.285 30.208-87.784 30.208-22.681 0-44.89-4.097-66.63-12.295-21.282-8.145-39.76-20.019-55.44-35.629l43.034-62.259c10.693 9.362 23.387 17.482 38.076 24.363 14.901 6.98 29.345 10.479 43.329 10.479 11.11 0 19.758-2.222 25.878-6.732 6.431-4.507 9.684-10.341 9.684-17.476 0-7.468-3.899-14.235-11.552-20.3-7.318-6.366-16.531-11.608-27.626-15.732-11.036-4.102-23.023-9.31-35.961-15.626-12.935-6.63-24.92-13.575-35.959-20.834-10.984-7.224-20.25-17.121-27.797-29.706-7.216-12.875-10.83-27.644-10.83-44.321 0-30.838 11.311-55.667 33.934-74.534zm343.288 244.788h135.485v70.125H319.93V19.573H531.2v70.125H401.848v62.642H505.14v70.125H401.848v65.013h.5zM626.59 63.525l.001-.002c33.064-33.087 75.419-49.64 127.103-49.64 51.688 0 94.04 16.553 127.103 49.64l.002.002c33.066 32.776 49.602 73.74 49.602 122.929 0 50.457-16.538 92.529-49.607 126.253-33.064 33.72-75.415 50.586-127.1 50.586-51.681 0-94.035-16.866-127.099-50.586-33.069-33.724-49.608-75.796-49.608-126.253 0-49.189 16.536-90.153 49.603-122.929zm60.869 195.808l.003.004c17.473 19.39 39.561 29.089 66.232 29.089s48.605-9.699 65.76-29.091c17.467-19.386 26.187-43.692 26.187-72.881 0-27.93-8.724-51.133-26.194-69.569-17.157-18.758-39.088-28.136-65.753-28.136-26.666 0-48.752 9.379-66.226 28.136l.366.34-.366-.34c-17.153 18.437-25.72 41.64-25.72 69.569 0 29.188 8.563 53.493 25.711 72.879z" stroke="#FFFBFB" stroke-opacity=".14"/><path d="M52.37 36C75.322 16.805 104.736 7.19 140.653 7.19c41.76 0 76.92 12.68 105.512 38.024l-34.592 66.897c-9.738-8.39-21.313-15.39-34.717-21.005-13.635-5.713-26.968-8.574-39.994-8.574-12.05 0-21.178 2.218-27.304 6.736-6.125 4.517-9.206 10.512-9.206 17.946 0 7.462 3.736 14.23 11.08 20.301h-.001l.009.006c7.63 6.045 16.997 11.127 28.091 15.25v.001l.012.004c11.032 3.785 23.017 8.834 35.953 15.15l.009.004c12.93 5.996 24.912 12.623 35.946 19.879l.008.005c10.976 6.905 20.082 16.796 27.311 29.694l.004.007.004.006c7.528 12.557 11.3 27.164 11.3 43.841 0 29.895-10.685 54.895-32.062 75.028l-.003.003c-21.046 20.118-50.285 30.208-87.784 30.208-22.681 0-44.89-4.097-66.63-12.295-21.282-8.145-39.76-20.019-55.44-35.629l43.035-62.259c10.692 9.362 23.386 17.482 38.075 24.363 14.901 6.98 29.345 10.479 43.329 10.479 11.11 0 19.758-2.222 25.878-6.732 6.431-4.507 9.684-10.341 9.684-17.476 0-7.468-3.899-14.235-11.551-20.3-7.318-6.366-16.532-11.608-27.627-15.732-11.036-4.102-23.023-9.31-35.961-15.626-12.935-6.63-24.92-13.575-35.959-20.834-10.984-7.224-20.25-17.121-27.797-29.706-7.216-12.875-10.83-27.644-10.83-44.321 0-30.838 11.311-55.667 33.935-74.534zm343.287 244.787h135.485v70.125H313.239V12.882h211.27v70.125H395.157v62.642h103.292v70.125H395.157v65.013h.5zM619.899 56.834l.002-.001C652.964 23.745 695.319 7.19 747.003 7.19c51.688 0 94.04 16.554 127.103 49.642l.002.001c33.066 32.776 49.603 73.741 49.603 122.929 0 50.457-16.539 92.529-49.608 126.253-33.064 33.72-75.415 50.586-127.1 50.586-51.681 0-94.035-16.866-127.099-50.586-33.069-33.724-49.608-75.796-49.608-126.253 0-49.188 16.536-90.153 49.603-122.929zm60.869 195.808l.003.004c17.473 19.39 39.561 29.089 66.232 29.089s48.605-9.699 65.76-29.091c17.467-19.386 26.187-43.692 26.187-72.881 0-27.93-8.724-51.133-26.194-69.569-17.157-18.758-39.088-28.136-65.753-28.136-26.666 0-48.752 9.379-66.226 28.136l.366.34-.366-.34c-17.153 18.437-25.72 41.64-25.72 69.569 0 29.188 8.563 53.493 25.711 72.879z" stroke="#FFFBFB" stroke-opacity=".14"/></svg>