<svg width="85" height="24" viewBox="0 0 85 24" fill="none" xmlns="http://www.w3.org/2000/svg"><path d="M2.833 9.631H5.45v-7.15h2.833V.187H0v2.294h2.833v7.15zm7.81 0h7.66V7.405H13.23V5.906h4.535v-2.06h-4.535V2.412h5.007V.187h-7.593v9.444zm10.216 0h2.564V4.235l2.398 3.673h.053l2.413-3.696V9.64h2.601V.187h-2.766l-2.256 3.658L23.61.187h-2.766v9.444h.015zm12.93 0h2.616V6.933H37.7c2.346 0 4.063-1.177 4.063-3.403 0-2.12-1.537-3.343-3.928-3.343H33.79v9.444zm2.616-4.744V2.39h1.229c.944 0 1.514.435 1.514 1.244 0 .772-.57 1.252-1.5 1.252h-1.243zm12.42 4.932c2.915 0 5.096-2.196 5.096-4.91C53.921 2.174 51.763 0 48.847 0S43.75 2.196 43.75 4.91c.008 2.743 2.166 4.909 5.074 4.909zm.03-2.361c-1.432 0-2.414-1.184-2.414-2.549 0-1.386.96-2.548 2.39-2.548 1.447 0 2.43 1.184 2.43 2.548-.008 1.395-.96 2.549-2.407 2.549zm11.362 2.338c2.294 0 3.815-1.146 3.815-3.073 0-1.791-1.349-2.496-3.522-2.968-1.312-.3-1.634-.487-1.634-.914 0-.368.307-.637.944-.637.84 0 1.784.322 2.646.929l1.312-1.851C62.75.457 61.499.03 59.895.03c-2.264 0-3.658 1.267-3.658 3.02 0 1.972 1.552 2.534 3.56 2.999 1.282.3 1.59.51 1.59.907 0 .434-.375.674-1.08.674-1.094 0-2.129-.39-3.065-1.132l-1.454 1.74c1.161 1.034 2.75 1.558 4.43 1.558zM31.683 23.94h2.278l1.889-5.434 1.904 5.434h2.278l3.156-9.512h-2.706l-1.649 5.464-1.821-5.493h-2.256l-1.822 5.493-1.649-5.463H28.52l3.163 9.511zm13.769-.068h7.66v-2.226h-5.075v-1.499h4.535v-2.06h-4.535v-1.432h5.007v-2.227h-7.592v9.444zm10.208 0h4.872c2.256 0 3.575-.981 3.575-2.6 0-1.312-.727-1.957-1.873-2.331.839-.368 1.454-1.012 1.454-2.107 0-.674-.233-1.176-.608-1.551-.554-.555-1.386-.847-2.578-.847H55.66v9.436zm2.549-2.106v-1.738h1.993c.877 0 1.282.337 1.282.846 0 .578-.457.892-1.252.892H58.21zm0-3.575v-1.656h1.701c.78 0 1.184.3 1.184.81 0 .576-.442.846-1.244.846h-1.642zM72.584.195c-1.086 0-2.143.15-3.14.427v1.956c.99-.33 2.039-.51 3.14-.51 5.494 0 9.97 4.468 9.97 9.97 0 5.494-4.476 9.968-9.97 9.968a9.885 9.885 0 0 1-3.14-.51v1.957c.997.277 2.054.427 3.14.427 6.544 0 11.843-5.307 11.843-11.843 0-6.543-5.3-11.842-11.843-11.842z" fill="#000"/><path d="M71.995 12.7l5.733 1.252.51-1.582-4.804-.78-.24-6.813h-1.2V12.7z" fill="#000"/></svg>