<svg width="12" height="12" viewBox="0 0 12 12" fill="none" xmlns="http://www.w3.org/2000/svg"><path fill="#000" d="M0 0h12v12H0z"/><path d="M5.533 3.733c.067 0 .067 0 0 0 .067-.266.134-.4.134-.6V3c.066-.333.066-.6 0-.667v-.066L5.6 2.2s0 .067-.067.067c-.133.4-.133.866 0 1.466zm-2 4.6c-.133.067-.266.134-.333.2-.467.4-.8.867-.867 1.067.4-.067.8-.467 1.2-1.267.067 0 .067 0 0 0 .067 0 0 0 0 0zm6.134-1c-.067-.066-.334-.266-1.267-.266h-.133v.066c.466.2.933.334 1.266.334h.2V7.4s-.066 0-.066-.067zm1-7.333H1.333C.6 0 0 .6 0 1.333v9.334C0 11.4.6 12 1.333 12h9.334C11.4 12 12 11.4 12 10.667V1.333C12 .6 11.4 0 10.667 0zm-.734 7.867a1.331 1.331 0 0 1-.6.133 4.806 4.806 0 0 1-2-.467c-1.133.134-2 .267-2.666.534-.067 0-.067 0-.134.066-.8 1.4-1.466 2.067-2 2.067-.133 0-.2 0-.266-.067l-.334-.2v-.066c-.066-.134-.066-.2-.066-.334.066-.333.466-.933 1.266-1.4.134-.066.334-.2.6-.333.2-.333.4-.733.667-1.2.333-.667.533-1.333.733-1.933-.266-.8-.4-1.267-.133-2.2.067-.267.267-.534.533-.534h.134c.133 0 .266.067.4.134.466.466.266 1.533 0 2.4v.066c.266.734.666 1.334 1.066 1.734.2.133.334.266.6.4.334 0 .6-.067.867-.067.8 0 1.333.133 1.533.467.067.133.067.266.067.4-.067.066-.133.266-.267.4zM5.6 5.267c-.133.466-.4 1-.667 1.6-.133.266-.266.466-.4.733h.134c.866-.333 1.666-.533 2.2-.6-.134-.067-.2-.133-.267-.2-.333-.4-.733-.933-1-1.533z" fill="#fff"/></svg>