<svg width="24" height="25" viewBox="0 0 24 25" fill="none" xmlns="http://www.w3.org/2000/svg"><path d="M24 12.544c0 6.627-5.373 12-12 12s-12-5.373-12-12 5.373-12 12-12 12 5.373 12 12z" fill="#fff" fill-opacity=".2"/><path d="M15.171 14.593c-.563 0-1.109-.092-1.618-.257a.448.448 0 0 0-.463.11l-.72.903c-1.296-.618-2.51-1.787-3.157-3.13l.894-.76a.468.468 0 0 0 .11-.468 5.11 5.11 0 0 1-.257-1.618.458.458 0 0 0-.454-.454H7.92c-.247 0-.545.11-.545.454 0 4.258 3.543 7.796 7.796 7.796.326 0 .454-.289.454-.54v-1.582a.458.458 0 0 0-.454-.454z" fill="#fff"/></svg>