<svg width="21" height="13" fill="none" xmlns="http://www.w3.org/2000/svg"><path d="M16.298 8.62c-.578.538-1.29.538-1.87 0l-4.232-3.93a.004.004 0 00-.008.003c0 .004-.004.006-.007.003L6.11.918c-.579-.537-1.292-.537-1.87 0L.309 4.57A.967.967 0 000 5.278c0 .844 1.006 1.282 1.624.708l2.617-2.43c.578-.536 1.291-.536 1.87 0l4.233 3.932c.002.002.007 0 .007-.003 0-.004.004-.006.007-.003l4.07 3.778c.58.537 1.292.537 1.87 0l3.932-3.653a.967.967 0 00.309-.708c0-.844-1.006-1.282-1.625-.708l-2.616 2.43z" fill="#fff"/><path d="M11.506 3.456a.898.898 0 011.221-1.315l1.791 1.663c.523.485 1.167.485 1.691 0l1.79-1.663a.898.898 0 011.222 1.315l-3.012 2.798c-.524.485-1.168.485-1.69 0l-3.013-2.798z" fill="#fff"/><path d="M18.177 4.426l-1.971 1.828c-.524.486-1.168.486-1.691 0l-3.014-2.8a.896.896 0 010-1.313l.12-.111a.724.724 0 01.979-.004c.52.473 1.042.936 1.552 1.44.085.084.17.169.254.256.366.384.81.686 1.302.886a2.76 2.76 0 001.54.158 3.147 3.147 0 00.929-.34zM16.26.35a1.311 1.311 0 00-1.785 0 1.31 1.31 0 000 1.924A1.312 1.312 0 0016.26.35zM6.068 10.022a1.314 1.314 0 00-1.786 0 1.312 1.312 0 101.786 0z" fill="#fff"/><path d="M9.033 8.719a.898.898 0 11-1.222 1.315l-1.79-1.663c-.524-.485-1.168-.485-1.69 0L2.54 10.035a.898.898 0 11-1.222-1.316L4.33 5.92c.523-.485 1.167-.485 1.691 0l3.012 2.8z" fill="#fff"/><path d="M18.194 9.34a3.19 3.19 0 01-.924.334c-.52.095-1.055.04-1.545-.158a3.76 3.76 0 01-1.3-.886c-.76-.774-1.556-1.451-2.335-2.169l-1.71-1.606L6.101.917C5.517.38 4.797.38 4.208.917L1.852 3.148a4.14 4.14 0 01.488-.311c.29-.159.601-.272.925-.334a2.78 2.78 0 011.545.157c.491.2.935.502 1.301.886.759.775 1.554 1.452 2.334 2.17L10.16 7.32l4.28 3.943c.584.537 1.303.537 1.887 0l2.358-2.232c-.156.114-.32.217-.49.309z" fill="#fff"/><path d="M2.376 7.744c-.003 0-.005-.003-.003-.005l1.96-1.817c.523-.486 1.168-.486 1.691 0L9.037 8.72a.897.897 0 010 1.314l-.12.111a.725.725 0 01-.978.005c-.52-.473-1.043-.937-1.551-1.44l-.256-.256a3.727 3.727 0 00-1.295-.886 2.753 2.753 0 00-1.54-.158 3.133 3.133 0 00-.921.333z" fill="#fff"/><g opacity=".75" fill="#fff"><path opacity=".75" d="M10.797 2.798h.001l3.72 3.455c.07.065.146.123.225.174a1.108 1.108 0 001.24 0c.081-.05.157-.109.226-.174l1.449-1.345.52-.483.055-.05.988-.92A.898.898 0 0018 2.14l-1.79 1.663c-.39.362-.846.454-1.27.277a2.833 2.833 0 01-.67-.52c-.003-.002-.006 0-.006.002a.003.003 0 01-.004.002l-.106-.098c-.503-.498-1.019-.96-1.534-1.424l-.41-.382a.138.138 0 00-.188 0l-1.224 1.136v.002z"/><path opacity=".75" d="M14.471 2.274a1.313 1.313 0 100-1.924 1.31 1.31 0 000 1.924zm-8.403 7.748a1.314 1.314 0 00-1.786 0 1.312 1.312 0 101.786 0z"/></g></svg>