<svg xmlns="http://www.w3.org/2000/svg" xmlns:xlink="http://www.w3.org/1999/xlink" width="143" height="136" fill="none"><style>.B{fill:#2f60bd}.C{fill:#000}.D{opacity:.2}.E{fill:#263238}.F{fill:#ffb573}.G{fill:#b98987}.H{opacity:.3}.I{fill:#ffb0a5}.J{opacity:.5}.K{fill:#407bff}</style><g stroke="#a5cdea"><circle cx="42.888" cy="43.83" r="42.388" transform="rotate(180 42.888 43.83)" stroke-opacity=".4"/><circle cx="79.844" cy="68.847" r="62.656" transform="rotate(180 79.844 68.847)"/></g><path d="M102.785 121.42a6.893 6.893 0 00-6.893 6.9 6.893 6.893 0 1013.787 0c0-3.815-3.087-6.9-6.894-6.9z" fill="#5c85e0"/><path d="M63.396 4.135c-3.237 0-5.86 2.505-5.86 5.594s2.624 5.594 5.86 5.594 5.86-2.504 5.86-5.594-2.624-5.594-5.86-5.594z" fill="#cddcff"/><path d="M37.797 79.667H20.28a1.15 1.15 0 01-1.149-1.149 1.15 1.15 0 011.149-1.149h17.517a1.15 1.15 0 011.149 1.149 1.15 1.15 0 01-1.149 1.149z" class="B"/><path d="M53.572 109.23l2.58-1.184-1.245-6.663-2.577 1.187 1.24 6.66z" class="G"/><path d="M56.03 107.337l-2.9 1.33c-.05.02-.09.06-.1.11s-.02.105-.001.155l.912 2.36a.507.507 0 00.663.252l2.73-1.348 5.24-2.298c1.08-.5.563-1.555.057-1.44-2.256.5-5.082 1.08-6.074.843a.785.785 0 00-.517.038z" class="B"/><path d="M52.327 102.57l2.58-1.183.643 3.435-2.585 1.183-.64-3.435z" class="C D"/><path d="M35.374 66.378s22.1 1.582 21.197 9.674c-1.28 11.63-.226 26.345-.226 26.345l-4.8 1.983s-4.213-16.394-3.1-25.46c-5.51-2.298-20.454-.096-22.212-4.856a15.612 15.612 0 01-.66-7.686h9.8z" fill="#174293"/><path d="M46.134 73.115l-.904 5.017h.05l.567.088.287.054.325.06c.444.088.882.2 1.314.337l.295.1.383.142a28.03 28.03 0 00-.195 3.366c3.35-4.92.47-9.165-2.122-9.165z" class="C H"/><g class="B"><path d="M51.102 105.962l6.223-2.857-.402-2.3-6.4 2.34.578 2.807zm6.078 1.406a3.66 3.66 0 01-.732.222.06.06 0 01-.037-.003.065.065 0 01-.038-.06c0-.013.004-.026.01-.037.054-.095.555-.926.927-.95a.24.24 0 01.124.024c.038.02.07.047.095.083a.36.36 0 01.078.36.77.77 0 01-.425.36zm-.605.057c.502-.118.835-.287.9-.463a.23.23 0 00.007-.125.22.22 0 00-.06-.11c-.01-.018-.027-.033-.046-.042s-.04-.014-.06-.01c-.2.01-.54.44-.75.75h.012z"/><path d="M56.45 107.586h-.038c-.01.001-.023-.002-.032-.008s-.017-.016-.02-.026c0-.027-.418-.743-.272-1.115a.32.32 0 01.083-.126.33.33 0 01.132-.073.248.248 0 01.165-.012.25.25 0 01.137.092c.188.253.054.97-.134 1.24l-.02.027zm-.13-1.2c-.024.01-.046.027-.064.046s-.03.044-.04.07c-.03.313.044.627.207.896.153-.305.182-.658.08-.984-.023-.035-.06-.065-.153-.04l-.03.012z"/></g><path d="M36.45 43.354l2.68 7.774 1.375 3.86 1.46 3.757-.126-.23a1.357 1.357 0 00-.502-.44c-.235-.124-.5-.18-.766-.157-.348.046-.337.12-.3.092a2.33 2.33 0 00.605-.417 18.76 18.76 0 001.513-1.513l1.532-1.727 1.51-1.777 1.83 1.095-1.046 2.217c-.368.73-.766 1.436-1.222 2.145a17.09 17.09 0 01-1.532 2.102 6.3 6.3 0 01-1.218 1.092 2.91 2.91 0 01-1.398.505 2.41 2.41 0 01-1.329-.276 2.53 2.53 0 01-.927-.85l-.046-.07-.08-.157L36.7 56.5l-1.555-3.9-1.436-3.926L32.4 44.7l4.06-1.344z" fill="#a47876"/><path d="M36.93 43.776c2.298 2.65 3.83 6.357 3.83 6.357l-6.036 3.634c-1.742-2.122-3.914-7.744-4.006-9.64-.134-2.914 3.722-3.205 6.212-.352z" class="B"/><path d="M34.803 46.48c1.317 1.107 2.252 3.408 2.68 5.64l-2.734 1.647c-.862-1.05-1.83-2.953-2.6-4.845.597-1.876 1.5-3.424 2.654-2.443z" class="C H"/><path d="M35.656 109.007h2.842l1.298-6.572h-2.838l-1.302 6.572z" class="G"/><path d="M38.586 108.317h-3.2a.206.206 0 00-.078.013.2.2 0 00-.068.041.23.23 0 00-.047.065.2.2 0 00-.018.077l-.157 2.524a.504.504 0 00.498.504l3.045-.084 4.98.088c1.187 0 1.15-1.18.65-1.287-2.263-.48-4.328-1.15-5.132-1.765a.768.768 0 00-.483-.177z" class="B"/><path d="M36.958 102.435h2.838l-.67 3.39h-2.842l.674-3.39z" class="C D"/><path d="M29.808 66.378s18.72 1.582 18.26 9.708c-.506 8.9-7.71 28.918-7.71 28.918h-5.2l3.49-27.172c-5.274 0-16.223.992-17.977-3.768a15.606 15.606 0 01-.64-7.686h9.777z" fill="#174293"/><g class="B"><path d="M34.6 105.005h6.847l.4-2.7-7.146.322-.092 2.378zm5 3.807a3.66 3.66 0 01-.766-.1.07.07 0 01-.034-.018c-.01-.008-.015-.02-.018-.034s-.001-.026.004-.038.014-.022.025-.03c.092-.065.892-.612 1.24-.478a.25.25 0 01.1.074.26.26 0 01.053.113c.018.062.02.128.006.2a.38.38 0 01-.086.169.764.764 0 01-.525.15zm-.574-.196c.5.1.885.085 1.015-.046.03-.03.05-.07.057-.112s.006-.085-.008-.125c-.003-.02-.012-.04-.025-.057s-.03-.028-.05-.035c-.184-.073-.66.165-.988.375z"/><path d="M38.85 108.712c-.01.004-.02.004-.03 0s-.017-.018-.02-.03-.005-.024-.002-.036c0-.035-.07-.85.218-1.126a.338.338 0 01.28-.092.254.254 0 01.242.198c.065.3-.36.904-.64 1.072l-.046.012zm.383-1.15a.203.203 0 00-.142.057 1.467 1.467 0 00-.188.9c.25-.206.53-.658.486-.86 0-.04-.03-.085-.126-.096h-.03z"/></g><path d="M45.005 53.542l.88-3.148 2.838 1.873s-1.532 2.727-2.493 2.505l-1.226-1.23zm2.565-3.968a1.376 1.376 0 011.634 2.148l-.48.543-2.838-1.876 1.683-.816z"/><path d="M35.35 66.52H20.17c-.107-1.356.207-5.767-.027-11.386a72.077 72.077 0 00-1.51-12.385l-.21-.915s.766-.157 1.873-.318a33.76 33.76 0 013.19-.325 56.47 56.47 0 016.453 0 28.6 28.6 0 012.734.406c.988.2 1.57.383 1.57.383s3.742 8.578 1.107 24.54z" class="B"/><path d="M20.143 55.14a72.077 72.077 0 00-1.51-12.385c1.015-.088 2.75 0 3.037 1.65.3 1.762-.08 5.905-1.528 10.735z" class="C H"/><path d="M21.368 45.583l-1.01 2.957-.915 3.006a34.16 34.16 0 00-1.241 5.94l-.027.352v.245a1.29 1.29 0 00-.245-.605 1.223 1.223 0 00-.643-.475c-.146-.038-.184-.027-.188-.023.04.01.082.01.123 0a2.87 2.87 0 00.532-.084c.946-.257 1.87-.588 2.765-.988l5.77-2.71 1.172 1.777a43.823 43.823 0 01-5.476 3.887 18.62 18.62 0 01-3.205 1.566c-.343.12-.695.214-1.053.28a4.258 4.258 0 01-.686.073 3.151 3.151 0 01-.992-.142 2.564 2.564 0 01-1.295-.934 2.646 2.646 0 01-.467-1.386 3.25 3.25 0 010-.333v-.693c.03-1.176.147-2.35.348-3.508l.697-3.336.92-3.236 1.126-3.182 3.99 1.555z" fill="#a47876"/><path d="M18.423 41.838c2.765-.873 4.534 1.337 3.768 5.17a25.077 25.077 0 01-2.627 6.993l-5.587-2.65c.532-3.757 1.616-8.62 4.446-9.513z" class="B"/><path d="M23.623 33.968L25.35 35.4l2.35 1.953c-.07.313-.12.63-.15.95-.126 1.275.203 2.436 2.08 2.88 0 0 1.846 1.723-1.846 1.777s-4.55-1.74-4.55-1.74c1.4-1.398.866-5.185.387-7.253z" class="G"/><path d="M27.7 37.342c-.07.313-.12.63-.15.95-.877-.176-2.05-1.11-2.172-2.007a4.07 4.07 0 01-.03-.896l2.35 1.953z" class="C D"/><path d="M30.44 31.804c.678-1.532.253-3.75-.896-4.573a1.68 1.68 0 00-1.767-.149 1.68 1.68 0 00-.674.63c-.162.27-.244.577-.24.89-.06 1.884 2.803 4.944 3.577 3.202z" class="E"/><path d="M22.91 30.965c.6 2.76.812 4.4 2.443 5.66a3.678 3.678 0 005.94-2.645c.214-2.57-.8-6.656-3.707-7.437a3.72 3.72 0 00-3.611.863 3.72 3.72 0 00-1.065 3.557z" class="G"/><g class="E"><path d="M24.083 33.118c.877-1.432.74-3.684-.287-4.65a1.68 1.68 0 00-1.745-.394 1.68 1.68 0 00-1.112 1.401c-.29 1.865 2.156 5.258 3.144 3.642z"/><path d="M24.524 29.7a1.282 1.282 0 10-1.184-2.276 1.283 1.283 0 001.184 2.276z"/><path d="M24.07 28.04a1.15 1.15 0 01-.994.81 1.15 1.15 0 01-1.125-.615 1.15 1.15 0 01.145-1.274 1.15 1.15 0 011.235-.346 1.15 1.15 0 01.739 1.425z"/><path d="M25.994 27.84a1.15 1.15 0 01-2.116.189 1.15 1.15 0 01.701-1.634 1.15 1.15 0 011.415 1.446zm-2.274-1.26a1.51 1.51 0 01-1.303 1.05 1.494 1.494 0 01-.856-.18 1.51 1.51 0 01-.612-.625 1.49 1.49 0 01-.16-.86 1.51 1.51 0 011.077-1.281c.286-.083.6-.08.874.01a1.54 1.54 0 01.515.28 1.5 1.5 0 01.466 1.603z"/><path d="M25.975 25.79a1.53 1.53 0 01-1.325 1.071 1.53 1.53 0 01-1.495-.817 1.53 1.53 0 01.185-1.694 1.53 1.53 0 011.636-.475 1.53 1.53 0 011 1.915z"/><path d="M27.966 25.263a1.53 1.53 0 01-1.324 1.072 1.53 1.53 0 01-.872-.18 1.528 1.528 0 01-.624-.635 1.53 1.53 0 01.182-1.694 1.53 1.53 0 01.745-.488c.29-.085.6-.082.9.01a1.53 1.53 0 011.003 1.915z"/><path d="M30.28 25.27a1.53 1.53 0 01-2.816.229 1.53 1.53 0 01-.163-.871c.033-.3.153-.584.346-.815a1.53 1.53 0 012.536.275 1.53 1.53 0 01.096 1.182zm-7.656 2.927a1.38 1.38 0 01-1.199.96 1.384 1.384 0 01-.785-.166 1.38 1.38 0 01-.707-1.364 1.384 1.384 0 01.989-1.176 1.38 1.38 0 01.803.01c.35.1.64.356.8.68a1.38 1.38 0 01.09 1.054zm4.684-1.257a1.25 1.25 0 01-2.298.201 1.25 1.25 0 011.483-1.768 1.25 1.25 0 01.732.614c.076.145.122.304.136.468a1.25 1.25 0 01-.053.484z"/><path d="M28.84 26.826a1.06 1.06 0 01-1.952.173 1.06 1.06 0 011.26-1.502 1.06 1.06 0 01.693 1.329zm2.336-.824a1.05 1.05 0 01-.918.732 1.06 1.06 0 01-1.028-.567 1.057 1.057 0 01.642-1.502 1.06 1.06 0 01.613.007c.133.042.256.1.362.2s.194.2.258.323.103.258.115.397a1.05 1.05 0 01-.046.41z"/><path d="M30.23 26.868a1.02 1.02 0 01-.332.487 1.01 1.01 0 01-.547.22 1.017 1.017 0 01-.989-.54c-.092-.177-.13-.38-.1-.58s.102-.388.232-.542a1.01 1.01 0 01.494-.322c.194-.056.398-.054.6.007a1.01 1.01 0 01.663 1.271zm1.888-1.36a.837.837 0 01-.723.58.844.844 0 01-.475-.1.84.84 0 01-.43-.824.778.778 0 01.2-.446.84.84 0 01.407-.265.826.826 0 01.485.006.83.83 0 01.544 1.046z"/><path d="M32.535 26.278a.5.5 0 01-.431.349.5.5 0 01-.424-.818.5.5 0 01.534-.151c.062.02.12.05.17.093a.51.51 0 01.12.15c.03.057.048.12.054.185a.52.52 0 01-.02.192zm-8.265.616a.51.51 0 01-.163.24.5.5 0 01-.753-.157.497.497 0 01-.053-.284.5.5 0 01.355-.424.529.529 0 01.3.003.5.5 0 01.326.624z"/></g><path d="M22.463 33.524a2.51 2.51 0 001.532.938c.766.138 1.02-.578.674-1.275-.314-.628-1.09-1.455-1.815-1.28s-.854 1.007-.39 1.616z" class="G"/><path d="M27.64 31.218c.035.226.184.383.333.383s.24-.214.207-.44-.184-.383-.333-.383-.24.215-.207.44zm2.56-.314c.034.226.184.383.333.383s.24-.218.207-.444-.184-.383-.333-.383-.24.226-.207.444z" class="E"/><path d="M29.43 31.004a7.194 7.194 0 001.072 1.612 1.087 1.087 0 01-.433.214 1.1 1.1 0 01-.483.008l-.157-1.834z" fill="#946e6c"/><path d="M30.008 34.494a1.95 1.95 0 01-.774-.15 1.97 1.97 0 01-.654-.441c-.012-.013-.018-.03-.017-.048s.01-.034.022-.046.03-.018.048-.017.034.01.046.022a1.904 1.904 0 001.58.528c.017-.001.034.004.047.015s.023.026.025.043-.003.036-.013.05-.027.024-.044.027a2.19 2.19 0 01-.268.015zm-3.4-4.582a.2.2 0 01-.058-.03c-.018-.013-.023-.027-.03-.044s-.01-.034-.01-.052a.134.134 0 01.04-.096c.14-.164.318-.3.518-.368s.417-.104.63-.077a.13.13 0 01.05.018c.015.01.028.022.038.037a.13.13 0 01.02.049.135.135 0 01-.001.053.13.13 0 01-.054.087.13.13 0 01-.047.021.114.114 0 01-.052 0 1.02 1.02 0 00-.885.36.143.143 0 01-.074.047.14.14 0 01-.087-.005zm4.53-.157a.13.13 0 01-.065.002.135.135 0 01-.058-.03 1.15 1.15 0 00-.961-.26.13.13 0 01-.102-.011c-.015-.01-.03-.02-.04-.034s-.02-.03-.023-.047a.133.133 0 01.092-.163 1.39 1.39 0 011.203.31c.028.023.045.056.05.092s-.007.07-.03.1a.156.156 0 01-.065.042z" class="E"/><path d="M25.695 53.52l.996-2.42 2.1 2.233s-1.015 2.374-2.194 1.746l-.9-1.56zm2.499-3.36a1.294 1.294 0 011.658 1.952L28.8 53.33l-2.1-2.237 1.503-.933z"/><g class="E"><path d="M91.356 28.717a3.35 3.35 0 003.347-3.347 3.35 3.35 0 00-3.347-3.347 3.35 3.35 0 00-3.347 3.347 3.35 3.35 0 003.347 3.347z"/><path d="M92.133 28.813a3.45 3.45 0 01-1.915-.58c-.567-.378-1-.917-1.27-1.547s-.33-1.323-.196-2 .46-1.283.943-1.765 1.096-.8 1.765-.943 1.362-.065 2 .196a3.46 3.46 0 011.547 1.27c.38.567.58 1.233.58 1.915a3.48 3.48 0 01-1 2.437c-.637.647-1.523 1-2.437 1zm0-6.7a3.25 3.25 0 00-2.298 5.552 3.25 3.25 0 005.549-2.305 3.25 3.25 0 00-3.251-3.248zm-7.418 8.634a3.45 3.45 0 01-1.915-.58c-.567-.378-1-.917-1.27-1.547s-.33-1.323-.196-2 .46-1.283.943-1.765 1.096-.8 1.765-.943 1.362-.065 2 .196a3.46 3.46 0 011.547 1.27c.38.567.58 1.233.58 1.915a3.48 3.48 0 01-1 2.437c-.637.647-1.523 1-2.437 1zm0-6.694a3.25 3.25 0 00-2.299 5.55 3.25 3.25 0 005.55-2.299 3.25 3.25 0 00-3.251-3.251z"/><path d="M85.05 30.66a3.43 3.43 0 003.428-3.428 3.43 3.43 0 00-3.428-3.428 3.43 3.43 0 00-3.428 3.428 3.43 3.43 0 003.428 3.428z"/><path d="M81.724 22.042c-.417 1.97 1.01 5.415 2.512 5.603s1.796-3.562.494-5.197-2.692-1.838-3.006-.406z"/></g><path d="M84.53 36.963c.18 1.084.276 2.1.356 3.152l.08 3.152a25.49 25.49 0 01-.827 6.361c-.594 2.03-1.306 3.925-2.045 5.836l-1.15 2.842-1.214 2.81-1.348-.5.83-2.93.846-2.918.827-2.91.766-2.88a24.53 24.53 0 00.467-5.725l-.142-2.934-.303-2.903 2.853-.463z" class="I"/><path d="M81.847 34.037c-1.068.548-.8 5.407-.8 5.407l5.02 1.968s.525-5.95-.632-7.004-2.022-1.172-3.588-.37z" class="B"/><path d="M82.188 35.06l.2 4.913 2.034.793-2.233-5.706z" class="C D"/><path d="M78.948 59.9l-3.194 1.3 2.46 1.302s1.64-.8 1.7-1.96l-.954-.643zm8.874 48.758h-2.83l-.48-6.552h2.83l.48 6.552zm15.704-4.224l-2.776.547-2.16-6.25 2.773-.548 2.163 6.25z" class="I"/><path d="M100.344 104.503l3-1.072c.05-.02.108-.02.16.001a.22.22 0 01.117.106l1.2 2.244a.47.47 0 01.046.184.46.46 0 01-.034.187c-.024.06-.06.113-.107.157s-.1.08-.162.1l-2.9.946c-.808.287-2.348 1.15-3.466 1.532s-1.57-.686-1.15-.95a7.264 7.264 0 002.9-3.125.74.74 0 01.394-.31zM84.78 108.33h3.18a.23.23 0 01.148.055c.04.035.067.086.074.14l.364 2.513a.45.45 0 01-.019.188.475.475 0 01-.094.165.45.45 0 01-.153.112.457.457 0 01-.186.04l-3.04-.084-3.83.088c-1.2 0-1.248-1.176-.766-1.28 2.214-.48 3.087-1.15 3.83-1.762a.736.736 0 01.494-.176z" fill="#182e66"/><path d="M84.512 102.1l.26 3.566h2.83l-.26-3.566h-2.83zm16.854-3.926l-2.776.552 1.206 3.48 2.746-.63-1.176-3.4z" class="D C"/><path d="M81.847 34.037s-1.206.766 5.105 16.35l11.206-2.547c-1.225-4.515-1.87-7.326-1.815-17.18a33.86 33.86 0 00-4.902.456 36.48 36.48 0 00-5.086 1.149c-2.145.705-4.507 1.773-4.507 1.773z" class="B"/><path d="M96.335 32.18a4.56 4.56 0 00-1.811 2.631c-.295 1.352 1.582 3.634 2.022 4.144l-.21-6.775z" class="C D"/><path d="M89.77 26.113c.054 1.712.272 4.17 1.666 5.002a12.117 12.117 0 01-3.477 5.5c-2.68-1.298-1.61-4.343-1.61-4.343 1.727-.85 1.513-1.582.904-2.78l2.516-3.378z" class="I"/><path d="M88.745 27.492l-1.5 2a5.26 5.26 0 01.383.866c.674-.26 1.635-1.103 1.612-1.896a2.245 2.245 0 00-.505-.97z" class="C D"/><path d="M89.575 21.985c.84 2.68 1.248 3.795.44 5.645-1.222 2.78-4.695 3.22-6.315.846-1.46-2.137-2.585-6.162-.417-8.18a3.83 3.83 0 013.617-.909 3.83 3.83 0 012.675 2.598z" class="I"/><use xlink:href="#B" class="B"/><use xlink:href="#B" fill="#0d2a60" class="J"/><path d="M88.342 104.966h-4.488l-.33-1.428 5.025-.176-.207 1.604z" fill="#10357a"/><path d="M89.886 55.414c-2.19 3.88-1.995 10.206-1.406 14.974a117.91 117.91 0 013.726-13.592c-.306-2.574-.977-3.765-2.32-1.383z" class="C D"/><use xlink:href="#C" class="B"/><use xlink:href="#C" fill="#0d2a60" class="J"/><path d="M103.167 100.81l-4.695.927-.79-1.375 5.472-1.344.012 1.792z" fill="#10357a"/><g class="E"><path d="M85.666 24.27c.08.214.035.43-.107.482s-.318-.077-.383-.3-.034-.43.103-.48.306.076.387.287zm-2.4.93c.08.214.034.43-.107.482s-.318-.077-.383-.3-.034-.43.103-.482.302.077.387.3z"/><path d="M82.922 24.888l-.57.05s.417.3.57-.05z"/></g><path d="M84.145 25.3a6.07 6.07 0 01-.241 1.651c.138.037.282.043.422.018s.273-.08.4-.163l-.57-1.505z" fill="#cc8d84"/><g class="E"><path d="M85.706 28.17a2.04 2.04 0 01-.302.145c-.017.006-.035.006-.052-.001s-.03-.02-.036-.037c-.004-.008-.006-.017-.006-.026s.002-.018.005-.026a.07.07 0 01.039-.036 1.82 1.82 0 001.126-1.187c.004-.017.015-.032.03-.042s.033-.012.05-.008.032.015.04.03.012.033.008.05a1.9 1.9 0 01-.338.66 1.89 1.89 0 01-.566.478zm-.88-7.445c.862 2.175 4.573 4.07 5.905 3.493 1.593-.693 1.15-4.14-1.4-5.224-2.14-.912-5.124.145-4.496 1.73z"/><path d="M86.864 18.848c-.843-.835-5.898-.628-6.323 1.59-.6 3.064 2.35 2.37 3.96 1.735 2.057-.808 3.466-2.233 2.363-3.324z"/></g><path d="M91.015 24.512a2.06 2.06 0 01-.62 1.44c-.517.498-1.114.115-1.256-.552-.126-.6 0-1.582.65-1.827a.92.92 0 01.868.136.92.92 0 01.358.803z" class="I"/><path d="M85.902 23.245a.138.138 0 01-.153-.038 1.59 1.59 0 00-1.21-.383.13.13 0 01-.052-.005.141.141 0 01-.079-.065.132.132 0 01.055-.181.126.126 0 01.05-.015 1.83 1.83 0 01.77.085c.248.083.475.22.666.397a.134.134 0 01.04.096.128.128 0 01-.04.096l-.046.015zm-4.102 1.15a.13.13 0 01-.13 0c-.03-.018-.054-.047-.064-.08s-.006-.07.01-.103a1.32 1.32 0 01.42-.468 1.3 1.3 0 01.6-.22.131.131 0 01.097.034c.013.012.024.026.032.042s.012.033.013.05a.134.134 0 01-.125.142 1.05 1.05 0 00-.464.181 1.08 1.08 0 00-.33.374.133.133 0 01-.05.05z" class="E"/><g class="B"><path d="M99.073 105.35h-.03a.379.379 0 01-.226-.298.222.222 0 01.002-.12.24.24 0 01.059-.104c.26-.25 1.257-.02 1.368 0a.09.09 0 01.034.02c.01.01.016.02.02.034s.001.027-.005.04-.014.023-.025.03c-.307.195-.858.505-1.195.398zm.984-.43c-.383-.08-.95-.138-1.084 0-.014.013-.023.03-.028.046s-.004.036.001.054a.27.27 0 00.047.12.27.27 0 00.098.083c.18.07.532-.023.98-.303h-.015z"/><path d="M100.118 104.932c-.337-.108-.9-.46-.942-.766a.24.24 0 01.149-.253.383.383 0 01.3 0c.383.153.66.92.67.954.006.01.008.02.008.032s-.002.023-.008.033-.02.014-.03.018-.023.006-.035.005l-.1-.023zm-.563-.88a.204.204 0 00-.084-.017.2.2 0 00-.084.017c-.076.042-.084.084-.076.115.027.195.483.52.808.632-.103-.253-.318-.66-.544-.766l-.02.02zm-15.84 4.77a1.074 1.074 0 01-.686-.173.37.37 0 01-.098-.148.38.38 0 01-.02-.177.22.22 0 01.033-.104.218.218 0 01.078-.076c.35-.192 1.474.383 1.605.452.012.007.02.017.027.03s.01.026.007.04-.007.027-.017.037a.06.06 0 01-.036.02 5.05 5.05 0 01-.892.1zm-.494-.582a.24.24 0 00-.126.023c-.013.006-.025.017-.032.03s-.01.027-.01.042a.233.233 0 00.077.215c.168.153.636.18 1.264.076a3.62 3.62 0 00-1.172-.386z"/><path d="M84.592 108.723h-.027c-.337-.153-1.003-.766-.95-1.083 0-.077.065-.173.25-.188a.47.47 0 01.204.015c.066.02.127.054.18.1.356.295.42 1.057.425 1.087.001.012-.001.024-.005.035s-.012.02-.02.027c-.016.01-.035.01-.054.007zm-.674-1.15h-.038c-.123 0-.13.062-.134.08-.03.19.42.67.766.88a1.55 1.55 0 00-.36-.873.34.34 0 00-.234-.085v-.004z"/></g><path d="M85.332 23.968l-.578.042s.425.306.578-.042z" class="E"/><use xlink:href="#D" class="B"/><use xlink:href="#D" class="C J"/><use xlink:href="#E" class="B"/><use xlink:href="#E" class="C J"/><use xlink:href="#F" class="B"/><use xlink:href="#F" class="C J"/><g class="I"><path d="M74.67 63.03l2.256.56 1.287-1.088-2.46-1.302-1.084 1.83zm18.003-18.534l-2.202-2.103-.2 2.872s1.532.977 2.558.406l-.165-1.176z"/><path d="M98.158 33.27l.218.295.184.264.333.53.597 1.07.972 2.194c.295.74.54 1.497.766 2.256l.337 1.294.042.184a2.83 2.83 0 01.069.502c.017.37-.043.74-.176 1.084a3.11 3.11 0 01-1.195 1.417c-.4.26-.83.47-1.283.624-.8.264-1.605.443-2.432.536-1.562.185-3.14.213-4.707.084V44.17l2.187-.306 2.14-.43a11.483 11.483 0 001.945-.66 3.47 3.47 0 00.724-.429c.184-.15.25-.283.234-.303s0 0 0-.034l-.092-.276-.36-1.026-.797-2.01a19.66 19.66 0 00-.931-1.915l-.51-.915-.402-.64-.115-.165 2.248-1.792z"/></g><path d="M96.338 30.66c1.2.088 3.424 3.646 3.424 3.646l-3.408 3.692s-2.558-2.455-2.41-4.03c.142-1.605 1.022-3.408 2.394-3.31z" class="B"/><path d="M89.54 42.277a1.314 1.314 0 00-.536 2.56l1.277.41.192-2.872-.933-.096z" class="I"/><path d="M134.34 79.667h-17.517a1.15 1.15 0 01-1.149-1.149 1.15 1.15 0 011.149-1.149h17.517a1.15 1.15 0 01.812.337 1.147 1.147 0 010 1.624 1.15 1.15 0 01-.812.337z" class="B"/><path d="M111.703 109.007h-2.838l-1.65-6.572h2.838l1.65 6.572z" class="F"/><path d="M108.666 108.317h3.2a.213.213 0 01.147.053.2.2 0 01.047.064.21.21 0 01.018.077l.153 2.524a.507.507 0 01-.498.505l-3.04-.084-5.744.088c-1.2 0-1.15-1.18-.65-1.287 2.263-.48 5.07-1.15 5.87-1.766a.804.804 0 01.51-.176z" fill="#204791"/><path d="M110.056 102.435h-2.84l.854 3.39h2.838l-.85-3.39z" class="C D"/><path d="M119.25 66.378s-23.104 1.582-22.626 9.716c.505 8.9 10.22 28.918 10.22 28.918h5.2s-4.715-17.02-5.852-26.084c5.51-2.298 20.458-.096 22.212-4.856a15.61 15.61 0 00.659-7.686l-9.816-.008z" class="B"/><path d="M106.46 80.908l-.177-1.187-.107-.8a13.878 13.878 0 013.213-.79l-.904-5.017c-2.68 0-5.702 4.596-1.688 9.758l-.184-1.046-.153-.92z" class="C H"/><path d="M112.588 105.005h-6.848l-.6-2.248 6.8-.54.648 2.788z" fill="#1e458e"/><g class="B"><path d="M107.66 108.81a3.66 3.66 0 00.766-.099c.012-.004.023-.012.032-.02s.015-.02.018-.033 0-.025-.005-.036-.012-.02-.022-.03c-.092-.065-.896-.613-1.24-.48a.257.257 0 00-.1.075.28.28 0 00-.056.113.371.371 0 00-.004.19.38.38 0 00.089.169c.15.112.337.165.524.15zm.575-.195c-.506.1-.88.084-1.015-.046-.028-.032-.046-.07-.054-.113s-.006-.084.008-.125c.003-.02.01-.04.024-.055s.03-.03.05-.036c.187-.073.658.164.988.375z"/><path d="M108.402 108.712c.01.003.02.003.03 0s.018-.014.024-.023.01-.02.01-.03c0-.035.065-.85-.22-1.126a.35.35 0 00-.131-.078c-.05-.016-.1-.02-.152-.014s-.1.023-.153.06-.073.085-.085.14c-.065.3.357.904.64 1.073h.034zm-.383-1.15a.206.206 0 01.146.057c.155.273.22.588.184.9-.245-.207-.53-.66-.487-.862 0-.038.03-.084.127-.095h.03z"/></g><path d="M122.223 44.802l-1.367 3.527-1.452 3.493-3.178 6.92-.165.325-.17.172a11.816 11.816 0 01-2.765 2.06 14.1 14.1 0 01-3.063 1.214c-1.026.278-2.074.46-3.133.544-.525.046-1.046.057-1.566.057a14.41 14.41 0 01-1.597-.088l.042-2.133 1.325-.234 1.336-.326c.867-.23 1.716-.524 2.54-.88a12.78 12.78 0 002.245-1.237 9.1 9.1 0 001.773-1.608l-.333.498 2.76-6.893 1.367-3.48 1.383-3.47 4.017 1.54z" class="F"/><path d="M117.69 43.776c-2.298 2.65-3.83 6.357-3.83 6.357l6.036 3.634c1.742-2.122 3.918-7.744 4.006-9.64.134-2.914-3.723-3.206-6.212-.352z" class="K"/><path d="M119.818 46.48c-1.318 1.107-2.252 3.408-2.662 5.64l2.735 1.647c.86-1.05 1.83-2.953 2.6-4.844-.617-1.877-1.51-3.424-2.673-2.443z" class="C H"/><path d="M122.91 107.226l-2.76.65-2.777-6.1 2.765-.65 2.773 6.1z" class="F"/><path d="M119.673 107.115l2.99-1.103c.05-.02.107-.02.157.002s.1.06.11.11l1.015 2.298a.53.53 0 01-.291.647c-.98.52-1.532.555-2.883.973-.594.18-2.103 1.432-3.85 1.432h-1.532c-.904 0-1.027-.965-.525-1.1 2.424-.647 3.86-2.072 4.397-2.94a.76.76 0 01.409-.318z" fill="#204791"/><path d="M120.136 101.125l-2.765.65 1.432 3.145 2.765-.65-1.432-3.145z" class="C D"/><path d="M124.812 66.378s-18.72 1.582-18.26 9.708c.506 8.9 10.865 28.32 10.865 28.32l5.06-1.19s-5.36-16.322-6.5-25.383c5.277 0 16.222.992 18-3.77a15.6 15.6 0 00.659-7.686h-9.812z" class="B"/><path d="M123.02 103.086l-6.664 1.57-.71-2.24 6.748-1.984.625 2.654z" fill="#1e458e"/><g class="B"><path d="M118.9 107.942c.236-.095.462-.215.674-.356.01-.007.02-.017.024-.028s.008-.025.006-.037-.008-.025-.016-.035-.02-.016-.034-.02c-.107-.027-1.05-.268-1.33-.02-.03.028-.055.064-.07.104s-.018.084-.01.126a.35.35 0 00.058.18.35.35 0 00.145.125.77.77 0 00.552-.042zm.47-.383c-.44.268-.797.383-.97.306-.038-.02-.07-.05-.09-.086s-.035-.078-.036-.12a.124.124 0 01.039-.11c.14-.134.674-.072 1.057.012z"/><path d="M119.562 107.593c.01-.004.017-.01.023-.02s.008-.02.008-.03-.003-.022-.008-.03c0-.034-.23-.823-.594-.98a.313.313 0 00-.147-.036.32.32 0 00-.148.036.26.26 0 00-.125.109.258.258 0 00-.032.163c.046.314.648.723.973.785l.05.003zm-.766-.945c.024-.01.05-.016.077-.016s.052.005.076.016c.22.095.383.528.487.765-.303-.107-.724-.432-.766-.64 0-.038 0-.088.084-.134l.042.008z"/></g><path d="M104.316 60.837l-3.206-.655.402 3.117s3.103.134 3.336-.812l-.532-1.65zm-4.321.185a2 2 0 00-.653 2.344l.27.673 1.9-.74-.403-3.117-1.115.84z"/><path d="M119.267 66.52h15.184c.108-1.356-.206-5.768.027-11.386.145-4.164.65-8.308 1.51-12.385.07-.306-.073-.532 0-.84a7.58 7.58 0 00-1.662-.383 33.446 33.446 0 00-3.2-.325 56.47 56.47 0 00-6.453 0c-.992.092-1.96.257-2.735.406-.988.2-1.57.383-1.57.383s-3.74 8.567-1.1 24.53z" class="K"/><path d="M134.478 55.138c.145-4.164.65-8.308 1.51-12.385-1.015-.088-2.75 0-3.037 1.65-.325 1.762.08 5.905 1.528 10.735z" class="C H"/><path d="M137.266 44.028l1.15 3.263.934 3.313.697 3.428.23 1.77c.07.594.088 1.2.076 1.85v.467a3.2 3.2 0 01-.172 1.007 3.86 3.86 0 01-.846 1.371 7.282 7.282 0 01-1.79 1.317 18.366 18.366 0 01-3.393 1.363 38.55 38.55 0 01-6.748 1.348l-.44-2.087 3.064-1.107 2.98-1.218a18 18 0 002.658-1.413 3.47 3.47 0 00.823-.724c.07-.088.062-.134 0-.046a.42.42 0 00-.026.092v.092l-.03-.36a21.42 21.42 0 00-.452-2.991l-.766-3.064-.938-3.064-1.034-3.03 4.025-1.578z" class="F"/><path d="M135.987 41.914c-2.765-.873-4.324 1.26-3.558 5.093A25.16 25.16 0 00135.06 54l5.584-2.65c-.53-3.757-1.827-8.544-4.657-9.436z" class="K"/><path d="M131.127 34.734l-4.08 3.385a7.62 7.62 0 01.15.95c.126 1.275-.908 1.87-2.2 2.114 0 0-1.846 1.723 1.846 1.777s4.55-1.74 4.55-1.74c-1.405-1.398-.735-4.42-.256-6.487z" class="F"/><g class="B"><path d="M131.027 41.198c-1.2.836-2.55 1.43-3.975 1.746.724.72 1.19 2.49 1.19 2.49s3.998-.938 4.144-4.2a3.099 3.099 0 00-.663-.21.92.92 0 00-.365.012.906.906 0 00-.332.153z"/><path d="M125.28 41.274c-.092.452 0 1.28 1.773 1.67-1.09.628-1.558 2.298-1.558 2.298s-2.474-2.17-1.203-4.048c.232-.1.475-.173.724-.214a.23.23 0 01.116.009c.038.013.07.035.098.065s.045.065.053.104.008.08-.003.117z"/></g><path d="M127.05 38.107a7.62 7.62 0 01.149.95c1.455-.222 2.398-1.084 2.52-1.976.046-.337-.295-.693-.318-.927l-2.35 1.953z" class="C D"/><path d="M124.835 33.726c-1.348-1-2.068-3.136-1.478-4.42a1.69 1.69 0 01.591-.717 1.684 1.684 0 012.435.583c.97 1.62-.016 5.69-1.548 4.554z" class="E"/><path d="M131.246 31.06c.023 2.826.184 4.473-1.13 6.062a3.672 3.672 0 01-5.332.406 3.67 3.67 0 01-1.047-1.672c-.766-2.46-.69-6.664 1.97-8.07a3.72 3.72 0 013.713.039 3.72 3.72 0 011.828 3.232z" class="F"/><path d="M130.27 33.31c-1.02-1.337-1.115-3.588-.188-4.657a1.68 1.68 0 011.686-.548 1.68 1.68 0 011.24 1.268c.494 1.815-1.586 5.453-2.738 3.937z" class="E"/><g class="B"><path d="M124.023 28.886c-.854-.513 1.12-2.248 3.677-3.006 2.857-.846 6.468 1.375 6.644 3.3.184 2.03-1.187 1.042-1.4 1.677 0 0-7.17-.92-8.92-1.972z"/><use xlink:href="#G"/></g><use xlink:href="#G" class="C H"/><g class="E"><path d="M132.16 32.67c.014.003.03.003.043 0 .02-.013.036-.035.04-.06s.002-.05-.01-.07c-.456-.747-3.58-1-3.933-1.026a12.923 12.923 0 00-3.022.2.88.88 0 00-.765.073 9.194 9.194 0 00-1.96.19c-.013.003-.024.008-.035.015s-.02.017-.026.027-.01.023-.013.035-.002.025.001.038a.095.095 0 00.042.06.1.1 0 00.035.014.097.097 0 00.038-.001 8.945 8.945 0 011.938-.188.106.106 0 00.05 0 .58.58 0 01.304-.1.69.69 0 01.321.041c.02.008.044.008.065 0a12.38 12.38 0 012.998-.203c.94.07 3.447.383 3.784.934.013.015.03.026.05.032a.1.1 0 00.058-.001z"/><path d="M127.033 34.136h.092a1.32 1.32 0 00.55-.182c.167-.1.3-.237.42-.4.483-.747.157-1.915.145-1.953a.05.05 0 00-.023-.03.05.05 0 00-.038-.005c-.013.003-.022.013-.027.024s-.007.024-.003.037c0 0 .325 1.15-.134 1.877a1.22 1.22 0 01-.391.371 1.21 1.21 0 01-.513.165 1.18 1.18 0 01-.516-.015 1.19 1.19 0 01-.461-.234c-.704-.594-.766-1.976-.766-1.988s-.005-.026-.014-.035-.022-.015-.036-.015-.023.008-.03.017-.014.02-.015.033c0 .057.046 1.44.786 2.06a1.26 1.26 0 00.459.238 1.27 1.27 0 00.517.034zm-3.39.244a1.03 1.03 0 00.425-.108 1.02 1.02 0 00.34-.275c.517-.7.195-2 .184-2.053a.06.06 0 00-.024-.026c-.01-.006-.023-.007-.034-.004s-.022.01-.03.02-.01.022-.01.033c0 0 .325 1.32-.165 1.972a.94.94 0 01-.337.283.953.953 0 01-.43.1.65.65 0 01-.29-.048.59.59 0 01-.24-.17c-.5-.563-.322-2-.322-2.026-.001-.024-.004-.03-.008-.035-.018-.016-.024-.018-.03-.02-.024.002-.03.004-.035.008-.016.02-.018.024-.02.03 0 .06-.195 1.532.345 2.106a.76.76 0 00.605.249l.073-.038z"/></g><path d="M132.242 33.458a2.52 2.52 0 01-1.272 1.252c-.73.306-1.118-.34-.938-1.1.165-.682.743-1.658 1.486-1.647s1.05.797.724 1.494z" class="F"/><path d="M126.7 32.355c0 .226-.092.425-.242.44s-.28-.157-.298-.383.092-.43.24-.444.283.157.3.387zm-2.574.272c0 .226-.092.425-.242.44s-.283-.157-.298-.383.092-.425.24-.44.283.153.3.383z" class="E"/><path d="M124.965 32.742a8.48 8.48 0 01-.812 2.126 1.31 1.31 0 00.552.133 1.3 1.3 0 00.555-.114l-.295-2.145z" fill="#d09057"/><path d="M125.698 36.253a1.98 1.98 0 001.264-.892c.007-.016.008-.034.004-.05s-.016-.032-.03-.04-.035-.01-.052-.004-.032.018-.04.034a1.9 1.9 0 01-.612.596 1.89 1.89 0 01-.813.266.069.069 0 00-.057.077.053.053 0 00.008.024l.016.02c.006.006.015.01.023.012s.017.003.026.002c.1-.008.177-.022.264-.042zm2.155-5.003a.145.145 0 00.055-.043.132.132 0 00.014-.135.125.125 0 00-.046-.053 1.305 1.305 0 00-.58-.24 1.31 1.31 0 00-.624.056.156.156 0 00-.044.03.132.132 0 00-.04.096.13.13 0 00.01.052c.015.033.04.058.074.072s.07.014.103.001a1.03 1.03 0 01.49-.038 1.04 1.04 0 01.453.191c.018.015.04.024.065.026a.13.13 0 00.07-.014zm-4.887.458c.022.001.043-.003.063-.01s.038-.022.052-.04a1.13 1.13 0 01.384-.336c.152-.08.32-.126.493-.132.017.001.035-.002.052-.007s.032-.015.045-.027.024-.026.03-.042a.13.13 0 00.014-.051c.001-.018-.002-.035-.008-.052s-.014-.032-.026-.045-.026-.024-.042-.032-.033-.012-.05-.013a1.39 1.39 0 00-1.104.571.14.14 0 00-.024.047c-.004.017-.005.035-.003.053s.01.035.018.05.022.028.036.038a.1.1 0 00.069.027z" class="E"/><g class="F"><path d="M127.677 62.307l-2.348-1.15-.1 3.064s2.33 1.107 2.8-.142l-.352-1.773z"/><path d="M124.966 61.188a3.16 3.16 0 00-2.636 3.164l2.9-.157.1-3.068-.363.06z"/></g><g class="B"><path d="M136.226 112.568h-2.298v-43.81c0-.914-.363-1.79-1-2.437s-1.523-1-2.437-1H38.848c-.914 0-1.79.363-2.437 1s-1 1.523-1 2.437v43.81h-2.298v-43.81a5.747 5.747 0 015.745-5.745h91.633a5.747 5.747 0 015.745 5.745v43.81z"/><path d="M127.98 112.568h-2.298v-43.81c0-.914-.363-1.79-1-2.437s-1.523-1-2.437-1H30.602c-.914 0-1.79.363-2.437 1s-1 1.523-1 2.437v43.81h-2.298v-43.81a5.747 5.747 0 015.745-5.745h91.633a5.747 5.747 0 015.745 5.745v43.81z"/><use xlink:href="#H"/></g><use xlink:href="#H" class="C D"/><path d="M77.344 62.082H57.61a1.17 1.17 0 01-1.149-1.026l-1.32-12.43c-.017-.13-.005-.26.034-.385s.104-.24.2-.336.194-.174.313-.226a.91.91 0 01.379-.076h19.738a1.17 1.17 0 011.149 1.023l1.32 12.43a.91.91 0 01-.034.386.937.937 0 01-.19.337.91.91 0 01-.694.303z" fill="#5784d9"/><g class="B"><path d="M78.242 62H58.52c-.272 0-.532.108-.724.3s-.3.452-.302.723H79.28a1.043 1.043 0 00-.08-.394 1.03 1.03 0 00-.562-.554 1.03 1.03 0 00-.395-.074z"/><use xlink:href="#I"/></g><use xlink:href="#I" class="C D"/><defs><path id="B" d="M86.952 50.386s-6.434 16.383-6.25 25.008c.195 8.973 3.48 29.438 3.48 29.438h3.83s-.61-19.93-.272-28.738c.383-9.605 7.414-27.574 7.414-27.574l-8.203 1.865z"/><path id="C" d="M89.91 49.71s-1.532 17.92.444 25.192c2.332 8.636 8.57 26.544 8.57 26.544l3.784-.747s-3.064-20.66-4.864-25.21c-3.807-9.708 4.695-22.147.326-27.65l-8.26 1.873z"/><path id="D" d="M96.898 48.766l.306-.07c.058 0 .1-.054.084-.092l-.437-1.272c-.015-.02-.036-.035-.06-.042s-.05-.008-.074 0l-.303.07c-.06 0-.1.058-.088.092l.44 1.27c.01.038.073.058.13.042z"/><path id="E" d="M87.886 50.818l.306-.07c.06 0 .1-.054.084-.092l-.437-1.27c-.014-.02-.035-.037-.06-.045s-.05-.007-.075.003l-.303.07c-.06 0-.1.057-.088.092l.44 1.272c.01.042.06.042.13.042z"/><path id="F" d="M92.375 49.795l.303-.07c.06 0 .1-.058.088-.092l-.44-1.27c0-.038-.073-.057-.13-.042l-.306.07c-.06 0-.1.054-.084.092l.437 1.272c.015.02.036.035.06.042s.05.008.074 0z"/><path id="G" d="M123.157 29.594c.04-.413.21-.803.483-1.114.145-.134 8.617 1.574 9.497 2.332.165.142-.43 1.352-.56 1.195-.927-1.103-9.386-2.106-9.42-2.413z"/><path id="H" d="M77.89 62.08H58.153c-.283-.004-.555-.1-.766-.3s-.347-.447-.383-.727l-1.317-12.43c-.017-.13-.006-.26.032-.385s.103-.24.2-.337.194-.174.313-.226.25-.077.38-.075H76.34a1.17 1.17 0 011.149 1.023l1.317 12.43c.017.13.006.26-.032.386s-.103.24-.2.337-.194.175-.313.227a.91.91 0 01-.38.076z"/><path id="I" d="M85.01 62h-7.05c-.27.001-.53.11-.722.3s-.3.45-.3.722h9.1c-.001-.272-.1-.532-.302-.723s-.453-.3-.724-.3z"/></defs></svg>