<svg xmlns="http://www.w3.org/2000/svg" xmlns:xlink="http://www.w3.org/1999/xlink" width="212" height="212" fill="none"><style>.B{fill:#4873c5}.C{opacity:.8}.D{fill:#fff}.E{fill:#37474f}.F{fill:#000}.G{opacity:.2}.H{fill:#f4b8ab}.I{fill:#e0e0e0}.J{fill:#f28f8f}.K{opacity:.6}.L{fill:#455a64}.M{fill:#121212}.N{fill:#263238}.O{fill:#f0f0f0}.P{fill:#595959}.Q{fill:#616161}</style><path d="M41.446 175.048c35.65 18.627 93.458 18.627 129.108 0s35.654-48.823 0-67.45-93.458-18.627-129.108 0-35.654 48.823 0 67.45z" fill="#353535"/><path d="M133.86 170.338c10.75 0 19.466-4.154 19.466-9.277s-8.715-9.277-19.466-9.277-19.465 4.153-19.465 9.277 8.715 9.277 19.465 9.277zm34.485-21.158c8.294 0 15.018-3.204 15.018-7.157s-6.724-7.157-15.018-7.157-15.018 3.204-15.018 7.157 6.724 7.157 15.018 7.157z" fill="#303030"/><use xlink:href="#B" class="B"/><use xlink:href="#B" opacity=".04" class="F"/><path d="M61.307 150.79c-.053 0-.104-.02-.143-.057s-.064-.085-.07-.138C60.026 139.318 52.14 126.64 44.56 124a.22.22 0 01-.13-.273c.018-.053.058-.096.11-.12s.11-.03.162-.01c7.86 2.735 15.726 15.336 16.83 26.962.005.056-.012.112-.048.155s-.087.072-.143.078h-.03z" fill="#353e4f"/><path d="M61.306 162.176s-1.467 1.17-6.36.712-7.416-3.956-7.416-5.457 4.5-1.76 5.474-5.482a6.504 6.504 0 01-3.748 1.988c-2.544.48-4.588-.335-5.17-4.97a8.301 8.301 0 003.74-.31c2.014-.65 2.493-1.756 1.967-1.993s-3.333 0-5.13-.683-.424-10.044.755-10.7 6.754.903 7.84 1.743c.967.746 2.323 2.04 1.696 4.774a6.86 6.86 0 001.696-2.493c.526-1.272.907-.976 1.696-.488a3.82 3.82 0 011.206 1.07 3.82 3.82 0 01.656 1.473c.19 1.187-.12 5.283-1.79 6.614 0 0 1.603.204 2.913-2.5 0 0 2.544 1.026 3.12 2.688s1.204 9.8-3.146 14.022z" class="B"/><path d="M61.738 163.1c-.052 0-.102-.02-.14-.054s-.064-.08-.07-.132c-1.12-9.163-8.086-21.2-14.916-25.72a.214.214 0 01.078-.386c.056-.01.113 0 .16.032 6.915 4.6 13.992 16.76 15.1 26.025a.21.21 0 01-.042.156.204.204 0 01-.14.08h-.025z" fill="#353e4f"/><path d="M62.167 164.38a2.015 2.015 0 01-.61-.678 1.97 1.97 0 01-.239-.879V61.527c.017-.32.1-.63.27-.905a2.03 2.03 0 01.651-.685l63.6-36.727a1.727 1.727 0 012.428.626 1.72 1.72 0 01.214.899l-64.533 139.61a1.972 1.972 0 01-1.781.034z" class="I"/><g class="E"><use xlink:href="#C"/><use xlink:href="#C" class="G"/></g><g class="N"><use xlink:href="#D"/><use xlink:href="#D" opacity=".4"/></g><g class="L"><use xlink:href="#E"/><use xlink:href="#E" opacity=".1"/></g><g class="B"><path d="M68.3 85.92l15.264-8.82c1.013-.585 1.836-.17 1.836.93a3.94 3.94 0 01-1.836 3.049L68.3 89.9c-1.018.585-1.836.17-1.836-.928a3.92 3.92 0 01.553-1.744 3.93 3.93 0 011.283-1.304zm0 6.258l10.104-5.834c1.013-.585 1.836-.17 1.836.93a3.94 3.94 0 01-1.836 3.049L68.3 96.155c-1.018.585-1.836.17-1.836-.93a3.92 3.92 0 01.553-1.744 3.94 3.94 0 011.283-1.304z"/><use xlink:href="#F"/></g><use xlink:href="#F" class="F G"/><use xlink:href="#G" class="B"/><use xlink:href="#G" opacity=".04" class="F"/><use xlink:href="#H" class="B"/><use xlink:href="#H" class="F G"/><path d="M67.208 118.8l1.976-1.14c.424-.237.734-.047.734.424v2.28a1.63 1.63 0 01-.734 1.272l-1.976 1.14c-.424.233-.734.042-.734-.424v-2.28a1.62 1.62 0 01.214-.725 1.62 1.62 0 01.52-.547z" class="I"/><path d="M72.56 116.706l11.94-6.9c.51-.293.92-.085.92.466a1.96 1.96 0 01-.277.872c-.16.264-.38.487-.643.65l-11.94 6.898c-.51.293-.92.085-.92-.466.022-.3.116-.6.276-.876s.38-.49.644-.655z" class="O"/><path d="M67.208 126.776l1.976-1.14c.424-.237.734-.046.734.424v2.28a1.622 1.622 0 01-.216.724 1.63 1.63 0 01-.518.548l-1.976 1.14c-.424.233-.734.042-.734-.424v-2.28a1.607 1.607 0 01.734-1.272z" class="I"/><path d="M72.56 124.68l11.94-6.894c.51-.297.92-.085.92.462a1.97 1.97 0 01-.92 1.527l-11.94 6.894c-.51.293-.92.085-.92-.466a1.96 1.96 0 01.278-.871c.16-.265.38-.488.642-.652z" class="O"/><path d="M67.208 134.73l1.976-1.14c.424-.238.734-.047.734.424v2.28a1.622 1.622 0 01-.216.723 1.63 1.63 0 01-.518.549l-1.976 1.14c-.424.233-.734.043-.734-.424v-2.28a1.607 1.607 0 01.734-1.272z" class="I"/><path d="M72.56 132.636l11.94-6.895c.51-.296.92-.084.92.463-.022.31-.117.608-.277.873a1.97 1.97 0 01-.643.653l-11.94 6.894c-.51.293-.92.085-.92-.466a1.955 1.955 0 01.92-1.52z" class="O"/><g class="B"><path d="M67.39 142.557l8.48-4.905c.51-.293.92-.085.92.466a1.955 1.955 0 01-.92 1.52l-8.48 4.906c-.505.292-.916.085-.916-.462a1.97 1.97 0 01.276-.873c.16-.265.378-.49.64-.654z"/><use xlink:href="#I"/></g><use xlink:href="#I" class="C D"/><g class="B"><path d="M67.39 146.534l11.944-6.894c.505-.292.916-.085.916.467a1.979 1.979 0 01-.277.87 1.98 1.98 0 01-.639.652l-11.944 6.894c-.505.293-.916.085-.916-.462a1.969 1.969 0 01.916-1.527z"/><use xlink:href="#J"/><use xlink:href="#K"/></g><use xlink:href="#K" class="F G"/><g class="B"><use xlink:href="#J"/><use xlink:href="#L"/></g><use xlink:href="#L" class="C D"/><path d="M67.39 154.484l15.387-8.904c.51-.292.92-.084.92.467a1.97 1.97 0 01-.278.871c-.16.264-.38.487-.642.65l-15.387 8.904c-.505.297-.916.085-.916-.462a1.969 1.969 0 01.916-1.527z" class="B"/><use xlink:href="#M" fill="#ebebeb"/><use xlink:href="#M" fill="#fafafa" class="K"/><path d="M88.862 50.524v7.954l-3.443 3.977h3.443v7.954l36.167-20.882V29.642L88.862 50.524z" class="B"/><path opacity=".36" d="M93.593 50.8l14.654-8.48c.708-.424 1.272-.076 1.272.742a2.84 2.84 0 01-.372 1.264 2.85 2.85 0 01-.9.962l-14.654 8.46c-.712.424-1.272.076-1.272-.742a2.845 2.845 0 011.272-2.205z" class="D"/><g class="B"><use xlink:href="#N"/><use xlink:href="#N"/></g><use xlink:href="#N" class="D K"/><use xlink:href="#O" class="B"/><g class="D"><use xlink:href="#O" class="K"/><path d="M92.767 63.176L121.128 46.8c.254-.144.458-.042.458.233a.98.98 0 01-.138.436.99.99 0 01-.32.327L92.767 64.172c-.254.144-.458.042-.458-.233.01-.154.058-.304.138-.436s.19-.245.32-.327z" class="K"/></g><use xlink:href="#P" class="B"/><use xlink:href="#P" class="D G"/><use xlink:href="#Q" class="B"/><use xlink:href="#Q" class="C D"/><g class="B"><use xlink:href="#R"/><use xlink:href="#S"/><use xlink:href="#T"/><use xlink:href="#U"/></g><g class="I"><use xlink:href="#R"/><use xlink:href="#S"/><use xlink:href="#T"/><use xlink:href="#U"/><use xlink:href="#R" class="C"/><use xlink:href="#S" class="C"/><use xlink:href="#T" class="C"/><use xlink:href="#U" class="C"/><use xlink:href="#V"/><use xlink:href="#W"/><use xlink:href="#X"/><use xlink:href="#Y"/><use xlink:href="#V" class="C"/><use xlink:href="#W" class="C"/><use xlink:href="#X" class="C"/><use xlink:href="#Y" class="C"/><use xlink:href="#Z"/><use xlink:href="#a"/><use xlink:href="#b"/><use xlink:href="#c"/><use xlink:href="#Z" class="C"/><use xlink:href="#a" class="C"/><use xlink:href="#b" class="C"/><use xlink:href="#c" class="C"/></g><use xlink:href="#d" class="B"/><use xlink:href="#d" class="D G"/><use xlink:href="#e" class="B"/><use xlink:href="#e" class="C D"/><use xlink:href="#f" class="B"/><use xlink:href="#f" class="D G"/><use xlink:href="#g" class="B"/><use xlink:href="#g" class="C D"/><use xlink:href="#h" class="B"/><path d="M93.56 142.3l8.153-4.706c.254-.144.458-.043.458.233a.964.964 0 01-.138.436.97.97 0 01-.32.327l-8.153 4.707c-.254.144-.458.042-.458-.234a.99.99 0 01.458-.763z" class="I"/><use xlink:href="#i" class="B"/><path d="M104.524 135.956l8.154-4.707c.254-.148.458-.042.458.233a.97.97 0 01-.458.759l-8.154 4.71c-.254.148-.458.042-.458-.23a.98.98 0 01.458-.767z" class="I"/><use xlink:href="#j" class="B"/><g class="D"><use xlink:href="#h" class="G"/><use xlink:href="#i" class="G"/><use xlink:href="#j" class="G"/></g><path d="M115.488 129.62l8.154-4.706c.254-.15.458-.043.458.23a.964.964 0 01-.138.436.97.97 0 01-.32.327l-8.154 4.706c-.25.15-.458.043-.458-.233a1 1 0 01.458-.759z" class="I"/><path d="M75.086 58.877c-4.757 2.68-8.61 9.358-8.61 14.912s3.854 7.835 8.61 5.088 8.612-9.42 8.612-14.916-3.858-7.768-8.612-5.084z" fill="#fafafa"/><path d="M79.258 75.994l-6.894 1.85a.75.75 0 01-.703-.129.75.75 0 01-.276-.66V65.317a4.706 4.706 0 013.24-4.353l2.357-.632c1.794-.48 3.248.69 3.248 2.612v11.74a1.42 1.42 0 01-.971 1.31z" class="E"/><path d="M79.59 79.03l-.725-3.2s0-4.32-.615-4.72l-.793-.475c.79-.27 2.45-.475 2.968 1.043.496 1.433 1.238 4.965 1.6 6.704l-2.425.65z" class="J"/><use xlink:href="#k" class="B"/><use xlink:href="#k" opacity=".16" class="F"/><g class="B"><use xlink:href="#l"/><use xlink:href="#l"/></g><use xlink:href="#l" opacity=".5" class="F"/><path d="M79.343 79.097l-6.784 1.81-.746-2.31s1.98-4.634-.466-5.826c.31-.233 2.917-1.25 2.917-1.25l2.803-.848c.534-.144 2.692.814 3.24 2.938.195.75.127 1.425-.97 5.334.013.05.008.102.008.153z" class="B"/><path d="M78.784 61.773c.466.17 1.043 1.272.988 3.93-.047 2.256-.725 2.968-1.064 3.24a3.665 3.665 0 01-1.637.386v1.344s.882.848.827 1.492-1.272 1.102-2.094.72a4.73 4.73 0 01-1.522-1.365v-3.095a.71.71 0 01-.493.244.71.71 0 01-.52-.181 1.2 1.2 0 01-.505-.786 1.2 1.2 0 01.212-.91c.424-.555 1.166-.636 1.454-.08.36-.87 1-1.596 1.823-2.056 1.34-.814 2.07-1.54 2.53-2.883z" fill="#ffa8a7"/><path d="M77.44 65.767a.39.39 0 01-.25.373.21.21 0 01-.191-.029.206.206 0 01-.084-.174.39.39 0 01.25-.373c.032-.01.066-.014.1-.01s.065.018.092.038.05.046.064.077.022.064.02.098z" class="E"/><path d="M77.507 67.65l.61.042a.422.422 0 01-.394.344c-.17-.013-.267-.195-.216-.386z" class="J"/><path d="M79.593 64.325l-.53-.25a.36.36 0 01.17-.19c.078-.04.17-.05.253-.027.038.023.07.054.097.1s.044.077.054.12.01.088.003.132a.32.32 0 01-.048.123zm-2.917.992l.53-.538c-.028-.03-.062-.05-.1-.065s-.077-.02-.117-.02-.08.012-.115.03a.29.29 0 00-.092.075.42.42 0 00-.143.24.421.421 0 00.037.277zm2.794-.297a.39.39 0 01-.065.227.344.344 0 01-.185.146c-.032.01-.067.014-.1.01s-.066-.02-.093-.04-.05-.047-.063-.078-.02-.065-.02-.1a.394.394 0 01.25-.373c.032-.01.067-.014.1-.01s.066.02.093.04.05.047.063.078.02.065.02.1z" class="E"/><path d="M78.232 65.2l.038 1.683.835-.5-.874-1.183zm-1.162 4.128c-.67.085-2.052.03-2.268-.496.078.258.25.478.483.615.424.27 1.785.33 1.785.33v-.45z" class="J"/><g class="B"><path d="M72.598 80.903l-.284-1.01.746.886-.462.123z"/><use xlink:href="#m"/></g><use xlink:href="#m" opacity=".4" class="F"/><use xlink:href="#n" class="B"/><use xlink:href="#n" opacity=".4" class="F"/><path d="M35.586 53.14v-8.4c-.026-1.628 1.035-3.26 3.184-4.5 4.24-2.455 11.134-2.455 15.383 0 2.15 1.238 3.2 2.87 3.184 4.5v8.37c0 1.62-1.043 4.516-3.184 5.75-4.24 2.455-11.134 2.455-15.383 0-2.12-1.22-3.18-4.096-3.184-5.703v-.017z" class="P"/><path d="M46.462 34.32L64.41 44.68 46.462 55.044 28.514 44.68l17.948-10.36z" class="Q"/><path d="M37.48 49.858l8.84-5.046a.32.32 0 01.243-.031.32.32 0 01.194.15c.02.037.034.077.04.118a.32.32 0 01-.064.236.32.32 0 01-.094.082l-8.527 4.855-.632-.365z" class="M"/><path d="M64.4 44.68v.742l-17.938 10.36v-.738L64.4 44.68z" fill="#747474"/><path d="M28.514 44.68v.742L46.462 55.78v-.738L28.514 44.68z" fill="#545454"/><g class="M"><path d="M37.036 50.342l.547.314a.95.95 0 01.335-.326l.19-.1-.623-.356a1.476 1.476 0 00-.45.48z"/><path d="M57.36 49.494l-10.897 7.4-10.867-7.382 10.867 6.27 10.897-6.288z"/></g><path d="M36.336 59.067a1.077 1.077 0 00.984 0l.8 5.228c0 .988-2.565.988-2.565 0l.772-5.228z" class="Q"/><path d="M36.3 62.053l-.16 2.866a.82.82 0 01-.153-.064l.314-2.803zm1.202 2.887l-.34-4.664.505 4.596c-.054.026-.1.05-.165.068zm-.576.093h-.16l.085-3.7.076 3.7z" class="P"/><path d="M36.825 59.504a.92.92 0 00.522-.178.313.313 0 00.076-.424.31.31 0 00-.424-.081c-.04.04-.094.06-.15.06s-.1-.022-.15-.06c-.033-.03-.072-.05-.114-.065s-.086-.018-.13-.014a.32.32 0 00-.223.127.32.32 0 00-.007.37.553.553 0 00.095.1c.146.11.322.17.505.174z" class="M"/><path d="M36.845 58.7a.319.319 0 00.317-.313v-7.412a.95.95 0 01.475-.823l9.002-5.13a.317.317 0 00.119-.424.31.31 0 00-.187-.148.31.31 0 00-.237.029l-9.023 5.14c-.24.14-.44.338-.58.58s-.213.513-.213.79v7.412c.002.04.01.082.03.12s.042.07.072.1.066.05.105.064.08.02.12.02z" fill="#323232"/><path d="M37.54 58.376a.697.697 0 00-.425-.645.7.7 0 00-.951.506c-.028.136-.014.275.04.402s.142.236.256.313.25.117.387.117a.69.69 0 00.492-.201.658.658 0 00.15-.225.69.69 0 00.053-.265z" class="Q"/><path d="M36.158 58.415a.54.54 0 00.326.308.54.54 0 00.446-.045c.085-.05.156-.124.204-.2s.075-.184.075-.284-.026-.197-.075-.284-.12-.16-.204-.2a.69.69 0 01.565.477.69.69 0 01-.19.715.69.69 0 01-.727.133.69.69 0 01-.432-.601h.013z" class="P"/><g class="M"><path d="M159.683 54.285l-3.278-1.887 1.802-.382 1.794 1.25-.318 1.018zm-5.738-16.888c0-5.088-3.116-7.45-6.945-5.24l-5.656 3.265c-3.816 2.2-6.94 8.162-6.94 13.267v.93c0 .1.022.2.03.297a5.19 5.19 0 00.042.335 8.38 8.38 0 00.45 1.764c.1.212.182.424.284.602a2.4 2.4 0 00.16.284l.055.1a2.69 2.69 0 00.327.424c.067.076.13.157.203.23l.22.212c.076.06.148.13.23.2a1.91 1.91 0 00.241.165l.25.144a3.28 3.28 0 001.039.352.175.175 0 01.085 0c.098 0 .187.02.284.02a1.91 1.91 0 00.31 0 3.39 3.39 0 00.809-.089 4.8 4.8 0 00.471-.119 6.49 6.49 0 001.416-.627l5.656-3.265a9.48 9.48 0 001.111-.755v-.984c-.012-4.337 2.6-9.455 5.868-11.5z"/><path d="M154.9 33.73l-3.286-1.9c.02 0 .335 2.285.335 2.285l2.438.288.513-.683zm-15.183 22.22l-3.036-1.72 1.827-.784 1.2 2.506zm1.627-2a6.19 6.19 0 01-1.157 3.498c-.136.178.072.335.224.254a5.87 5.87 0 001.807-1.454 9.203 9.203 0 001.954-3.93l-2.828 1.632z"/><path d="M140.22 57.685l3.286 1.9s1.844-1.556 1.844-4.706l-3.566-.242s-.085 2.052-1.564 3.057zm8.752-9.268v.695c0 .08 0 .148.025.225s0 .17.03.254c.05.376.137.745.263 1.102a1.44 1.44 0 00.068.191 2.32 2.32 0 00.106.25 1.82 1.82 0 00.114.23c.034.074.073.145.12.212l.042.068c.075.117.157.23.246.335a1.4 1.4 0 00.153.174l.16.157c.055.052.113.1.174.144l.182.123.2.1.195.093.203.072c.124.038.25.07.378.093h.063c.07.007.142.007.212 0a1.02 1.02 0 00.229 0 2.71 2.71 0 00.543-.055 3.74 3.74 0 00.424-.098 4.91 4.91 0 001.064-.471l4.24-2.45a6.79 6.79 0 001.064-.759l.357-.322a7.91 7.91 0 00.606-.632l.27-.246.212-.263a.43.43 0 01.064-.085 12.14 12.14 0 00.78-1.166l.187-.326.182-.335.174-.34.16-.348.157-.348.24-.62c0-.038.03-.076.043-.114l.123-.356.212-.695a13.04 13.04 0 00.335-1.696c0-.097.02-.2.034-.288s0-.165.02-.25 0-.17 0-.254v-.47c0-3.816-2.336-5.6-5.2-3.943l-4.24 2.455c-2.862 1.65-5.198 6.114-5.198 9.947z"/><path d="M165.152 37.643l-3.26-1.874-1.23.87 3.803 2.302.687-1.297zm-11.194 16.82l-3.277-1.887 2.57-.767.708 2.654z"/></g><path d="M157.783 50.282c0 .678.848 1.603 1.82 1.777.132.025.098.314-.06.424-.58.314-1.246.425-1.896.314a2.384 2.384 0 01-2.036-1.27l2.17-1.242z" class="B"/><path d="M150.282 34.043l-5.66 3.27c-3.816 2.2-6.936 8.162-6.936 13.263v.933c0 .1.02.195.033.292l.043.34a8.19 8.19 0 00.424 1.76c.1.216.182.424.284.606a2.28 2.28 0 00.161.28 1.17 1.17 0 00.06.09 2.77 2.77 0 00.323.45c.068.076.135.16.207.23l.217.212c.076.06.152.13.23.2a2.38 2.38 0 00.24.165l.255.144a3.3 3.3 0 001.034.352.124.124 0 01.085 0h.284a2.5 2.5 0 00.3 0c.272.001.544-.03.8-.1.158-.032.315-.07.47-.12a6.77 6.77 0 001.416-.623 6.146 6.146 0 01-1.16 3.494c-.136.182.072.34.23.26a5.83 5.83 0 001.806-1.458 9.26 9.26 0 001.954-3.926l-.424.233 3.236-1.866a8.71 8.71 0 00.903-.598 2.58 2.58 0 01-.055-.327c0-.072-.026-.178-.034-.288a2.26 2.26 0 01-.03-.284v-.05a1.874 1.874 0 010-.212v-.5c0-4.3 2.544-9.13 5.817-11.024l.36-.212c-.034-4.906-3.117-7.16-6.9-4.982zm11.428 3.85l-4.24 2.45c-2.87 1.662-5.2 6.127-5.2 9.96V51c0 .08 0 .148.02.225a2.34 2.34 0 00.034.25c.047.378.135.75.263 1.107a1 1 0 00.068.191c.028.084.062.166.1.246a2.51 2.51 0 00.115.233 1.45 1.45 0 00.123.212c.01.024.023.047.038.068a5.36 5.36 0 00.246.335 2 2 0 00.157.174l.16.157c.055.052.113.1.174.144s.115.087.178.123.123.076.2.1l.195.093.203.072c.124.038.25.07.378.093h.063c.07.007.142.007.212 0a.85.85 0 00.233 0 2.75 2.75 0 00.543-.051 4.07 4.07 0 00.424-.097 4.75 4.75 0 001.064-.47l1.433-.823a2.38 2.38 0 00.85.899c.357.22.766.34 1.186.35a2.94 2.94 0 001.895-.318c.153-.097.2-.386.055-.424-.97-.174-1.815-1.098-1.815-1.777l.645-.373a7.03 7.03 0 001.064-.759 8.18 8.18 0 00.352-.322c.215-.2.42-.4.6-.632.076-.1.152-.174.23-.276s.14-.17.212-.26l.063-.085a12.14 12.14 0 00.78-1.166l.2-.326c.064-.1.123-.22.182-.335s.1-.23.17-.34l.165-.348c.055-.12.102-.237.153-.348a10.48 10.48 0 00.246-.62l.038-.114c.047-.12.1-.237.123-.356.08-.233.144-.458.216-.695a13.04 13.04 0 00.335-1.696c0-.097.02-.2.03-.288s0-.17.02-.25 0-.17 0-.254v-.475c.047-3.803-2.294-5.57-5.164-3.913z" fill="#545454"/><path d="M127.645 93.98c-1.603-.5-3.248.797-4.325 3.418s-3.337 9.286-3.672 11.062 7.247 5.644 7.035 5.542.962-20.022.962-20.022zm-3.523 61.675c-.23.084-.284.517-.318 1.373-.026.65-.166 1.78.593 2.006s1.875.1 2.362-.5c.606-.764 1.018-1.434 1.883-2.366.754-.806 1.564-1.56 1.87-2.693.275-1.026.046-1.467-.653-1.764-.96-.424-2.468.925-3.22 1.137-.648.182-2.293 2.722-2.518 2.807z" class="N"/><path d="M124.122 154.862v1.05a2.58 2.58 0 001.319.406c.47.012.932-.103 1.34-.334.046-.1.275-1.505.275-1.505l-2.934.382z" class="H"/><path d="M132.64 161.718s-.3.916-.462 1.696c-.132.636-.314 1.696-.094 2.18s1.094.79 2.438.776c.874 0 2.235.59 3.164 1.107s2.968.75 3.98.63c1.196-.14 2.438-.848 2.633-1.33s-.064-1.013-2.888-2.217c-.025 0-3.926-1.272-5.295-2.786l-3.477-.055z" class="N"/><path d="M132.64 160.58v1.226c0 .445.525 1.11 1.89 1.064.958-.034 1.624-.293 1.585-1.08v-1.14l-3.476-.068z" class="H"/><path d="M123.435 140.9a28.78 28.78 0 011.242-5.482l-.555-9.21c-.195-4.842 0-10.93-.08-12.135 0 0 15.625-3.163 15.905 2.434s-.62 19.843-.802 22.302-.6 4.634-1.12 8.62-1.908 13.22-1.908 13.22a3.678 3.678 0 01-3.477-.068s-1.098-11.194-.984-14.03c.1-2.107.452-4.193 1.077-6.207l-.555-8.628-.602-7.688-.335-.17-.526 9.387c-.182 2.46-.577 4.817-1.272 9.383-.62 3.96-2.455 12.343-2.455 12.343-1.785.967-2.85-.123-2.85-.123s-1.18-10.515-.704-13.95z" class="L"/><path d="M131.575 124.04s-3.8-1.87-5.685-3.553c0 0 1.76 2.48 4.074 3.583l.82 8.433.474-8.48.318.017z" class="E"/><path d="M134.95 92.207l-.924 5.088-4.596-.335.962-5.77 4.558 1.018z" class="H"/><path d="M124.576 96.587c.453-1.382 2.21-2.887 3.964-2.544a51.73 51.73 0 017.696 1.92c1.607.572 3.07 1.963 3.205 7.254l.814 15.756-1.946.424-.678-3.57-.314 3.57c-2.035.51-5.567.09-7.887-.424-4.833-1.055-5.414-3.06-5.414-3.06l.08-12.695.48-6.63z" class="E"/><g class="H"><path d="M138.35 86.178s1.115 1.65.97 1.823c-.258.174-.546.3-.848.37l-.123-2.192z"/><path d="M134.95 80.954c1.073.543 2.926 1.543 3.435 5.465.525 4.028-.166 5.325-.71 5.86-.368.36-2.37.382-3.37.08-1.272-.377-4.08-1.45-5.368-3.52-1.518-2.434-1.857-5.694-.144-6.992 2.404-1.823 5.25-1.353 6.156-.895z"/></g><g class="E"><path d="M138.6 82.303c-.352.967-.945 3.333-3.413 4.32 0 0-.352-1.51-1.62-1.348s-1.484 1.777-.704 2.78 1.535.64 1.535.64.17 2.162-1.272 3.142c0 0-1.742 1.102-3.587.254-.848-.382-2.005-2.37-2.692-4.002-1.46-3.45-1.667-6.22.534-7.094.27-1.57.98-2.158 2.4-2.45 3.057-.632 5.368 1.378 7.937 1.026 1.344-.187 1.285 1.628.882 2.73z"/><path d="M127.34 81.522l-1.442-.9a.86.86 0 01.222-.257.866.866 0 01.646-.168.852.852 0 01.704.66.846.846 0 01-.127.654z"/></g><path d="M134.61 94.06l.526 1.522s-.386.678-2.027.712-3.392-.488-3.935-1.187a1.25 1.25 0 01-.268-.477 1.256 1.256 0 01-.037-.545s.653-1.442 1.272-1.378l-.102.627s.14.513 1.628.907c2.315.615 2.943-.182 2.943-.182z" class="L"/><path d="M147.798 104.177c.66-.76.916-2.443 1.798-3.596s1.208-1.997 1.556-1.492c.462.666-.58 2-.348 2.12s1.094 1.89 1.183 2.866-2.497 3.434-2.497 3.434l-1.692-3.332z" class="H"/><path d="M134.61 94.06a.59.59 0 01.526.301 13.85 13.85 0 01.695 1.446l-.695-.225-.526-1.522z" class="L"/><path d="M150.732 101.073s3.125-.27 3.58 0 .318 1.624 0 2.455-1.912 1.37-3.392 2.37l-.187-4.825z" class="H"/><path d="M135.833 95.824c1.344.47 2.518 1 3.773 3.367l4.664 7.87 3.515-3.1s.53-.514 1.518 1.12c.3.44.473.94.535 1.463a3.39 3.39 0 01-.174 1.547l-4.834 5.487c-.776.725-2.06.16-2.896-.98l-6.114-7.733s-2.866-3.808.013-9.04zm36.257-7.916h-10a1.425 1.425 0 01-1.424-1.424V70.58a4.72 4.72 0 014.719-4.719h3.434a4.72 4.72 0 014.707 4.719v15.904a1.42 1.42 0 01-.418 1.007c-.267.267-.63.417-1.007.417z" class="E"/><path d="M160.39 82.48c-.97 2.862-2.6 11.096-2.6 11.096s-3.392 4.147-4.5 5.152c-.606.56-1.972 1.565-1.972 1.565l2.48 1.823a55.14 55.14 0 006.292-5.66c.433-.46.738-1.03.882-1.645l1.696-7.276s0-5.85.894-6.62 1.154-.93 1.154-.93c-1.15-.085-3.566.242-4.33 2.493z" class="J"/><g class="B"><path d="M165.25 79.903c-1.582-.182-3.61-.148-4.596 1.62s-2.633 10.91-2.633 10.91 1.556 1.208 3.235 1.187l3.994-13.716z"/><use xlink:href="#o"/></g><use xlink:href="#o" opacity=".3" class="F"/><path d="M166.094 136.842a1.53 1.53 0 01-.225.89c-.42.693-.913 1.34-1.47 1.925-.785.848-1.96 1.845-2.803 2.578-.466.424-.483 1.026.187 1.242a5.052 5.052 0 003.684-.513c.848-.45 2.027-2.544 2.722-2.84.802-.36 1.247-.54 1.518-.908a1.3 1.3 0 00.363-.774 1.3 1.3 0 00-.198-.833c-.377-.704-.945-1.785-1.178-1.662l.072.22c-.182.572-1.743 1.238-2.544 1.08l-.127-.407z" class="E"/><path d="M174.264 112.92c.36-3.816 1.395-9.956.335-14.5l-14.077.746c-.4 4.482-.848 18.474-.356 20.076.568 1.892 5.644 14.98 5.936 17.613.02.31-.058.617-.225.878-.42.695-.912 1.342-1.47 1.93-.382.424-.848.848-1.34 1.272a.43.43 0 00-.072.204c0 .424 1.07.555 1.696.373a3.904 3.904 0 001.925-1.48c.36-.48 1.17-1.4 1.696-2.1a3.45 3.45 0 00.445-.695c.14-.31.165-.662.068-.988l-.034-.106a11.26 11.26 0 01-.509-2.646c-.195-2.888-.69-9.557-1.15-11.334a15.57 15.57 0 00-1.437-3.714l1.607-12.504s.17 11.024.67 13.835c.394 2.252.547 5.067 1.01 8.93.424 3.697.916 10.2.916 10.2a.121.121 0 00.038 0v3.112h2.633v-1.806a14.59 14.59 0 01.204-2.434c.424-2.46 1.306-8.086 1.488-9.99.288-3.02-.802-6.814-.802-6.814l.806-8.077z" class="H"/><use xlink:href="#p" class="B"/><use xlink:href="#p" class="D K"/><path d="M169.9 140.72v-.377a7.41 7.41 0 01-1.916 3.354c-.848.767-1.993 1.658-2.3 2.518s1.36 1.247 2.455 1.137a4.39 4.39 0 002.747-1.438c.696-.797.683-1.34 1.005-1.78s1.073-.925 1.247-1.434a3.217 3.217 0 00-.153-1.407c-.123-.47-.258-.992-.424-.95v.293c-.38.3-.854.46-1.34.453-.37.01-1.335-.072-1.33-.37z" class="E"/><path d="M172.568 140.628c-.382.3-.855.46-1.34.454-.4 0-1.34-.064-1.336-.36v-.377a7.4 7.4 0 01-1.916 3.354l-.64.572c-.45.5-.323.937.733 1.026s1.985-.547 2.782-1.526a17.253 17.253 0 001.717-3.142zm-9.803-72.168c-.678.403-1.518 2.12-1.437 5.7.072 3.036 1.055 3.786 1.55 4.002s1.446.085 2.37-.068v1.82s-1.272 1.488-1.2 2.324 1.848 1.03 3.048.216a9.65 9.65 0 002.205-2.408l-.02-4.185s.547.526 1.47-.28c.763-.666 1.018-1.794.424-2.396a1.33 1.33 0 00-.544-.309 1.32 1.32 0 00-1.192.239c-.166.132-.297.3-.384.495 0 0-.513-1.43-2.646-2.12-1.925-.64-2.972-1.365-3.646-3.02z" class="H"/><path d="M164.72 73.4c0 .075.022.148.063.2a.38.38 0 00.387.165.381.381 0 00.303-.29.38.38 0 00-.014-.219.392.392 0 00-.134-.175.38.38 0 00-.207-.072.39.39 0 00-.15.026.424.424 0 00-.128.082.38.38 0 00-.087.125.404.404 0 00-.033.15z" class="E"/><path d="M164.618 75.96l-.887.284c.016.06.043.114.08.163a.44.44 0 00.138.118.45.45 0 00.173.055c.06.006.122 0 .18-.018a.49.49 0 00.314-.602z" class="J"/><path d="M161.6 72.216l.772-.534a.453.453 0 00-.126-.132.46.46 0 00-.168-.072.47.47 0 00-.183 0 .45.45 0 00-.167.072.494.494 0 00-.2.307.49.49 0 00.07.36zm4.23.288l-.776-.534a.44.44 0 01.126-.132.45.45 0 01.167-.072.46.46 0 01.351.069.503.503 0 01.198.3.5.5 0 01-.066.361zm-4.06.596c-.001.075.02.148.06.2s.1.112.168.142a.38.38 0 00.218.026c.074-.013.142-.047.197-.1s.092-.118.1-.2.012-.15-.014-.22a.39.39 0 00-.133-.175.37.37 0 00-.208-.073.39.39 0 00-.398.377z" class="E"/><path d="M163.567 72.894l-.06 2.298-1.208-.373 1.268-1.925zm1.683 5.2c.975-.13 2.968-.708 3.3-1.5a2.07 2.07 0 01-.704 1.013c-.602.513-2.595 1.094-2.595 1.094v-.606z" class="J"/><path d="M172.165 90.672l-2.676 3.62L171.507 93l.658-2.328z" class="B"/><path d="M151.088 100.293c-.572.738-.924 2.17-1.225 2.654s-.66.903 0 .992 1.628-1.204 2-1.988a1.88 1.88 0 01.962-.997c-.3-.106-.148-1.348-.365-1.522 0 0-1.127.462-1.36.86zm-.168 5.607c.598-.446.62-.993.733-1.862s2.5-1.8 2.587-1.16.292 1.2-.424 1.98-1.802 1.628-2.896 1.043z" class="J"/><path d="M169.303 80.034s3.545.31 4.24.64 1.853 2.332.818 5.236-1.975 6.322-1.87 7.01 2.577 4.24 2.577 4.24a6.951 6.951 0 01-2.272 1.1l-1.272-2.764.297 2.938c-1.278.31-2.59.453-3.905.424 0 0-1.2-11.287 1.386-18.813z" class="B"/><path d="M178.037 93.878c.285-1.67 0-2.217-.585-3.854l-2.968 1.92c.244.618.387 1.27.424 1.933-.025.483-.682 5.275-1.297 6.945-.11.297-.33.542-.61.687a7.43 7.43 0 00-1.645 1.365c-.453.424-.818.5-.77.645a.698.698 0 00.847.377c.37-.12.723-.282 1.055-.483a6.496 6.496 0 01-1.16 1.696c-1.1 1.16-1.188 1.916.848 2.073 1.272.097 2.336-.615 3.485-3.35a25.45 25.45 0 00.877-3.065l1.5-6.9z" class="H"/><path d="M173.543 80.674c1.43.64 1.836 1.904 2.366 3.76l2.192 7.43s-1.425 1.696-3.392 1.22l-2.544-6.178s-1.187-4.032 1.378-6.233z" class="B"/><defs><path id="B" d="M61.306 140.018c-.848-4.478-3.952-10.86-7.738-14.416-3.642-3.418-9.048-4.61-11.202-3.032s-.742 4.986 3.44 9.14c4.72 4.686 13.78 17.685 15.5 25.05v-16.743z"/><path id="C" d="M63.027 63.452L88.86 46.547l-1.72-.996-24.914 14.386a2.03 2.03 0 00-.651.685c-.16.276-.252.587-.27.905v.93l1.72.996z"/><path id="D" d="M71.656 66.432l-10.083-5.8a1.88 1.88 0 00-.267.903v101.28a1.734 1.734 0 00.863 1.555 1.73 1.73 0 00.894.231c.313-.006.62-.097.885-.264l7.708-4.43V66.432z"/><path id="E" d="M63.947 164.347l63.6-36.727a2.03 2.03 0 00.651-.685 2.02 2.02 0 00.269-.905V24.736c0-.585-.424-.823-.92-.53l-63.6 36.727a2.02 2.02 0 00-.92 1.59v101.294c0 .585.41.822.92.53z"/><path id="F" d="M67.208 102.888l1.976-1.14c.424-.233.734-.042.734.424v2.28a1.62 1.62 0 01-.735 1.272l-1.976 1.124c-.424.238-.734.047-.734-.424v-2.28a1.63 1.63 0 01.219-.714c.127-.218.303-.403.515-.54z"/><path id="G" d="M67.208 110.846l1.976-1.14c.424-.238.734-.047.734.424v2.28a1.64 1.64 0 01-.216.723c-.127.22-.305.41-.517.55l-1.976 1.14c-.424.234-.734.043-.734-.424v-2.28a1.607 1.607 0 01.734-1.272z"/><path id="H" d="M72.56 108.752l11.94-6.9c.51-.292.92-.085.92.467a1.97 1.97 0 01-.278.871c-.16.264-.38.487-.642.65l-11.94 6.898c-.51.293-.92.085-.92-.466a1.955 1.955 0 01.92-1.52z"/><path id="I" d="M67.39 146.534l17.11-9.874c.51-.293.92-.085.92.462-.022.31-.117.608-.277.873a1.97 1.97 0 01-.643.653l-17.108 9.875c-.505.293-.916.085-.916-.462a1.969 1.969 0 01.916-1.527z"/><path id="J" d="M67.39 150.52l8.48-4.906c.51-.292.92-.084.92.467a1.97 1.97 0 01-.278.871c-.16.264-.38.487-.642.65l-8.48 4.906c-.505.292-.916.084-.916-.463a1.97 1.97 0 01.276-.872c.16-.265.378-.49.64-.654z"/><path id="K" d="M72.56 100.793L84.5 93.9c.51-.293.92-.085.92.466a1.97 1.97 0 01-.92 1.522l-11.94 6.894c-.51.292-.92.085-.92-.462a1.97 1.97 0 01.92-1.527z"/><path id="L" d="M67.39 154.484l17.11-9.874c.51-.292.92-.084.92.463-.022.31-.117.608-.277.873a1.97 1.97 0 01-.643.653l-17.108 9.858c-.505.297-.916.085-.916-.462a1.97 1.97 0 01.279-.863 1.98 1.98 0 01.636-.647z"/><path id="M" d="M127.556 24.206L88.86 46.547V149.96l38.695-22.336a2.04 2.04 0 00.65-.685 2.03 2.03 0 00.27-.905V24.736c-.005-.568-.43-.823-.92-.53z"/><path id="N" d="M92.767 57.24l28.362-16.375c.254-.144.458-.042.458.233a.98.98 0 01-.138.436.99.99 0 01-.32.327L92.767 58.215c-.254.144-.458.042-.458-.233.014-.15.063-.296.142-.425s.187-.237.316-.317z"/><path id="O" d="M92.767 60.208l28.362-16.375c.254-.148.458-.042.458.233a.97.97 0 01-.138.434.981.981 0 01-.32.324L92.767 61.2c-.254.148-.458.042-.458-.233.01-.154.058-.303.138-.434s.19-.243.32-.325z"/><path id="P" d="M93.835 71.53l1.99-1.145c.424-.237.734-.047.734.424v2.28a1.63 1.63 0 01-.215.723c-.127.22-.305.41-.518.55l-1.976 1.14c-.424.233-.734.042-.734-.424V72.8a1.624 1.624 0 01.721-1.272z"/><path id="Q" d="M99.186 69.434l11.94-6.9c.508-.292.92-.085.92.466-.023.308-.12.607-.28.87a1.96 1.96 0 01-.641.651l-11.94 6.898c-.51.293-.92.085-.92-.466a1.97 1.97 0 01.92-1.522z"/><path id="R" d="M93.56 78.652l30.103-17.384c.255-.148.458-.042.458.23a.97.97 0 01-.137.437.97.97 0 01-.321.327L93.56 79.644c-.254.148-.458.042-.458-.233a.981.981 0 01.458-.759z"/><path id="S" d="M93.56 81.633l30.103-17.384c.255-.144.458-.042.458.233a.99.99 0 01-.458.763L93.56 82.63c-.254.144-.458.042-.458-.233a.98.98 0 01.458-.763z"/><path id="T" d="M93.56 84.618l30.103-17.384c.255-.148.458-.042.458.23a.97.97 0 01-.137.437.97.97 0 01-.321.327L93.56 85.6c-.254.148-.458.042-.458-.23a.98.98 0 01.458-.763z"/><path id="U" d="M93.56 87.607l30.103-17.384c.255-.144.458-.042.458.233a.99.99 0 01-.458.763L93.56 88.603c-.254.144-.458.042-.458-.233a.98.98 0 01.138-.436.99.99 0 01.32-.327z"/><path id="V" d="M93.56 100.276l30.103-17.384c.255-.148.458-.042.458.23a.97.97 0 01-.457.764L93.56 101.268c-.254.15-.458.043-.458-.233a.96.96 0 01.138-.435.98.98 0 01.32-.324z"/><path id="W" d="M93.56 103.257l30.103-17.384c.255-.144.458-.042.458.233a.99.99 0 01-.458.763L93.56 104.253c-.254.144-.458.042-.458-.233a.98.98 0 01.138-.436.99.99 0 01.32-.327z"/><path id="X" d="M93.56 106.242l30.103-17.384c.255-.148.458-.042.458.23a.97.97 0 01-.457.764L93.56 107.234c-.254.148-.458.042-.458-.23a.983.983 0 01.457-.763z"/><path id="Y" d="M93.56 109.23l30.103-17.384c.255-.144.458-.042.458.233a.99.99 0 01-.458.763L93.56 110.227c-.254.144-.458.043-.458-.233a.98.98 0 01.138-.436.99.99 0 01.32-.327z"/><path id="Z" d="M93.56 122.324l30.103-17.384c.255-.148.458-.042.458.23a.97.97 0 01-.458.763L93.56 123.316c-.254.15-.458.043-.458-.233a.96.96 0 01.138-.435.98.98 0 01.32-.324z"/><path id="a" d="M93.56 125.305l30.103-17.384c.255-.144.458-.043.458.233a.99.99 0 01-.137.436c-.08.133-.2.245-.32.327L93.56 126.3c-.254.144-.458.042-.458-.233a.98.98 0 01.138-.436.99.99 0 01.32-.327z"/><path id="b" d="M93.56 128.3l30.103-17.384c.255-.15.458-.043.458.23-.01.154-.057.304-.137.436s-.19.245-.32.327L93.56 129.282c-.254.148-.458.042-.458-.23a.983.983 0 01.457-.763z"/><path id="c" d="M93.56 131.28l30.103-17.384c.255-.144.458-.042.458.233a.99.99 0 01-.137.436c-.08.133-.2.245-.32.327L93.56 132.275c-.254.144-.458.043-.458-.233a.98.98 0 01.138-.436.99.99 0 01.32-.327z"/><path id="d" d="M93.835 93.403l1.99-1.14c.424-.233.734-.042.734.424v2.3a1.607 1.607 0 01-.734 1.272l-1.976 1.14c-.424.233-.734.047-.734-.424v-2.28a1.62 1.62 0 01.721-1.281z"/><path id="e" d="M99.186 91.308l11.94-6.894c.508-.293.92-.085.92.462-.023.31-.118.608-.278.873a1.97 1.97 0 01-.642.653l-11.94 6.877c-.51.293-.92.085-.92-.462a1.963 1.963 0 01.92-1.509z"/><path id="f" d="M93.835 115.28l1.99-1.14c.424-.238.734-.047.734.424v2.28a1.62 1.62 0 01-.734 1.272l-1.976 1.14c-.424.234-.734.043-.734-.424v-2.28c.012-.253.083-.5.208-.722a1.62 1.62 0 01.513-.55z"/><path id="g" d="M99.186 113.208l11.94-6.898c.508-.293.92-.085.92.466a1.97 1.97 0 01-.278.873c-.16.265-.38.49-.642.653l-11.94 6.895c-.51.292-.92.084-.92-.467a1.97 1.97 0 01.278-.871c.16-.264.38-.487.642-.65z"/><path id="h" d="M96.647 134.54l1.976-1.14c.424-.233.738-.043.738.424v2.28a1.63 1.63 0 01-.216.725 1.62 1.62 0 01-.522.547l-1.976 1.14c-.403.237-.734.046-.734-.424v-2.282a1.63 1.63 0 01.216-.722c.127-.22.305-.41.517-.55z"/><path id="i" d="M107.615 128.205l1.976-1.14c.402-.233.733-.042.733.424v2.28a1.62 1.62 0 01-.215.724c-.127.22-.305.41-.518.548l-1.976 1.14c-.424.233-.738.047-.738-.424v-2.28a1.61 1.61 0 01.217-.724c.128-.22.306-.41.52-.548z"/><path id="j" d="M118.58 121.87l1.976-1.14c.403-.238.734-.047.734.424v2.28a1.66 1.66 0 01-.216.723 1.63 1.63 0 01-.518.549l-1.976 1.14c-.424.234-.733.043-.733-.424v-2.28c.013-.255.086-.503.214-.724a1.61 1.61 0 01.519-.548z"/><path id="k" d="M79.53 79.046l-2.46-8.374c1.1-.424 2.49-.776 3.167.348.61 1.01 1.586 6.296 1.776 7.36l-2.485.666z"/><path id="l" d="M79.86 78.957l-2.417.65a5.51 5.51 0 01.674-1.972 3.93 3.93 0 011.984-1.488 14.13 14.13 0 00-.242 2.811z"/><path id="m" d="M72.042 81.052a29.75 29.75 0 00-1.234-4.266c-.712-1.955.085-3.642.564-4.015s2.917-1.25 2.917-1.25c.882 2.5 1.124 5.872 1.145 8.624l-3.392.907z"/><path id="n" d="M70.837 81.374l-2.42.65a1.413 1.413 0 01-.19-.153l1.51-5.885c.365-1.467.644-2.476 1.628-3.214 1.768 1.15.95 4.342.95 4.342l-1.475 4.26z"/><path id="o" d="M160.853 88.42c.285 1.363.394 2.756.326 4.147-.123 1.832-1.386 5.03-1.386 5.03s.988 1.085 3.774.65c2.268-.352 1.467-7.208.165-8.522a4.29 4.29 0 00-2.879-1.302z"/><path id="p" d="M169.303 80.034l4.24.64c-3.553 2.497-.674 8.056-.674 8.056l-1.36 4.27c1.514 1.938 2.82 3.09 3.63 5.215.9 2.375 1.696 5.907 1.484 13.144-3.392 2.544-13.712 2.27-17.73 0 0 0 .678-6.39 1.48-11.354.53-3.278 1.78-6.848 1.57-8.056-1.594-4.9-1.696-5.783-1.407-6.877.792-3.078 3.93-5.16 4.702-5.16l4.07.123z"/></defs></svg>