<svg xmlns="http://www.w3.org/2000/svg" width="370" height="307" viewBox="0 0 370 307"><defs><clipPath id="v4n4a"><path fill="#fff" d="M10-.003h125.01c-.007.333-.01.666-.01 1 0 27.616 22.386 50 50 50s50-22.384 50-50c0-.334-.003-.667-.01-1H360c5.523 0 10 4.478 10 10.001v286.999c0 5.524-4.477 10-10 10H10c-5.523 0-10-4.476-10-10V9.998c0-5.523 4.477-10 10-10z"/></clipPath></defs><g><g><path fill="#fff" d="M10-.003h125.01c-.007.333-.01.666-.01 1 0 27.616 22.386 50 50 50s50-22.384 50-50c0-.334-.003-.667-.01-1H360c5.523 0 10 4.478 10 10.001v286.999c0 5.524-4.477 10-10 10H10c-5.523 0-10-4.476-10-10V9.998c0-5.523 4.477-10 10-10z"/><path fill="none" stroke="#f64d01" stroke-linecap="round" stroke-linejoin="round" stroke-miterlimit="50" stroke-width="8" d="M10-.003h125.01c-.007.333-.01.666-.01 1 0 27.616 22.386 50 50 50s50-22.384 50-50c0-.334-.003-.667-.01-1H360c5.523 0 10 4.478 10 10.001v286.999c0 5.524-4.477 10-10 10H10c-5.523 0-10-4.476-10-10V9.998c0-5.523 4.477-10 10-10z" clip-path="url(&quot;#v4n4a&quot;)"/></g></g></svg>