<svg xmlns="http://www.w3.org/2000/svg" width="322" height="321" viewBox="0 0 322 321"><g><g clip-path="url(#clip-1890)"><path fill="#f7fafb" d="M316.026.367c28.531 0 54.295 11.669 72.438 30.418 22.578-4.367 43.859-12.325 62.98-23.353-7.402 22.46-23.135 41.312-43.605 53.233 20.031-2.36 39.204-7.504 56.993-15.192-13.338 19.29-30.131 36.27-49.523 49.842.185 4.115.287 8.28.287 12.429 0 127.205-99.822 273.887-282.369 273.887-56.032 0-108.22-15.985-152.111-43.286 7.756.928 15.648 1.366 23.656 1.366 46.489 0 89.301-15.377 123.279-41.227-43.453-.741-80.128-28.596-92.708-66.823a101.644 101.644 0 0 0 18.684 1.737c9.02 0 17.805-1.164 26.12-3.373C34.753 221.205.54 182.305.54 135.65v-1.23c13.39 7.216 28.683 11.548 44.971 12.055C18.87 129.19 1.35 99.767 1.35 66.365c0-17.655 4.907-34.196 13.439-48.36 48.933 58.172 122.064 96.5 204.551 100.546-1.702-7.031-2.58-14.45-2.58-21.92 0-53.183 44.43-96.264 99.266-96.264 54.835 0 0 0 0 0z"/></g></g></svg>