<svg 
 xmlns="http://www.w3.org/2000/svg"
 xmlns:xlink="http://www.w3.org/1999/xlink"
 width="10px" height="10px">
<path fill-rule="evenodd"  fill="rgb(254, 228, 137)"
 d="M9.165,4.946 C9.165,5.274 8.996,5.549 8.751,5.729 L5.489,8.990 C5.104,9.376 4.480,9.376 4.095,8.990 C3.710,8.605 3.710,7.981 4.095,7.596 L5.758,5.933 L1.277,5.933 C0.732,5.933 0.291,5.492 0.291,4.946 C0.291,4.402 0.732,3.961 1.277,3.961 L5.857,3.961 L4.094,2.198 C3.709,1.812 3.709,1.188 4.094,0.803 C4.479,0.418 5.104,0.418 5.489,0.803 L8.867,4.181 C9.043,4.357 9.123,4.583 9.138,4.813 C9.145,4.858 9.165,4.899 9.165,4.946 Z"/>
</svg>