<svg xmlns="http://www.w3.org/2000/svg" xmlns:xlink="http://www.w3.org/1999/xlink" width="15" height="13" fill="none"><mask id="a" fill="#fff"><use xlink:href="#C" fill-rule="evenodd"/></mask><g fill="#fff"><use xlink:href="#C" fill-rule="evenodd"/><path d="M14.854 11.462l.625-.78-.625.78zm-.488.6l-.625.78.625-.78zM7.5 6.58l.625-.78-.625-.5-.625.5.625.78zM.634 12.07l.625.78-.625-.78zm-.488-.6l-.625-.78.625.78zm6.729-5.39l.625.78.976-.78L7.5 5.3l-.625.78zM.147.696l.625-.78-.625.78zm.488-.6L.01.867.634.086zM7.5 5.58l-.625.78.625.5.625-.5-.625-.78zM14.366.086l-.625-.78.625.78zm.488.6l-.625-.78.625.78zM8.125 6.08L7.5 5.3l-.976.78.976.78.625-.78zM16 11.767a1.39 1.39 0 00-.522-1.086l-1.25 1.562a.61.61 0 01-.229-.476h2zm-2.26 1.086c.9.728 2.26.08 2.26-1.086h-2a.61.61 0 01.99-.476l-1.25 1.562zM6.875 7.36l6.866 5.493L15 11.29 8.125 5.798 6.875 7.36zm0-1.562L.01 11.29l1.25 1.562L8.125 7.36l-1.25-1.562zM.01 11.29a.61.61 0 01.99.476h-2c0 1.166 1.35 1.814 2.26 1.086L.01 11.29zm1 .476a.61.61 0 01-.229.476l-1.25-1.562A1.39 1.39 0 00-1 11.767h2zm-.23.476L7.5 6.86 6.25 5.298-.478 10.68.77 12.243zM-.478 1.477L6.25 6.86 7.5 5.298.77-.085-.478 1.477zM-1 .39a1.39 1.39 0 00.522 1.086L.77-.085A.61.61 0 011 .391h-2zM1.26-.695C.35-1.423-1-.775-1 .39h2a.61.61 0 01-.99.476L1.26-.695zm6.866 5.493L1.26-.695.01.867 6.875 6.36l1.25-1.562zm0 1.562L15 .867 13.74-.695 6.875 4.798l1.25 1.562zM15 .867a.61.61 0 01-1-.476h2c0-1.166-1.35-1.814-2.26-1.086L15 .867zM14 .39a.61.61 0 01.229-.476l1.25 1.562A1.39 1.39 0 0016 .391h-2zm.23-.476L7.5 5.298 8.75 6.86l6.73-5.383-1.25-1.562zm1.25 10.766L8.75 5.298 7.5 6.86l6.728 5.383 1.25-1.562z" mask="url(#a)"/></g><defs><path id="C" d="M14.854 11.462a.39.39 0 11-.488.61L7.5 6.58.634 12.07a.39.39 0 11-.488-.61l6.729-5.38L.147.696A.39.39 0 010 .391.39.39 0 01.634.086L7.5 5.58 14.366.086A.39.39 0 0115 .391a.39.39 0 01-.146.305L8.125 6.08l6.73 5.383z"/></defs></svg>