<svg xmlns="http://www.w3.org/2000/svg" width="63" height="63"><path d="M47.088 10.02h5.765L44.96 2.127v5.765c0 1.235.96 2.127 2.127 2.127z"/><path fill-rule="evenodd" d="M42 7.96c0 2.745 2.265 5.078 5.078 5.078h7.892v48.177c0 .96-.755 1.784-1.716 1.784h-42.48A1.82 1.82 0 019 61.216V1.784A1.82 1.82 0 0110.784 0H42v7.96zM20.07 38.916c1.276.675 2.7 1.012 4.268 1.012 1.335 0 2.545-.235 3.63-.704a7.225 7.225 0 001.678-1.005c.65-.52.573-1.482-.04-2.046-.655-.605-1.667-.51-2.418-.03-.782.5-1.666.75-2.653.75-.953 0-1.804-.205-2.552-.616a4.61 4.61 0 01-1.76-1.76c-.41-.748-.616-1.6-.616-2.552s.205-1.804.616-2.552a4.457 4.457 0 011.76-1.738c.748-.425 1.6-.638 2.552-.638.987 0 1.872.247 2.655.742.75.474 1.757.564 2.408-.037.614-.567.687-1.535.03-2.052a7.46 7.46 0 00-1.66-.984c-1.07-.47-2.273-.704-3.608-.704-1.584 0-3.014.345-4.3 1.034a7.63 7.63 0 00-2.992 2.838C16.36 29.075 16 30.44 16 31.964s.36 2.897 1.078 4.114a7.84 7.84 0 002.992 2.838zm26.77-12.382a1.625 1.625 0 10-2.982-1.29l-3.866 8.95a.5.5 0 01-.919-.002L35.3 25.337a1.766 1.766 0 10-3.244 1.391l5.06 11.728a2 2 0 001.836 1.208h.89a2 2 0 001.835-1.206l5.16-11.924z"/></svg>