<svg xmlns="http://www.w3.org/2000/svg" width="18" height="18"><g clip-path="url(#phone-A)"><path d="M9 0C4.037 0 0 4.037 0 9s4.037 9 9 9c1.265 0 2.49-.258 3.637-.765a.615.615 0 10-.498-1.126c-1 .438-2.047.66-3.14.66A7.78 7.78 0 011.232 9a7.78 7.78 0 017.769-7.769A7.78 7.78 0 0116.77 9a7.77 7.77 0 01-.37 2.377c-.53 1.648-1.398 2.157-1.82 2.09-.406-.063-.437-.67-.437-.855v-7.3a.615.615 0 00-1.231 0v.362A5.13 5.13 0 009.001 3.86 5.15 5.15 0 003.86 9 5.15 5.15 0 009 14.14a5.13 5.13 0 003.909-1.806v.28c0 1.117.58 1.93 1.478 2.07 1.062.166 2.46-.675 3.184-2.93a8.99 8.99 0 00.43-2.753c0-4.963-4.037-9-9-9zm0 12.9c-2.156 0-3.91-1.754-3.91-3.91S6.845 5.09 9 5.09 12.9 6.844 12.9 9s-1.744 3.9-3.9 3.9z"/></g><defs><clipPath id="phone-A"><path d="M0 0h18v18H0z"/></clipPath></defs></svg>