<svg xmlns="http://www.w3.org/2000/svg" width="20" height="20" fill="none"><path d="M18.203 5.938H1.797a.586.586 0 01-.586-.586V1.758A1.76 1.76 0 012.969 0H17.03a1.76 1.76 0 011.758 1.758v3.594a.586.586 0 01-.586.586z" fill="#e3e7ea"/><path d="M17.03 0H10v5.938h8.203a.586.586 0 00.586-.586V1.758A1.76 1.76 0 0017.031 0z" fill="#babac0"/><path d="M1.188 12.383L.023 6.828A1.816 1.816 0 01.4 5.387c.34-.398.832-.62 1.348-.62H18.2c.516 0 1.008.223 1.348.62a1.77 1.77 0 01.387 1.418l-1.166 5.58 1.166 5.553a1.797 1.797 0 01-.387 1.44c-.34.398-.832.62-1.348.62H1.757A1.798 1.798 0 01.4 19.38a1.77 1.77 0 01-.387-1.418l1.165-5.578z" fill="#4086f4"/><path d="M1.19 12.38l17.59.001 1.165-5.578a1.77 1.77 0 00-.387-1.418 1.768 1.768 0 00-1.348-.62H1.757c-.516 0-1.008.223-1.348.62-.328.387-.47.914-.387 1.44L1.19 12.38z" fill="#4175df"/><path d="M4.125 3.516a.586.586 0 100-1.171.586.586 0 000 1.171z" fill="#fff5f5"/><path d="M15.844 3.516a.586.586 0 100-1.171.586.586 0 000 1.171z" fill="#e3e7ea"/><path d="M7.64 16.484a2.35 2.35 0 01-2.21-1.563.585.585 0 111.104-.39 1.174 1.174 0 002.277-.392A1.17 1.17 0 007.64 12.97h-.728a.586.586 0 010-1.172h.728a1.174 1.174 0 000-2.345c-.496 0-.94.314-1.106.78a.584.584 0 11-1.104-.39A2.35 2.35 0 017.64 8.28a2.345 2.345 0 012.344 2.344 2.34 2.34 0 01-.795 1.758 2.34 2.34 0 01.795 1.758 2.345 2.345 0 01-2.344 2.344z" fill="#fff5f5"/><path d="M5.787 10.59c.303.11.64-.05.747-.357a1.174 1.174 0 012.278.392c0 .646-.526 1.172-1.172 1.172h-.728a.586.586 0 00-.586.586H9.19a2.34 2.34 0 00.795-1.758 2.345 2.345 0 00-2.344-2.344 2.35 2.35 0 00-2.21 1.563c-.108.305.05.64.357.747z" fill="#e3e7ea"/><path d="M13.5 16.485a.586.586 0 01-.586-.586V9.962l-.847.565a.586.586 0 11-.649-.975l1.758-1.172a.585.585 0 01.91.487v7.03a.586.586 0 01-.586.586z" fill="#fff5f5"/><path d="M12.067 10.527l.847-.565v2.42h1.172V8.868c0-.216-.12-.415-.31-.517s-.422-.1-.6.03l-1.758 1.172a.586.586 0 10.65.975z" fill="#e3e7ea"/></svg>