<svg xmlns="http://www.w3.org/2000/svg" xmlns:xlink="http://www.w3.org/1999/xlink" width="129" height="21" fill="none"><g fill="#fff"><path d="M27.284 14.43c-.967.9-2.16.9-3.13 0L17.07 7.85c-.013.012-.02.015-.025.01l-6.813-6.323c-.967-.9-2.16-.9-3.13 0l-6.58 6.1a1.62 1.62 0 00-.517 1.186 1.62 1.62 0 002.719 1.186l4.38-4.066c.97-.9 2.162-.9 3.13 0l7.086 6.58c.012-.01.02-.015.024-.01l6.813 6.324c.97.9 2.162.9 3.13 0l6.58-6.114a1.62 1.62 0 00.517-1.185 1.62 1.62 0 00-2.718-1.185l-4.38 4.067zm-8.02-8.646a1.503 1.503 0 010-2.202 1.5 1.5 0 012.044 0l2.998 2.784c.875.813 1.953.813 2.83 0l2.997-2.783a1.5 1.5 0 012.044 0c.64.594.64 1.607 0 2.202l-5.04 4.682c-.876.813-1.955.813-2.83 0l-5.042-4.682z"/><path d="M30.43 7.408l-3.3 3.06c-.876.814-1.955.814-2.83 0L19.255 5.78a1.5 1.5 0 01.001-2.197l.2-.187a1.21 1.21 0 011.638-.007l2.597 2.4.426.428A6.27 6.27 0 0026.296 7.7a4.62 4.62 0 002.578.264 5.29 5.29 0 001.527-.55.11.11 0 00.028-.02zm-3.2-6.82C26.815.2 26.28 0 25.727 0s-1.088.2-1.494.587a2.173 2.173 0 00-.703 1.608c0 .302.062.6.183.878a2.16 2.16 0 00.52.73c.428.4.992.594 1.57.57s1.123-.276 1.517-.7a2.19 2.19 0 00-.1-3.086z"/><use xlink:href="#D"/><path d="M15.125 14.594a1.503 1.503 0 01-2.045 2.202l-2.996-2.784c-.876-.813-1.955-.813-2.83 0l-2.997 2.784a1.5 1.5 0 01-2.045 0 1.503 1.503 0 010-2.202l5.043-4.682c.875-.813 1.953-.813 2.83 0l5.04 4.682zm15.335 1.04a5.34 5.34 0 01-1.547.56 4.66 4.66 0 01-2.587-.264 6.221 6.221 0 01-2.176-1.483l-3.908-3.63-2.86-2.688-7.164-6.6c-.978-.9-2.183-.9-3.168 0L3.104 5.27c.26-.193.534-.367.818-.52a5.3 5.3 0 011.547-.56 4.65 4.65 0 012.587.264 6.31 6.31 0 012.178 1.482l3.907 3.632 2.868 2.686 7.164 6.6c.978.9 2.182.9 3.16 0l3.946-3.736c-.26.2-.535.364-.82.517z"/><path d="M3.982 12.96l3.277-3.05c.875-.814 1.953-.814 2.83 0l5.043 4.683a1.5 1.5 0 01-.001 2.2l-.2.186c-.46.427-1.17.428-1.637.008l-2.596-2.41-.428-.428a6.24 6.24 0 00-2.168-1.483 4.61 4.61 0 00-2.578-.264c-.54.104-1.06.292-1.542.558z"/></g><g opacity=".75"><path opacity=".75" d="M18.078 4.683l6.23 5.783c.116.11.242.206.376.292a1.856 1.856 0 002.076 0c.134-.085.26-.183.378-.292l3.387-3.145 1.655-1.538a1.502 1.502 0 10-2.045-2.201l-2.997 2.784c-.652.606-1.416.76-2.125.463a4.75 4.75 0 01-1.123-.87l-.193-.158L20.44 2.78a.23.23 0 00-.314 0l-2.048 1.9z" fill="url(#A)"/><path opacity=".75" d="M24.227 3.806a2.202 2.202 0 002.372.404c.391-.172.725-.452.96-.8s.36-.776.36-1.203-.125-.846-.36-1.203-.568-.64-.96-.8-.825-.224-1.246-.152a2.199 2.199 0 00-1.646 3.042c.121.278.298.526.52.73z" fill="url(#B)"/><use xlink:href="#D" opacity=".75" fill="url(#C)"/></g><path d="M51.2 14.14a1.3 1.3 0 110 2.6h-7.54a2 2 0 01-2-2v-10a2 2 0 012-2h7.28a1.3 1.3 0 110 2.6h-5.56a.5.5 0 00-.5.5v2.04a.5.5 0 00.5.5h4.74a1.26 1.26 0 110 2.52h-4.74a.5.5 0 00-.5.5v2.24a.5.5 0 00.5.5h5.82zm16.838-8.32c1.347 0 2.413.4 3.2 1.2.8.787 1.2 1.973 1.2 3.56v4.6a1.56 1.56 0 01-3.12 0v-4.12c0-.853-.18-1.487-.54-1.9-.347-.427-.847-.64-1.5-.64-.733 0-1.313.24-1.74.72-.427.467-.64 1.167-.64 2.1v3.84a1.56 1.56 0 01-3.12 0v-4.12c0-1.693-.68-2.54-2.04-2.54-.72 0-1.293.24-1.72.72-.427.467-.64 1.167-.64 2.1v3.84a1.56 1.56 0 01-3.12 0v-7.7a1.49 1.49 0 011.49-1.49h.51a.98.98 0 01.981.981c0 .1.114.134.178.07.364-.362.79-.646 1.282-.85a5.025 5.025 0 011.92-.36c.76 0 1.447.153 2.06.46a3.69 3.69 0 01.518.301c.562.39 1.412.435 1.982.055.2-.133.413-.252.64-.356.68-.307 1.42-.46 2.22-.46zm12.957 0c1 0 1.907.233 2.72.7a4.85 4.85 0 011.94 1.94c.467.827.7 1.793.7 2.9s-.233 2.08-.7 2.92a5.02 5.02 0 01-1.94 1.94c-.813.453-1.72.68-2.72.68-.856 0-1.598-.168-2.226-.505-.403-.216-1.014.043-1.014.5v2.165a1.56 1.56 0 01-3.12 0V7.47a1.49 1.49 0 011.49-1.49h.52a.97.97 0 01.971.971c0 .09.116.134.18.068.764-.8 1.83-1.2 3.2-1.2zm-.54 8.52c.8 0 1.453-.267 1.96-.8.52-.547.78-1.273.78-2.18s-.26-1.627-.78-2.16c-.507-.547-1.16-.82-1.96-.82s-1.46.273-1.98.82c-.507.533-.76 1.253-.76 2.16s.253 1.633.76 2.18c.52.533 1.18.8 1.98.8zm10.81-8.58a.46.46 0 00.46.46h1.1a1.2 1.2 0 010 2.4h-.98a.5.5 0 00-.5.5v6.06a1.56 1.56 0 01-3.12 0V8.952a.333.333 0 00-.332-.332h-.128a1.2 1.2 0 010-2.4h.128c.183 0 .332-.15.332-.332V5.74c0-1.227.36-2.2 1.08-2.92.733-.72 1.76-1.08 3.08-1.08.467 0 .907.053 1.32.16.658.144.898.865.67 1.498l-.056.155c-.188.518-.84.71-1.388.66l-.245-.01c-.947 0-1.42.52-1.42 1.56zm14.118 5.64c0 .475-.427.84-.902.84h-6.676c-.32 0-.56.3-.424.588.187.396.467.727.842.992.547.387 1.227.58 2.04.58.56 0 1.053-.08 1.48-.24l.15-.064c.653-.294 1.468-.303 1.953.223.44.48.46 1.232-.074 1.604-.935.652-2.13.977-3.6.977-1.214 0-2.287-.233-3.22-.7-.933-.48-1.653-1.14-2.16-1.98s-.76-1.793-.76-2.86c0-1.053.247-2 .74-2.84a5.25 5.25 0 012.06-1.98c.88-.48 1.86-.72 2.94-.72 1.053 0 2.006.227 2.86.68s1.52 1.107 2 1.96c.493.84.74 1.82.74 2.94zM99.8 8.18c-.707 0-1.3.2-1.78.6-.34.284-.588.643-.74 1.075-.102.29.137.565.443.565h4.132c.307 0 .546-.277.44-.566a2.423 2.423 0 00-.736-1.054c-.48-.413-1.067-.62-1.76-.62zm7.057-4.72a1.56 1.56 0 013.12 0v11.72a1.56 1.56 0 01-3.12 0V3.46zm5.416 4.08a1.56 1.56 0 013.12 0v7.64a1.56 1.56 0 01-3.12 0V7.54zm1.56-3.06c-.574 0-1.04-.167-1.4-.5a1.62 1.62 0 01-.54-1.24 1.62 1.62 0 01.54-1.24c.36-.333.826-.5 1.4-.5s1.04.16 1.4.48a1.54 1.54 0 01.54 1.2 1.73 1.73 0 01-.54 1.3c-.36.333-.827.5-1.4.5zm8.975 12.42c-1.133 0-2.153-.233-3.06-.7a5.37 5.37 0 01-2.1-1.98c-.506-.84-.76-1.793-.76-2.86s.254-2.02.76-2.86 1.207-1.493 2.1-1.96c.907-.48 1.927-.72 3.06-.72s2.147.24 3.04.72c.894.467 1.594 1.12 2.1 1.96s.76 1.793.76 2.86-.253 2.02-.76 2.86-1.206 1.5-2.1 1.98c-.893.467-1.906.7-3.04.7zm0-2.56c.8 0 1.454-.267 1.96-.8.52-.547.78-1.273.78-2.18s-.26-1.627-.78-2.16c-.506-.547-1.16-.82-1.96-.82s-1.46.273-1.98.82c-.52.533-.78 1.253-.78 2.16s.26 1.633.78 2.18c.52.533 1.18.8 1.98.8z" fill="#fff"/><defs><linearGradient id="A" x1="7826.27" y1="2418.03" x2="9596.85" y2="2418.03" gradientUnits="userSpaceOnUse"><stop stop-color="#fff" stop-opacity="0"/><stop offset=".18" stop-color="#fff" stop-opacity=".01"/><stop offset=".41" stop-color="#fff" stop-opacity=".47"/><stop offset=".45" stop-color="#fefefe" stop-opacity=".78"/><stop offset=".47" stop-color="#fff"/><stop offset=".48" stop-color="#fefefe" stop-opacity=".96"/><stop offset=".5" stop-color="#fafafa" stop-opacity=".78"/><stop offset=".52" stop-color="#f5f5f5" stop-opacity=".6"/><stop offset=".55" stop-color="#f2f2f2" stop-opacity=".47"/><stop offset=".58" stop-color="#eee" stop-opacity=".34"/><stop offset=".61" stop-color="#ececec" stop-opacity=".23"/><stop offset=".64" stop-color="#eaeaea" stop-opacity=".15"/><stop offset=".68" stop-color="#e8e8e8" stop-opacity=".08"/><stop offset=".73" stop-color="#e7e7e7" stop-opacity=".03"/><stop offset=".8" stop-color="#e6e6e6" stop-opacity=".01"/><stop offset="1" stop-color="#e6e6e6" stop-opacity="0"/></linearGradient><linearGradient id="B" x1="2448.38" y1="1101.59" x2="2594.58" y2="1101.59" gradientUnits="userSpaceOnUse"><stop stop-color="#fff" stop-opacity="0"/><stop offset=".18" stop-color="#fff" stop-opacity=".01"/><stop offset=".41" stop-color="#fff" stop-opacity=".47"/><stop offset=".45" stop-color="#fefefe" stop-opacity=".78"/><stop offset=".47" stop-color="#fff"/><stop offset=".48" stop-color="#fefefe" stop-opacity=".96"/><stop offset=".5" stop-color="#fafafa" stop-opacity=".78"/><stop offset=".52" stop-color="#f5f5f5" stop-opacity=".6"/><stop offset=".55" stop-color="#f2f2f2" stop-opacity=".47"/><stop offset=".58" stop-color="#eee" stop-opacity=".34"/><stop offset=".61" stop-color="#ececec" stop-opacity=".23"/><stop offset=".64" stop-color="#eaeaea" stop-opacity=".15"/><stop offset=".68" stop-color="#e8e8e8" stop-opacity=".08"/><stop offset=".73" stop-color="#e7e7e7" stop-opacity=".03"/><stop offset=".8" stop-color="#e6e6e6" stop-opacity=".01"/><stop offset="1" stop-color="#e6e6e6" stop-opacity="0"/></linearGradient><linearGradient id="C" x1="1863.5" y1="1656.18" x2="2009.67" y2="1656.18" gradientUnits="userSpaceOnUse"><stop stop-color="#fff" stop-opacity="0"/><stop offset=".18" stop-color="#fff" stop-opacity=".01"/><stop offset=".41" stop-color="#fff" stop-opacity=".47"/><stop offset=".45" stop-color="#fefefe" stop-opacity=".78"/><stop offset=".47" stop-color="#fff"/><stop offset=".48" stop-color="#fefefe" stop-opacity=".96"/><stop offset=".5" stop-color="#fafafa" stop-opacity=".78"/><stop offset=".52" stop-color="#f5f5f5" stop-opacity=".6"/><stop offset=".55" stop-color="#f2f2f2" stop-opacity=".47"/><stop offset=".58" stop-color="#eee" stop-opacity=".34"/><stop offset=".61" stop-color="#ececec" stop-opacity=".23"/><stop offset=".64" stop-color="#eaeaea" stop-opacity=".15"/><stop offset=".68" stop-color="#e8e8e8" stop-opacity=".08"/><stop offset=".73" stop-color="#e7e7e7" stop-opacity=".03"/><stop offset=".8" stop-color="#e6e6e6" stop-opacity=".01"/><stop offset="1" stop-color="#e6e6e6" stop-opacity="0"/></linearGradient><path id="D" d="M10.163 16.775a2.2 2.2 0 00-2.989 0 2.188 2.188 0 00-.55 2.41 2.19 2.19 0 002.044 1.392c.441 0 .872-.133 1.237-.38s.646-.6.807-1.012a2.197 2.197 0 00-.55-2.41z"/></defs></svg>