<svg xmlns="http://www.w3.org/2000/svg" width="14" height="14"><path d="M7 0C3.136 0 0 3.136 0 7s3.136 7 7 7 7-3.136 7-7-3.136-7-7-7zM3.55 11.396c.3-.63 2.135-1.246 3.45-1.246s3.157.616 3.45 1.246C9.5 12.152 8.302 12.6 7 12.6s-2.5-.448-3.45-1.204zm7.903-1.015c-1-1.218-3.43-1.63-4.452-1.63s-3.45.413-4.452 1.63A5.552 5.552 0 011.4 7 5.61 5.61 0 017 1.4 5.61 5.61 0 0112.6 7a5.56 5.56 0 01-1.148 3.38zM7 2.8c-1.358 0-2.45 1.092-2.45 2.45S5.642 7.7 7 7.7s2.45-1.092 2.45-2.45S8.358 2.8 7 2.8zm0 3.5a1.05 1.05 0 110-2.1 1.05 1.05 0 110 2.1z"/></svg>