<svg xmlns="http://www.w3.org/2000/svg" width="45" height="22" fill="none" stroke="#000" stroke-linejoin="round"><path d="M10.06 9.67l-3.395 3.01a1.13 1.13 0 01-1.346.361L.993 12.1" stroke-width="1.5" stroke-linecap="round"/><path d="M2.487 9.074l4.62-1.238c.668-.17 1.378-.06 1.963.31s.996.962 1.136 1.64l.857 3.2c.22.66.16 1.377-.163 1.99s-.882 1.063-1.546 1.25l-4.62 1.238c-1.43.383-2.707-.522-3.09-1.953l-.857-3.2c-.383-1.43.27-2.853 1.7-3.236z"/><path d="M22.234 14.855h.01m5.706-.953h.01m-2.868.953h.01m-8.582-.953h.01m-2.868.953h.01m5.705-.953h.01m18.57-5.498l-6.617 3.85-5.095-5.4a1.13 1.13 0 01.791-1.897l15.528-.332a1.115 1.115 0 01.97 1.7L35.403 19.6c-.5.83-1.75.663-2.02-.27l-2.04-7.065" stroke-width="1.5" stroke-linecap="round"/></svg>