<svg xmlns="http://www.w3.org/2000/svg" width="20" height="22" stroke="#000"><path d="M15.844 11.268v-1.87a6.065 6.065 0 00-4.297-5.794v-.846A1.76 1.76 0 009.789 1a1.76 1.76 0 00-1.758 1.758v.846a6.066 6.066 0 00-4.297 5.794v1.87a9.2 9.2 0 01-2.571 6.397.587.587 0 00.424.991h5.332C7.19 19.992 8.374 21 9.79 21s2.598-1.008 2.87-2.344h5.332a.584.584 0 00.424-.991 9.2 9.2 0 01-2.571-6.397zm-6.64-8.5a.587.587 0 011.172 0v.614l-.586-.028-.586.028v-.614zm.586 17.07a1.76 1.76 0 01-1.657-1.172h3.314a1.76 1.76 0 01-1.657 1.172zm-6.94-2.344a10.36 10.36 0 002.057-6.216v-1.87A4.89 4.89 0 019.79 4.525a4.89 4.89 0 014.883 4.883v1.87a10.36 10.36 0 002.057 6.216H2.85zM17.406 9.4a.586.586 0 101.172 0 8.73 8.73 0 00-2.574-6.215c-.23-.23-.6-.23-.83 0s-.23.6 0 .83a7.564 7.564 0 012.23 5.386zm-15.82.585a.586.586 0 00.586-.586 7.57 7.57 0 012.23-5.386c.23-.23.23-.6 0-.83s-.6-.23-.83 0A8.73 8.73 0 001 9.399c0 .324.262.586.586.586z"/></svg>