<svg xmlns="http://www.w3.org/2000/svg" width="18" height="21"><path d="M15.078 10.77v-1.9c0-2.756-1.772-5.092-4.2-5.855V2.17c0-.98-.77-1.776-1.718-1.776S7.442 1.19 7.442 2.17v.855c-2.428.763-4.2 3.1-4.2 5.855v1.9c0 2.42-.892 4.717-2.513 6.464-.16.17-.203.424-.113.642s.297.36.527.36h5.2c.266 1.35 1.423 2.368 2.805 2.368s2.54-1.02 2.805-2.368h5.2c.23 0 .437-.142.527-.36a.61.61 0 00-.113-.642 9.469 9.469 0 01-2.513-6.464zm-6.5-8.6c0-.326.257-.592.573-.592s.573.266.573.592v.62l-.573-.03a5.77 5.77 0 00-.573.029v-.62zm.573 17.25c-.747 0-1.383-.495-1.62-1.184h3.24a1.711 1.711 0 01-1.62 1.184zM2.37 17.052c1.304-1.807 2-3.995 2-6.282v-1.9c0-2.72 2.14-4.934 4.772-4.934s4.772 2.213 4.772 4.934v1.9c0 2.287.707 4.474 2 6.282H2.378zm14.236-8.17c0 .327.256.592.573.592s.573-.265.573-.592c0-2.372-.893-4.603-2.516-6.28a.56.56 0 00-.81 0 .605.605 0 000 .837 7.78 7.78 0 012.18 5.443zm-15.46.592a.583.583 0 00.573-.592 7.78 7.78 0 012.18-5.443.605.605 0 000-.837.56.56 0 00-.81 0C1.465 4.28.572 6.5.572 8.88c0 .327.256.592.573.592z"/></svg>