<svg xmlns="http://www.w3.org/2000/svg" width="47" height="63" fill="#fff"><path d="M38.598 13.04c-2.814 0-5.078-2.333-5.078-5.078V0H2.294A1.82 1.82 0 00.51 1.784v59.43A1.82 1.82 0 002.294 63h42.48c.96 0 1.716-.824 1.716-1.784V13.04h-7.892zM15.333 31.775c-.755.686-1.853.96-3.43.96H9.637v3.5c0 2.06-2.47 2.06-2.47 0v-9.47c0-1.098.48-1.5 1.578-1.5 1.373 0 4.255-.07 5.353.206 3.02.824 3.02 4.873 1.235 6.314zm13.588 1.578c-.412 2.128-1.784 3.706-3.98 4.05l-4.735.137c-1.304 0-1.578-.55-1.578-1.784v-9c0-1.098.48-1.5 1.5-1.5 1.5 0 4.118-.137 5.422.206 3.157.824 4.05 4.804 3.363 7.892zm10.57-6.45c-.206.206-.48.274-.892.274h-4.873v3.157h4.118c1.5 0 1.5 1.853 0 1.853h-4.118v4.05c0 1.784-1.578 1.784-2.127 1.167-.206-.275-.343-.686-.343-1.167v-9.47c0-1.098.48-1.5 1.5-1.5h5.833c1.373 0 1.373 1.235.892 1.647zm-28.14.205H9.705v3.774h-.07c1.784 0 4.392.343 4.392-1.922 0-1.5-1.03-1.853-2.677-1.853zm11.393.206h-1.647v8.304c1.03 0 2.745.07 3.57-.206 2.333-.824 2.196-5.353 1.372-6.725-.755-1.235-1.853-1.373-3.294-1.373zM38.598 10.02h5.765L36.47 2.127v5.765c0 1.235.96 2.127 2.127 2.127z"/></svg>