<svg xmlns="http://www.w3.org/2000/svg" xmlns:xlink="http://www.w3.org/1999/xlink" width="18" height="18"><path d="M12.645 14.375l-1.67-1.67a1.24 1.24 0 00-1.748 0l-.734.734A9.368 9.368 0 014.56 9.51l.734-.734a1.24 1.24 0 000-1.748l-1.67-1.67a1.24 1.24 0 00-1.748 0L.54 6.7c-.698.698-.72 1.93-.06 3.466.594 1.385 1.683 2.9 3.068 4.296s2.9 2.475 4.296 3.068c.745.32 1.418.48 1.993.48.612 0 1.113-.18 1.473-.54l1.336-1.336a1.23 1.23 0 000-1.748zm-.746 1.002l-1.336 1.336c-.362.362-1.223.3-2.305-.162C6.994 16 5.585 15 4.293 13.707S2 11.007 1.448 9.742C.985 8.66.924 7.8 1.286 7.437L2.622 6.1c.07-.07.186-.07.256 0l1.67 1.67c.07.07.07.186 0 .256L3.284 9.293l.16.336a10.39 10.39 0 004.928 4.928l.336.16 1.265-1.265a.18.18 0 01.256 0l1.67 1.67a.18.18 0 010 .256zm4.475-14.014C15.35.484 14 0 12.55 0s-2.8.484-3.824 1.363c-1.048.9-1.626 2.1-1.626 3.384s.577 2.485 1.626 3.384a5.38 5.38 0 00.596.443 8.99 8.99 0 01-1.343 1.589 9.096 9.096 0 003.108-.84 6.25 6.25 0 001.463.172c1.44 0 2.8-.484 3.824-1.363 1.05-.9 1.626-2.1 1.626-3.384s-.577-2.485-1.626-3.384zM12.55 8.438c-2.423 0-4.395-1.656-4.395-3.692s1.972-3.692 4.395-3.692 4.395 1.656 4.395 3.692-1.972 3.692-4.395 3.692z"/><use xlink:href="#B"/><use xlink:href="#B" x="-2.46"/><use xlink:href="#B" x="2.46"/><defs><path id="B" d="M12.55 5.45a.703.703 0 100-1.407.703.703 0 000 1.407z"/></defs></svg>