<svg xmlns="http://www.w3.org/2000/svg" width="14" height="14"><path d="M7.677 0c3.316.33 5.96 2.958 6.274 6.288a7.006 7.006 0 01-1.547 5.132 6.985 6.985 0 01-4.728 2.53v-1.4c2.552-.3 4.557-2.328 4.88-4.88a5.605 5.605 0 00-4.882-6.254V0zM6.274.02v1.402A5.6 5.6 0 003.54 2.6L2.538 1.563A6.89 6.89 0 016.274.021zM1.55 2.552l1.003 1.003a5.62 5.62 0 00-1.15 2.734H0a6.93 6.93 0 011.549-3.737zM.007 7.69H1.41a5.61 5.61 0 001.143 2.734l-.995 1.002A7.04 7.04 0 01.007 7.691zm3.533 3.765a5.61 5.61 0 002.734 1.143V14a7.002 7.002 0 01-3.737-1.584l1.003-.96zm3.435-7.62L3.82 6.99h2.454v2.804h1.402V6.99h2.454L6.975 3.835z"/></svg>