<svg xmlns="http://www.w3.org/2000/svg" xmlns:xlink="http://www.w3.org/1999/xlink" width="74" height="74" fill="none"><mask id="a" maskUnits="userSpaceOnUse" x="0" y="0" width="74" height="74"><rect width="74" height="74" rx="37" fill="#c4c4c4"/></mask><g mask="url(#a)"><rect width="74" height="74" rx="37" fill="#2f60bd"/><use xlink:href="#C" fill="#f3f3f3"/><use xlink:href="#C" fill="#839cd5"/><path d="M10.003 71.804c-.005-.172-.002-.61 0 0z" fill="#f3f3f3"/><path d="M10.003 71.804c-.005-.172-.002-.61 0 0z" fill="#839cd5"/><path d="M63.996 72.28c.003-1.16.007-.167 0 0z" fill="#f3f3f3"/><path d="M63.996 72.28c.003-1.16.007-.167 0 0z" fill="#839cd5"/><use xlink:href="#D" fill="#f3f3f3"/><use xlink:href="#D" fill="#839cd5"/></g><defs><path id="C" d="M37 46.25c7.892 0 14.294-8.115 14.294-18.124S49.19 10 37 10s-14.295 8.115-14.295 18.125S29.108 46.25 37 46.25z"/><path id="D" d="M63.968 71.072C63.7 53.635 61.52 48.666 44.826 45.52L37 59.292l-7.83-13.77c-16.51 3.11-18.825 8.005-19.13 24.984l-.04 1.3.003 1.83S13.98 82 37 82s26.995-8.365 26.995-8.365V72.28c-.004.1-.012-.094-.03-1.21z"/></defs></svg>